<?xml version="1.0" encoding="UTF-8"?>
<svg id="Layer_1" data-name="Layer 1" xmlns="http://www.w3.org/2000/svg" width="1000" height="1012.07" viewBox="0 0 1000 1012.07">
  <defs>
    <style>
      .cls-1 {
        fill: #252a78;
      }

      .cls-1, .cls-2, .cls-3, .cls-4, .cls-5, .cls-6, .cls-7, .cls-8, .cls-9, .cls-10, .cls-11, .cls-12, .cls-13, .cls-14, .cls-15, .cls-16, .cls-17, .cls-18, .cls-19, .cls-20, .cls-21, .cls-22, .cls-23, .cls-24, .cls-25, .cls-26, .cls-27, .cls-28, .cls-29, .cls-30, .cls-31, .cls-32, .cls-33, .cls-34, .cls-35, .cls-36, .cls-37, .cls-38, .cls-39, .cls-40, .cls-41, .cls-42, .cls-43, .cls-44, .cls-45, .cls-46, .cls-47, .cls-48, .cls-49, .cls-50, .cls-51, .cls-52, .cls-53, .cls-54, .cls-55, .cls-56, .cls-57, .cls-58, .cls-59, .cls-60, .cls-61, .cls-62, .cls-63, .cls-64, .cls-65, .cls-66, .cls-67, .cls-68, .cls-69, .cls-70, .cls-71, .cls-72, .cls-73, .cls-74, .cls-75 {
        stroke-width: 0px;
      }

      .cls-2 {
        fill: #22317f;
      }

      .cls-3 {
        fill: #154496;
      }

      .cls-4 {
        fill: #445da6;
      }

      .cls-5 {
        fill: #3e59a2;
      }

      .cls-6 {
        fill: #213280;
      }

      .cls-7 {
        fill: #282472;
      }

      .cls-8 {
        fill: #1f3786;
      }

      .cls-9 {
        fill: #232575;
      }

      .cls-10 {
        fill: #37549e;
      }

      .cls-11 {
        fill: #184091;
      }

      .cls-12 {
        fill: #22307f;
      }

      .cls-13 {
        fill: #7381be;
      }

      .cls-14 {
        fill: #1a3f90;
      }

      .cls-15 {
        fill: #1e3989;
      }

      .cls-16 {
        fill: #6375b6;
      }

      .cls-17 {
        fill: #203281;
      }

      .cls-18 {
        fill: #5468ae;
      }

      .cls-19 {
        fill: #154498;
      }

      .cls-20 {
        fill: #282371;
      }

      .cls-21 {
        fill: #10499d;
      }

      .cls-22 {
        fill: #4d62aa;
      }

      .cls-23 {
        fill: #242a78;
      }

      .cls-24 {
        fill: #0b50a2;
      }

      .cls-25 {
        fill: #194091;
      }

      .cls-26 {
        fill: #282574;
      }

      .cls-27 {
        fill: #174293;
      }

      .cls-28 {
        fill: #11479a;
      }

      .cls-29 {
        fill: #03449b;
      }

      .cls-30 {
        fill: #1e3888;
      }

      .cls-31 {
        fill: #174799;
      }

      .cls-32 {
        fill: #272473;
      }

      .cls-33 {
        fill: #252c7b;
      }

      .cls-34 {
        fill: #1e1f69;
      }

      .cls-35 {
        fill: #1d3c8b;
      }

      .cls-36 {
        fill: #1b2a74;
      }

      .cls-37 {
        fill: #252776;
      }

      .cls-38 {
        fill: #697aba;
      }

      .cls-39 {
        fill: #154495;
      }

      .cls-40 {
        fill: #5d71b4;
      }

      .cls-41 {
        fill: #203786;
      }

      .cls-42 {
        fill: #10489a;
      }

      .cls-43 {
        fill: #213686;
      }

      .cls-44 {
        fill: #252877;
      }

      .cls-45 {
        fill: #6073b5;
      }

      .cls-46 {
        fill: #1d3c8c;
      }

      .cls-47 {
        fill: #2a4895;
      }

      .cls-48 {
        fill: #1c3d8e;
      }

      .cls-49 {
        fill: #232d7c;
      }

      .cls-50 {
        fill: #586cb0;
      }

      .cls-51 {
        fill: #252775;
      }

      .cls-52 {
        fill: #221c6d;
      }

      .cls-53 {
        fill: #262776;
      }

      .cls-54 {
        fill: #324f9a;
      }

      .cls-55 {
        fill: #282471;
      }

      .cls-56 {
        fill: #222f7e;
      }

      .cls-57 {
        fill: #304d99;
      }

      .cls-58 {
        fill: #7685c0;
      }

      .cls-59 {
        fill: #232c7b;
      }

      .cls-60 {
        fill: #1a3f91;
      }

      .cls-61 {
        fill: #1d3b8b;
      }

      .cls-62 {
        fill: #445da5;
      }

      .cls-63 {
        fill: #4b61a9;
      }

      .cls-64 {
        fill: #5368ad;
      }

      .cls-65 {
        fill: #2b4996;
      }

      .cls-66 {
        fill: #fdfdfd;
      }

      .cls-67 {
        fill: #25216f;
      }

      .cls-68 {
        fill: #242978;
      }

      .cls-69 {
        fill: #f5f6f9;
      }

      .cls-70 {
        fill: #1c1669;
      }

      .cls-71 {
        fill: #244291;
      }

      .cls-72 {
        fill: #3b57a1;
      }

      .cls-73 {
        fill: #1f3383;
      }

      .cls-74 {
        fill: #6e7ebb;
      }

      .cls-75 {
        fill: #1f3685;
      }
    </style>
  </defs>
  <path class="cls-66" d="m0,55.71c0-4.23,1.07-4.76,4.95-4.76,330.03.11,660.06.11,990.1,0,3.88,0,4.95.53,4.95,4.76"/>
  <path class="cls-53" d="m194.29,582.34c-.59-.96-1.19-1.91-1.78-2.87,1.68-5.44,6.37-3.71,9.88-3.73,27.89-.2,55.78-.06,83.66-.13,13.93-.04,27.87.37,42.7-.38-3.03-3.13-4.63-6.21-1.01-9.35,4.03-2.35,6.53.6,9.17,2.76,22.59,18.45,47.27,33.28,74.8,43.14,26.01,9.32,52.65,14.6,80.43,15.26,35.18.84,69.03-4.52,101.77-17.35,25.07-9.83,47.73-23.69,68.61-40.59,2.41-1.95,4.45-5.04,8.36-3.54,1.09,2.25-.12,4.28-1.61,5.29-4.95,3.38-5.15,8.88-6.78,13.75-1.82,5.45-7.78,7.4-11.49,3.2-2.07-2.33-2.46-.11-3.1.39-4.67,3.64-9.89,6.39-14.87,9.73,7.82-3.38,16.05-2.55,24.19-2.56,36.45-.02,72.9,0,109.35,0,5.49,0,10.99.17,16.41-1.04.49-.11.99-.13,1.48-.24,3.61-.78,5.09,1.45,6.14,4.31,1.71-2.22,2.88-5.47,6.76-3.53-22.12,32.14-44.43,64.14-68.01,95.23-2.88,1.19-5.52,2.48-8.94,2.5-89.43.59-178.86.07-268.29.18-53.21.06-106.42.21-159.61-.08-6.43-.22-13.03-1.72-19,2.21-25.26-35.26-51.12-70.11-75.07-106.3-.16-2.9.12-6.09-4.16-6.24Z"/>
  <path class="cls-32" d="m680.25,759.48c-9.05,13.87-18.65,27.35-28.77,40.46-1.42-.48-1.95-1.59-2.15-2.94-2.85-2.02-5.56-3.04-7.62.98.27,1.8-.85,3.44-.75,5.1.34,5.61,1.62,11.14-7.07,11.9-3.19.28-4.7,5.74-3.95,7.86,1.56,4.41-1.37,6.99-2.16,10.38l.11-.12c-4.06,2.41-7.85,5.13-10.56,9.11-2.13,3.13-5.48,3.92-9.49,4,2.59,2.45,5.48-.43,7.79,2.08-1.23,3.76-4.92,6.41-6.03,10.43-2.61,3.32-4.21,7.39-7.62,10.1-1.21,2.25-3.8,3.61-4.09,6.44l-.19-.48.22.46c-1.5.59-3.18.67-4.24-.46-5.49-5.85-12.6-5.12-19.58-5.12-50.43.02-100.87.09-151.3-.07-8.41-.03-16.92,2.45-25.26-.58-.77-1.08-1.54-2.16-2.32-3.23,2.85-5.63-4.15-4.37-5.12-7.33-.38-.54-.75-1.08-1.13-1.62-.11-3.52-3.89-5.04-4.71-8.69,3.08-2.27,6.86.56,10.94-2.26-12.85,3.52-14.75-9.81-23.14-12.78l.1.11c-.97-3.34-3.57-5.77-2.2-10.36,1-3.35-2.44-8.9-5.69-10.54-6.01-3.04-5.42-7.85-5.96-12.73-.16-1.45,1.51-3.34-1.49-4.02-2.54-.58-2.01,1.49-2.7,2.46-3.23,4.52-5.33.65-7.74-.98-1.78-1.77-4.08-3.17-4.25-6.07,2.19-3.9,5.9-4.05,9.75-4.04,81.59.32,163.18.06,244.78.14,12.48.01,24.95-.05,37.43.03,4.99.03,10.71,1.2,14.67-.61,2.21-1.01,3.83-7.32,5.85-11.18,2.71-5.18,8.34-7.88,11.05-13.05.45-.72,1.01-1.36,1.65-1.93,4.24-1.33,8.22-6.65,12.94-.86Z"/>
  <path class="cls-26" d="m680.25,759.48c-4.53-3.38-8.05,2.35-12.32,1.37-2.3,3.61-2.43,8.24-7.68,10.42-5.49,2.28-3.86,10.82-9.54,14.05-.46.26,3.23.08,4.6,2.87-4.8.41-9.24,1.1-13.68,1.11-95.54.06-191.09.06-286.63,0-4.4,0-8.82-.78-12.87,1.67-9.41-13.03-18.81-26.05-28.22-39.08,3.13-13.98,3.64-14.45,17.83-14.43,99.68.13,199.36-.31,299.04.22,19.22.1,38.42-.08,57.35-3.86.81-.01,1.63.12,2.4.35,2.94,1.53,1.35,3.05-.11,4.47-1.6,1.56-3.78,2.26-5.55,3.57-5.36,3.97-6.46,9.18-3.43,15.65-.4.54-.8,1.08-1.2,1.62Z"/>
  <path class="cls-55" d="m397.54,869.02c6.91-1.95,14.05-1.57,21.06-1.6,50.07-.18,100.15-.05,150.22-.14,10.51-.02,21.33-1.77,29.1,7.97-24.93,35.24-49.86,70.49-74.81,105.72-6.64,9.37-13.41,18.65-19.96,28.08-2.02,2.91-3.08,4.78-6.08.52-33.07-46.92-66.33-93.72-99.53-140.55Z"/>
  <path class="cls-26" d="m273.52,694.88c1.38-3.4,2.84-6.1,7.59-4.7,2.75.81,5.93.16,8.92.17,2.15,5.48,6.36,6.71,11.91,6.71,132.18-.09,264.36-.05,396.54-.09,1.75,0,3.5-.26,5.24-.22,3.15.07,7.41-2.94,9.01,2.08,1.59,4.98,1.61,11.07-3.59,13.28-6.1,2.59-8.72,6.77-11.58,12.16-2.02,3.8-4.76,9.83-12.17,5.34-2.45-1.49-7.22.6-10.98.6-116.19-.01-232.38-.01-348.57-.02-1.25,0-2.53.16-3.74-.07-6.38-1.25-11.81-.74-14.18,6.66-.36,1.14-1.81,1.65-3.07,1.93-2.82-3.29-5.84-6.44-7.46-10.58-.78-4.48-2.84-8.18-5.73-11.77-1.54-1.91-2.47.87-3.29-.45-2.34-2.72-4.69-5.42-5.94-8.87.46-2.1.45-3.84-2.53-3.26-2.85-2.46-4.6-5.69-6.38-8.91Z"/>
  <path class="cls-32" d="m304.85,738.72q6.8-10.87,18.94-10.87c117.88,0,235.75,0,353.63-.03,4.06,0,8.63,1.36,10.79-3.89,2.96,2.65-1.26,3.85.62,6.91,3.81-3.91,8.62-6.37,9.13-12.67.26-3.19-.89-6.61,5.57-5.4,6.18,1.16,8.23-3.81,7.5-15.55-4.33,2.77-8.92,2.13-13.45,2.13-133.11.01-266.22.01-399.33,0-9.4,0-9.95-.63-8.23-8.99,140.74,0,281.48,0,422.22-.01,5.71,0,11.41-.17,17.12-.27-3.1,4.57-6.2,9.14-9.3,13.71-2.92-.51-2.95,1.21-2.54,3.28-11.84,17.06-23.28,34.39-36.06,50.78-3.07-1.51-6.12-6.48-5.4-6.91,4.35-2.58,2.98-9.13,7.91-10.68,3.13-.98,5.66-2.71,7.96-4.92,1.07-.95,1.82-2.15,2.79-3.4-1.12,1.13-1.7,2.47-2.8,3.4-23.18,5.39-46.74,4.59-70.3,4.56-97.9-.14-195.81-.05-293.71-.09-5.11,0-10.13-.7-10.08,6.95.01,2.03-1.57,4.21-3.92,5.12-1.84-2.14-4.04-4.05-4.63-7.01-.31-2.42-1.46-4.22-3.83-5.1-.5-.18-.71-.53-.61-1.05Z"/>
  <path class="cls-23" d="m797.36,594.85c-3.64.4-4.87,3.85-7.68,6.39-.49-5.33-2.66-6.59-7.48-4.72-3.09,1.19-6.85.83-10.31.84-40.41.05-80.81,0-121.22.07-4.84,0-9.78-.92-14.39,2-2.5,1.58-5.19-.03-8.36-1.32,9.15-4.63,17.03-10,24.43-15.86,2.58,2.78.24,4.45-.38,6.92,2.65-.79,4.9-1.7,7.24-2.09,2.33-.39,2.1-2.13,1.79-3.35-1.02-3.94,2.02-6.42,3.29-9.43,1.01-2.4,3.46-4.17,5.16-6.31.59-.74.85-1.76,1.26-2.65.02-2,1.34-2.8,3.01-3.29,1.99-.27,2.27-1.85,2.6-3.41,8.87-11.19,19.05-21.22,28.16-32.2,1.14-1.37,2.82-1.97,4.71-1.46,6.95,4.3,14.74,4.15,22.45,4.19,30.16.15,60.32-.19,90.48.25,5.59.08,10.72.63,10.82,8.04h0c-4.27,2.36-6.97,5.59-5.86,10.87-5.98,10.75-12.26,21.3-19.65,31.15-8.94,1.27-17.93.62-26.89.64-32.17.07-64.35.03-96.52.02-2.98,0-5.98.19-7.14-.03,20.55.19,42.9.04,65.25.08,13.97.02,27.93-.01,41.9.01,12.35.02,13.86,1.7,13.33,14.66v.03Z"/>
  <path class="cls-56" d="m870.52,400.16c-1.14,23.76-4.4,47.14-12.34,69.69-1.39,1.32-3.1,1.42-4.88,1.34-25.14-1.16-50.29-.24-75.43-.52-7.21-.08-14.46-.43-21.39,2.28-4.38,1.71-8.94.16-13.09-.45-4.7-.69-2.57-6.15-3.3-9.58-.3-3.05.62-5.89,1.61-8.69,5.48-15.46,9.23-31.32,11.42-47.57.37-2.72.97-5.38,3.09-7.39.87-.27,1.74-.26,2.61,0,32.62,1.85,65.27.42,89.57.87-20.03,0-48.4,0-77.84,0,3.73-5.25,7.97-4.51,11.78-4.53,22.46-.12,44.92-.05,67.38-.06,2.73,0,5.47.15,9.99-.51-9.72-1.27-17.67-.69-25.59-.74-18.47-.1-36.94.11-55.4-.14-4.07-.06-10.7,1.61-10.72-4.65-.01-5.64,6.39-4.32,10.28-4.35,26.7-.21,53.4-.13,80.11-.08,2.74,0,5.52-.07,7.99,1.44,3.68,4.74.69,10.33,1.99,15.88.05.5,1.23-1.13.43-.53-2-4.91.98-10.42-1.8-15.25-.07-2.34.21-4.47,3.82-5.47.37,6.49.72,12.72-.3,18.99Z"/>
  <path class="cls-59" d="m162.26,527.47c-11.78-23.96-20.32-49.01-25.3-75.25-.64-1.6-1.47-3.77.36-4.52,2.25-.92,2.37,1.66,2.97,3.1.87,2.1.22,4.38.67,6.54q-.28-7.98,2.74-9.67c5.03,1.01,9.79-1.21,14.85-1.14,23.22.32,46.44.12,69.67.16,4.53,0,8.99-.15,13.12-2.29,4.74-.49,3.12,4.23,4.95,5.48-1.52-4.23.67-7.99,3.64-11.53,3.43.49,3.97,3.47,4.79,5.94,5.77,17.4,11.64,34.75,21.11,50.61,1.15,1.92,1.99,4.05.51,6.28-5.14,7.81-12.13,10.42-21.63,10.17-24.61-.65-49.26-.22-73.89-.17,25.04,0,50.07-.08,75.11.07,4.56.03,11.68-2.2,11.59,5.39-.09,7.21-7.11,6.4-12.18,6.44-22.45.16-44.89.04-67.34.09-5.95.01-12.12-.87-17.56,2.24-1.05.6-2.34-2.89-2.38.36-.07,6.95-3.25,3.25-5.81,1.71Z"/>
  <path class="cls-1" d="m162.26,527.47c2.27-3.36,2.76,1.88,4.44.98,1.51-3.54-.95-6.12-2.07-9.6,3.59,6.99,8.57,1.87,12.77,1.91,25.98.27,51.97.21,77.95.05,4.05-.03,10.71,2.14,10.86-4.19.15-6.44-6.47-4.65-10.65-4.67-23.98-.11-47.97-.05-71.96-.05h-7.35c0-.5,0-1,.01-1.5h19.66c20.24,0,40.48-.1,60.71.06,6.77.05,12.34-1.73,15.23-8.22.99-2.23,3.22-.87,4.2-2.33,2.09.6,2.6,2.37,3.08,4.15.16,7.73,6.63,14.3,3.98,22.66,2.04-3.99-2.98-8.96,2.19-12.27,1.56.32,2.66,1.33,3.56,2.53,8.96,11.93,18.02,23.76,28.61,34.33.88.88,1.42,2.03,1.73,3.26.49,3.28-.99,8.25,5.5,6.36,2.97.28,4.19,2.1,4.3,4.89q-3.08,5.99,3.41,5.83c.61-.01,1.49.25,1.77.69.63.97.14,1.88-.78,2.49-3.65,2.43-7.65,3.12-12.05,3.11-40.13-.11-80.27-.09-120.4-.01-2.85,0-6.05-1.15-8.47,1.53-11.31-16.62-22.93-33.06-30.25-52Z"/>
  <path class="cls-2" d="m143.06,447.41c-.59,3.44-1.17,6.89-2.04,11.97-1.28-4.53-2.13-7.57-3.44-12.22-.34,2.75-.48,3.9-.63,5.05-7.18-27.95-9.29-56.45-9.02-85.18.09-9.71.02-19.45,1.78-29.07,4.33,1.25,3.33,5.03,3.57,7.99,1.44,18.08,1.5,18.18,19.37,18.19,22.98,0,45.95-.01,68.93.01,3.74,0,7.66-.44,11.09,1.21,5.55,2.67,5.66-.47,5.63-4.54-.04-4.23-.47-8.51.8-12.65.35-1.14.8-2.53,2.28-2.48,1.48.06,1.91,1.46,2.23,2.64.79,2.93.39,5.96.65,8.95-.42,23.16,1.27,46.12,6.14,68.81.52,2.43.95,4.89.29,7.37-1.51,3.51-3.49,4.26-7.86,4.24-28.71-.08-57.42-.08-86.13-.25-7.03-.04-11.58,1.69-12.72,9.08-.3.29-.61.57-.92.86Z"/>
  <path class="cls-33" d="m741.59,462.41c2.07,1.71.76,3.53.39,5.44-.09.46-.84,6.35,2.66,1.21,1.22-1.79,1.14.34,1.61.77,3.23,2.95,7.63,2.44,10.39.9,4.79-2.68,9.55-2.28,14.43-2.29,21.89-.06,43.78-.04,65.67-.02,7.17,0,14.39-.47,21.44,1.43-.46,8.77-4.06,16.69-6.87,24.79-5.09,14.7-10.57,29.26-18.38,42.8-2.33-5.48-6.57-6-12.11-5.99-35.1.06-70.2-.39-105.3-.54-4.24-.02-4.73-4.93-8.32-5.5-1.25-1.9.09-3.33,1.02-4.69,11.7-17.02,21.71-34.96,29.58-54.07.75-1.82,1.49-3.74,3.78-4.23Z"/>
  <path class="cls-17" d="m870.52,400.16v-18.85c-1.59,3.1-2.36,4.61-3.14,6.12-29.98,0-59.96,0-89.95,0-2,0-4,0-5.99.08-1.34.06-2.55.63-2.59,2.11-.04,1.48,1.12,2.13,2.48,2.2,1.99.1,3.99.1,5.99.1,25.23,0,50.47,0,75.7,0,1.75,0,3.52-.15,5.24.07,2.74.35,6.67,1.06,6.55,3.79-.16,3.97-4.33,2.02-6.62,2.04-25.98.16-51.97.08-77.95.14-2.42,0-4.97-.69-8.55,1.35h92.33c.02.45.05.89.07,1.34-1.97.09-3.95.26-5.92.26-25.73.02-51.47.02-77.2,0-6.47,0-12.99-.37-19.27,1.55-3.09.94-4.17.02-3.8-3.04-.08-.38-.16-.77-.24-1.15-.05-14.38-1.56-28.79.89-43.13.06-.32.78-.97-.08-1.33.22,1.07-.15,1.89-1.12,2.45-2.54-1.03-2.96-3.36-2.98-5.54-.05-6.71-1.88-13.25-1.7-19.95.18-1.73.2-3.49.63-5.2,1.19-4.77,3.31-6.87,8.42-3.86,7.77,4.58,16.36,5.24,25.29,5.11,22.23-.33,44.48-.12,66.72-.1,3.73,0,7.51-.27,11.43,1.22-1.13-4.29-2.19-8.51-2.72-12.78-.45-3.68-1.71-8.08,3.3-10.19,1.5,3.66-.97,7.95,1.81,11.42,1.28,2.54-.22,5.5,1.19,8.02,3.75,25.17,4.62,50.42,1.79,75.75Z"/>
  <path class="cls-46" d="m828.18,197.02c3.31,5.84,6.85,11.57,9.01,17.99,4.69,7.93,2.53,13.66-4.65,19.21-3.49,2.7-6.32,5.28-10.9,5.29-27.18.03-54.37.28-81.55-.19-5.84-.1-11.68-2.45-17.05,1.63-3.55.54-4.68-2.31-6.08-4.55-10.18-16.31-22.45-30.96-35.44-45.06-2.07-2.25-5.2-4.48-2.33-8.26,4.4-4.68,9.96-6.32,16.2-6.33,30.62-.03,61.24-.02,91.87-.02,4.98,0,9.82,1.86,14.83.93,3.72-.28,5.87,1.95,7.6,4.85,2.4,4.02,5.64,7.6,7.74,11.69,2.85,5.54,5.47,8.27,10.76,2.82Z"/>
  <path class="cls-41" d="m865.74,304.97c-4.08,7.04.67,13.75.92,20.62.09,2.4.91,4.82.22,8.96-1.09-5.97-4.52-5.66-8.03-5.66-27.68.06-55.36-.01-83.04.06-7.36.02-12.54-5.09-19.27-6.82-1.25,2.21-1.76,5.36-1.78,8.63-2.94-.52-3.02-3.03-3.4-5.15-2.92-16.26-7.84-31.93-13.51-47.4-.78-2.14-1.24-4.31-.83-6.6.57-2.16,1.17-4.33,1.87-6.45,1.38-4.22,3.75-5.95,7.58-2.31,2.62,2.5,5.88,2.44,9.12,2.44,24.68.02,49.37.03,74.05,0,2,0,4.34.45,5.88-.64,6.4-4.51,13.12-3.34,19.95-1.75,4.96,13.65,8.27,27.69,10.26,42.06Z"/>
  <path class="cls-73" d="m242.27,357.9c-.18-3.64-.36-7.29-.54-10.93-.42,0-.83,0-1.25,0v26.45c-7.38-8.7-15.76-6.96-23.73-6.98-25.15-.05-50.3-.14-75.45.09-4.79.04-6.63-1.35-8.22-6.04-2.52-7.43-.53-15.31-3.36-22.53.41-11.15,1.91-22.14,4.48-32.99,5.93,2.95,1.03,7.87,2.66,10.95,1.42-2.34-1.36-6.72,2.64-9.75,3.7,5.92,9.5,5.72,15.58,5.67,24.42-.2,48.84-.06,73.26-.09,5.22,0,10.47.34,15.65-.78,2.29-.5,4.56-.78,5.36,2.3.33,3.85-.3,7.51-2.23,10.9-2.43,1.64-2.25-1.08-3.2-1.92-.44-.9-.67.99-.25.08,1.69,2.84,3.53,5.63,3.49,9.14.07,6.88-1.64,13.62-1.59,20.51.02,2.37-.26,5.02-3.28,5.92Z"/>
  <path class="cls-43" d="m248.32,314.49c-.45-.83-1.02-2.42-1.35-2.38-29.5,4.3-59.16.62-88.71,1.81-3.24.13-6.61-.52-9.71.14-5.55,1.17-8.72-.36-9.28-6.66-.69,5.75,1.79,11.84-4.3,15.92-3.58-6.04,3.55-12.51-.77-18.35,1.75-13.78,5.15-27.16,9.58-40.3,5.33,4.3-1.01,8.53.09,12.42.15-5.78,3.59-7.97,9.5-9.4,8.62-2.08,17.18-2.54,25.91-2.51,20.93.07,41.87.01,62.8.03q14.06,0,17.52,13.33c-1.24,12.77-4.24,24.99-11.27,35.95Z"/>
  <path class="cls-35" d="m155.05,232.95c5-14.22,11.5-27.71,19.33-40.58,1.67-.61,2.65.65,2.28,1.72-2.1,5.96.85,8.86,6,10.65,2.82,5.04,7.65,4.89,12.42,4.9,28.59.03,57.19-.03,85.78.03,5.42.01,10.79.19,11.61,7.43.21,1.22.09,2.39-.55,3.46-3.87,1.06-6.01,8.02-11.58,3.42.01.97.38,1.91.32,2.91.42,4.12-1.65,7.74-2.26,11.65-.42,2.72-2.09,5.17-4.04,7.04-2.74,2.62-4.26-1.08-6.39-1.76-.99-.32-1.95-.24-2.94-.21-27.4.96-54.82.18-82.22.42-3.76.03-7.46.29-11.05,1.54-3.73,1.3-8.04,1.75-10.55-1.22-2.66-3.15-8.18,1.98-9.07-3.89-.08-1.3.23-2.44,1.29-3.3,2.13-.79,1.29-2.73,1.64-4.22Z"/>
  <path class="cls-15" d="m855.48,262.91c-1.95,6.02-6.11,1.05-8.05.63-3.03-.66-4.87-1.15-6.85,1.43-1.89,2.45-4.62,2.51-7.44,2.5-27.1-.04-54.2-.1-81.3.06-4.24.02-7.25-.94-8.2-5.94-4.93,2.65-1.97,8.43-5.5,10.93-7.06-5.2-8.15-13.68-11.48-20.92.1-1.82.65-3.44,2.07-4.6.04-.5,1.13-.13.87-.98-.13.42-.42.68-.91.78-1.33-.5-1.66-1.43-1.25-2.61.56-.73-.25.42.32-.4.2-.29.09-.18-.3.4-.54,1.36-.76,2.95-2.79,2.61-2.26-1.49-3.68-3.35-2.79-6.24,4.44-2.81,8.06-8.66,14.59-3.32,1.21.99,3.88.22,5.87.22,25.68,0,51.36,0,77.05,0,8.67,0,15.35-5.9,16.14-14.3,2.71.07,1.28,3.73,3.77,4.13,2.32-4.59-5.72-7.52-2.11-12.28,7.69,15.36,14.02,31.24,18.28,47.91Z"/>
  <path class="cls-30" d="m152.12,240.47c.38.32,1.02.97,1.1.9,4.99-3.81,7.53,1.51,11.12,2.89,1.12.43,2.6.88,3.6.5,14.75-5.71,30.06-2.05,45.09-2.64,16.42-.65,32.89-.3,49.33-.03,3.34.06,9.41-6.48,8.88,4.43,6.51-6.69,5.76-14.48,8.29-21.05,2.36,1.15,3.05,4.12,5.57,5.11.2,2.96-1.61,5.15-2.98,7.45-6.99,11.69-13.34,23.69-18.63,36.25-.93,2.2-1.45,4.87-4.51,5.33-1.95-1.01-3.44-3.03-3.08-4.78,1.52-7.5-2.96-7.44-8.21-7.42-26.96.11-53.92.17-80.88-.04-6.56-.05-12.33,2.99-18.68,3.89-4.79.68-3.09,7.97-3.9,13-3.71-6.91,2.08-13.3-.45-19.58,2.14-8.29,4.58-16.48,8.35-24.21Z"/>
  <path class="cls-74" d="m588.73,10.9c5.74.59,11.22,2.17,16.52,4.42-.54,3.68-2.84,6.17-6.31,6.28-8.35.24-16.73,2.51-25.06.05-4.78-1.42-9.36-.91-13.7,1.3-2.26,1.15-4.53,1.97-7.03,2.23-18.65-.51-37.13-3.32-55.87-3.05-12.71.18-25.31,2.07-38.01,1.68-2.92-.39-6.04.17-8.75-1.33-3.3-1.83-.44-2.54,1.51-4.13-6.03,3.38-11.54,3.48-17.35,2.74-10.41-1.32-20.72,2.05-31.19,1.03-4.54-.44-8.54-1.05-8.8-6.8,7.7-2.98,15.6-5.18,23.83-6.07,17.19,3.04,34.53,1.4,51.79,1.39,19.96-.01,39.93-.9,59.88.42,6.98.46,13.97-.1,20.89-.33,12.57-.42,25.1.77,37.65.17Z"/>
  <path class="cls-13" d="m588.73,10.9c-7.96,1.64-15.58,3.42-24.16,1.54-6.91-1.52-14.53.54-21.96.31-21.03-.66-42.1-.37-63.15-.18-14.2.13-28.39.24-42.58.19-6.71-.02-12.9,1.51-18.36-3.49,7.32-2.68,14.93-3.81,22.66-4.36.23-.1.46-.3.69-.29,28.12,1.69,56.24-2.05,84.32-.14,10.9.74,21.7,1.4,32.57.43,10.23.8,20.22,2.81,29.97,6Z"/>
  <path class="cls-45" d="m639.68,27.35c13.11,4.56,25.61,10.39,37.48,17.59-1.59,4.02-3.84,5.09-8.68,4.41-6.78-.95-13.52-1.15-19.98,1.75-3.82.42-6.88-1.9-10.34-2.79-1.04-.33-2.06-.72-3.09-1.07-6.91-3.48-14.8-4.15-21.74-7.56-3.76-2.09-8.78-1.46-11.7-5.35,1.36-2.68-4.04-2.79-2.21-5.29,1.87-2.54,4.96-1.96,7.66-1.69,10.88,1.08,21.74,1.28,32.62,0Z"/>
  <path class="cls-38" d="m394.69,15.32c6.78,8.73,16.65,5.38,24.33,4.09,11.73-1.97,23.15,2.55,34.65-.26-1.01.49-2.02.99-4.99,2.43h9.48c-.08,2.3-1.86,2.92-3.56,3.12-16.64,1.97-32.89,6-49.32,9.12-.73.14-1.49,0-2.24-.07-.73-.14-1.76-.17-2.06-.72-.92-1.75-1.32-3.06-4.17-2.31-10.09,2.63-20.33.94-30.51.14-2.52-.2-5.01-.67-6.06-3.52,11.02-5.33,22.54-9.21,34.44-12.03Z"/>
  <path class="cls-38" d="m639.68,27.35c-3.05,4.04-7.38,3.19-11.54,3.03-9.2-.35-18.43.02-27.64-1.93-.11,3.11,2.69,2.59,3.22,4.2.05.14-.2.5-.38.56-.46.16-.96.22-1.44.32-2.16,1.93-4.64,1.3-7.02.73-11.75-2.8-23.53-5.49-35.44-7.55-2.25-.39-5.17-.25-5.63-3.63,5.91-1.21,11.16-7.04,17.41-4.35,7.07,3.03,13.97.59,20.88,1.31,5.22.55,9.69-.56,13.15-4.72,11.9,2.8,23.42,6.68,34.43,12.03Z"/>
  <path class="cls-53" d="m797.36,594.82c-.59-3.59-3.84-6.02-3.38-10.41.41-3.93-3.83-1.91-5.8-1.92-34.98-.15-69.96-.19-104.93-.02-5.4.03-10.25-.7-14.8-4.59h11.32c39.73,0,79.45-.03,119.18.05,2.85,0,6.06-1.15,8.49,1.51-.42.65-.84,1.3-1.26,1.95-3.2.12-2.4,2.83-3.01,4.63-2.23,2.74-2.8,6.56-5.81,8.78Z"/>
  <path class="cls-18" d="m292.66,63.29c7.43-5.97,15.57-10.79,24.13-14.93,9.81-.08,19.37,1.47,28.77,4.19.63,3.88-2.79,4.18-4.97,5.37-5.89,3.21-12.38,5.23-17.93,9.11-4.55,2.27-9.05,4.64-13.29,7.47-.59.37-1.21.67-1.84.96-1.96.65-3.93,1.8-5.83-.13-1.12-.54,1.95-2.61-.9-2.48-.46.02-.9.47-1.39.5-3.84.24-8.59,2.61-11.08-1.45-2.37-3.86,3.22-5.5,4.33-8.63Z"/>
  <path class="cls-58" d="m558.76,4.9c-15.39,7.17-31.23.56-46.86,1.38-19,1.01-38.11-.37-57.1,1.81-5.03.58-8.77-3.51-13.62-3.19,2.9-1.81,6.14-1.37,9.3-1.39.34.35.73.57,1.17.67.9.2,1.84-.05,2.74.25-.83-.52-2.07.03-2.68-1.04,6.18-2.33,12.8-2.13,19.16-2.49,28.44-1.58,56.88-1.35,85.15,2.93.95.14,1.83.7,2.75,1.07Z"/>
  <path class="cls-40" d="m345.53,53.01c-7.3-.66-14.6-1.4-21.91-1.94-2.63-.19-4.54-1.84-6.82-2.71,10.31-6.83,21.35-12.2,32.91-16.53.95-.55,2.03-.4,2.76.11,6.62,4.68,14.84,5.4,21.9,9,.2.78.05,1.49-.45,2.12-7.45,4.34-15.82,6.56-23.58,10.21-1.55.73-3.28,1.16-4.8-.26Z"/>
  <path class="cls-4" d="m728.15,78.37c8.51,5.76,16.24,12.43,23.44,19.74-1.73,4.77-4.74,7.02-9.37,3.72-3.53-2.51-5.29,2.64-8.3,1.34-9.08-3.88-15.96-10.96-23.96-16.42-.41-.57-.58-1.21-.53-1.91,1.05-1.96.63-5.72,4.32-4.75,5.14,1.36,9.58-1.43,14.4-1.72Z"/>
  <path class="cls-65" d="m790.71,140.06c8.02,9.31,15.4,19.06,21.41,29.81.9,5.83-2.59,8.61-8.17,6.43-2.06-.81-3.54-2.5-5.1-4.02-6.86-7.72-13.38-15.72-20-23.64-1.27-1.52-2.75-2.9-2.03-5.17,4.95.18,8.85-3.91,13.88-3.4Z"/>
  <path class="cls-63" d="m292.66,63.29c.3.37.87.75.86,1.11-.08,3.05-6.7,4.46-3.27,7.34,2.38,2.01,7.48,1.24,10.91-1.38,1.29-.98,2.71-1.11,4.48-.12-1.21,1.85-2.39,3.66-3.58,5.47.56,1.49-.23,2.58-1.07,3.66-.69.76-1.48,1.4-2.35,1.94-6.08,2.96-10.72,8.42-17.56,10.07-3.77-1.7-7.29-4.07-11.8-3.51-2.47.31-4.28-.93-4.98-3.48,8.66-8.09,18.2-15.02,28.36-21.1Z"/>
  <path class="cls-54" d="m790.71,140.06c-4.35,1.36-7.48,8.31-13.31,2.92-3.98.77-5.56-2.61-7.77-4.67-4.17-3.89-8.13-8.02-12.15-12.08-.75-.73-1.44-1.52-2.06-2.37-.75-1.23-1.4-2.47-.54-3.92,2.62-2.35,5.04-4.7,8.8-1.43,2.52,2.19,4.84-1.87,7.54-.95,7.19,6.9,13.74,14.35,19.49,22.5Z"/>
  <path class="cls-72" d="m771.22,117.57c-4.62,4.11-4.56,4.01-9.83.93-2.66-1.55-3.87,2.75-6.48,1.99-1.55.81-2.71-.08-3.91-.87-4.11-4.24-9.04-7.52-13.39-11.48-1.69-1.53-4.53-2.44-3.65-5.67,3.31-1.26,5.94-4.85,10.31-1.09,3.21,2.76,4.68-2.47,7.33-3.28,7.18,5.84,13.79,12.26,19.62,19.46Z"/>
  <path class="cls-16" d="m374.16,41.07c-9.21-.27-17.12-3.99-24.46-9.24,3.17-2.31,6.77-3.59,10.54-4.48,10.27,2.5,20.69,3.18,31.18,2.02,4.17-.46,8.26-1.42,11.23,2.71.11,1.43-.68,2.47-1.84,2.89-7.64,2.73-15.33,5.36-23.24,7.2-1.21.28-2.42-.27-3.41-1.1Z"/>
  <path class="cls-22" d="m728.15,78.37c-3.83,3.35-7.95,5.58-13.14,3.17-3.16-1.46-3.06,2.49-5.04,2.94-9.4-2.79-17.57-7.63-24.43-14.66,2.47-3.02,5.24-4.75,9.47-3.39,4.59,1.48,7.98-2.86,12.29-3.12,7.57,4.17,14.42,9.33,20.86,15.07Z"/>
  <path class="cls-10" d="m218.07,129.49c6.18-8.26,13.26-15.68,20.97-22.5,5.69,1.04,12.36-1.8,16.79,4.23.3,1.12-.15,2.01-.87,2.81-4.29,3.77-8.23,7.9-12.22,11.99-3.2,2.52-5.15,6.74-9.83,7.24-2.28-.95-3.9-4.96-7.32-.81-.77.94-5.77.18-7.53-2.97Z"/>
  <path class="cls-50" d="m648.35,50.04c2.55-3.67,6.4-3,10.07-3.05,2.48-.03,4.47,1.41,7.41-1.43,4.27-4.12,1.49,2.38,1.78,2.2,2.96-1.81,7.69,2.37,9.54-2.82,6.49,2.93,12.69,6.34,18.33,10.72-1.37,4.29-4.72,4.47-8.44,4.24-5.42-.34-10.96-1.59-16.05,1.58-8.39-2.15-17.13-3.6-22.65-11.44Z"/>
  <path class="cls-57" d="m218.07,129.49c2.6,1.27,5.87-.67,7.87,2.12,1.79-2.05-2.39-3.35-.16-4.52,1.13-.59,3.51.14,4.72,1.06,1.23.93,1.72,2.84,2.54,4.32.89,1.46-.03,2.55-.74,3.68-.61.82-1.31,1.56-2.02,2.29-5.45,4.59-8.41,11.76-15.39,14.77-4.8.5-10.29,4.22-13.48-2.86,4.73-7.62,10.38-14.5,16.67-20.87Z"/>
  <path class="cls-71" d="m799.9,171.47c2.82.25,3.14,4.97,7.93,3.19,3.17-1.18,3.68-2.44,4.29-4.79,6.3,8.49,11.63,17.55,16.07,27.15-1.8,2.8-3.6,5.6-5.85,9.09-5.65-9.78-11.23-18.85-17.93-27.14-2.44-1.94-6.8-2.72-4.5-7.5Z"/>
  <path class="cls-71" d="m180.55,202.96c-1.81.87-1.81,3.66-4.09,3.97-2.7-4.61-2.32-9.59-2.09-14.56,3.2-7.46,7.67-14.19,12.08-20.95,6.38-1.21,8.05,2.64,8.45,7.87-.05,3.96-1.98,7.12-4.45,9.95-3.74,4.27-6.15,9.48-9.91,13.73Z"/>
  <path class="cls-47" d="m194.05,178.97c-1.09-3.97-3.49-6.61-7.59-7.55,4.14-5.95,8.29-11.91,12.43-17.86,1.6-.48,2.11-1.81,2.53-3.21,0,0-.01.02-.01.01,4.1,4.34,9.1,1.06,13.64,1.62,1.05,6.79-5.92,8.95-8.03,13.92-4.1,4.58-6.81,10.54-12.98,13.06Z"/>
  <path class="cls-64" d="m670.83,60.55c4.09-6.06,10.22-2.78,15.25-2.68,3.64.07,6.61.06,9.41-2.21,4.35,1.91,8.34,4.37,11.81,7.64-1.28,1.06,1.31,7.84-4.11,2.78-4.79,5.85-12.02-.67-17.17,3.38-6.85.07-11.8-3.09-15.19-8.92Z"/>
  <path class="cls-55" d="m346.39,797.04c2.35-.15,6.04,5.61,6.83-1.95.27-2.55,4.03-1.35,6.03-.78,1.48.42,3.75.96.82,3.88-1.57,1.56,2.33,6.46-.73,10.4,8.75-1.9,7.81,6.05,11.18,9.29,4.5,4.32-1.26,10.42,1.65,15.34-9.16-11.66-17.68-23.77-25.78-36.17Z"/>
  <path class="cls-5" d="m255.55,111.49c-4.74-4.31-11.89.27-16.5-4.5,3.79-4.69,8.2-8.7,13.09-12.21,3.66.94,7.24,1.42,10.77-.65,4.83-2.84,7.93-1.06,9.69,3.9-4.28,6.26-9.63,11.17-17.04,13.47Z"/>
  <path class="cls-55" d="m649.94,796.84c.51,1.03,1.03,2.07,1.54,3.1-7.4,11.45-15.24,22.58-23.7,33.27.45-3.86,2.79-7.93-1.27-11.28,3.54-1.23.76-6.09,4.5-7.51,3.04-1.15,4.84-6.53,9.71-1.65-3.72-5.98-1.25-10.94.22-15.94.29-.19.59-.38.88-.58,2.41-.65,4.83-.61,7.25,0,.29.19.58.38.87.58Z"/>
  <path class="cls-62" d="m271.98,97.97c-5.2-4.86-9.57-4.16-14.65,2.46-2.63-1.04-2.01-5.18-5.19-5.65,3.52-4.09,7.6-7.52,12.17-10.39,1.84.22,2.54,2.87,5.12,1.94,4.85-1.75,8.17,1.64,11.65,4.18.5,4.03-3.32,4.68-5.28,6.8-1.18.71-2.35,1.59-3.81.66Z"/>
  <path class="cls-55" d="m609.59,858.71c-.19-4.16,2.81-6.72,4.97-9.72-1.4-1.52-2.16.09-3.16.48-3.13,1.23-6.64-.86-6.87-2.61-.5-3.73,3.12-2.34,5.37-2.42,2.83-.11,4.72-1.22,6.5-3.86,2.62-3.88,5.62-8.15,11.48-7.49-5.6,8.89-11.62,17.49-18.29,25.62Z"/>
  <path class="cls-55" d="m372.07,833.1c3.27.39,6.07.43,8.38,4.16,2.49,4.01,5.71,8.96,12.4,7.03,1.07-.31,2.79,1.65,4.64,2.85-4.24,1.04-7.45,5.04-11.83.15-.12,4.34,5.49,5.61,3.31,9.55-6.17-7.53-11.78-15.46-16.91-23.73Z"/>
  <path class="cls-53" d="m288.37,715.92c5.57-6.06,5.16,3.82,8.67,3.25.17,2.99,2.52,5.89.34,8.96-3.01-4.07-6.01-8.15-9.02-12.22Z"/>
  <path class="cls-33" d="m827.08,548.3c-3.85-7.96-3.24-9.09,5.86-10.88-1.13,4.07-3.17,7.65-5.86,10.88Z"/>
  <path class="cls-55" d="m390.1,858.46c2.49.72,5.09,4.49,7.22-1.38,1.06,4.14,1.07,6.9-2.1,8.71-1.71-2.44-3.42-4.89-5.12-7.33Z"/>
  <path class="cls-1" d="m194.29,582.34c1.34-1.54,2.28-2.61,4.56-.6,3.24,2.84.75,4.64-.4,6.84l-4.16-6.24Z"/>
  <path class="cls-53" d="m279.9,703.79c1.98-.86,3.84-4.63,6.11-1.24,2.6,3.88-2.52,2.84-3.57,4.51-.84-1.09-1.69-2.17-2.53-3.26Z"/>
  <path class="cls-53" d="m717.52,707.07c-.73-1.84-5.68-.31-3.68-3.86,1.76-3.15,4.23-.9,6.22.58-.85,1.09-1.7,2.19-2.54,3.28Z"/>
  <path class="cls-23" d="m803.16,586.03c-.45-1.77-2.43-3.43-.47-5.37,1.45-1.43,2.59-.8,3.48.73-.48,1.89-1.52,3.4-3.01,4.63Z"/>
  <path class="cls-26" d="m305.46,739.77c5.08-1.15,5.3,1.34,3.83,5.1-1.28-1.7-2.55-3.4-3.83-5.1Z"/>
  <path class="cls-30" d="m155.05,232.95c2.08,2.42,1.65,3.88-1.64,4.22-.04-1.63.42-3.07,1.64-4.22Z"/>
  <path class="cls-55" d="m597.88,875.26c-.74-3.48,1.65-4.98,4.09-6.44-.22,2.88-2.29,4.57-4.09,6.44Z"/>
  <path class="cls-13" d="m451.71,3.38c1.61.11,3.22.23,5.69.41-3.05,1.71-5.07,1.68-6.91-.28.39-.24.79-.28,1.22-.13Z"/>
  <path class="cls-57" d="m201.42,150.34c.35,1.04,1.41,2.01.54,3.2-.97,1.32-2.05.44-3.08,0,.84-1.07,1.69-2.14,2.53-3.21Z"/>
  <path class="cls-41" d="m868.74,324.41c-2.31-2.39-1.08-5.3-1.19-8.02,1.28,2.54,1.41,5.25,1.19,8.02Z"/>
  <path class="cls-55" d="m640.94,796.84c-1.1.14-3.87,1.12-1.95-1.23,3.01-3.7,8.24-.99,12.35-2.43.71-.25-.2,2.59-1.4,3.66-3-.96-6-.96-9,0Z"/>
  <path class="cls-55" d="m613.95,838.92c.27-4.79,2.01-6.24,6.19-7.96-2.47,3.17-3.85,4.95-6.19,7.96Z"/>
  <path class="cls-55" d="m601.61,863.86c-1.34-2.32.5-3.86.69-5.72.46.21,1,.28,1.17.56,1.48,2.44.51,3.96-1.86,5.16Z"/>
  <path class="cls-55" d="m386.03,838.91c-2.35-2.97-3.75-4.75-6.26-7.93,4.21,1.67,5.93,3.14,6.26,7.93Z"/>
  <path class="cls-55" d="m606,851.72c.2,1.98-1.73,1.17-2.54,1.88-1.49,1.31-1.55-.25-1.3-1.05.27-.85.9-1.86,1.66-2.22,1.01-.48,1.74.44,2.18,1.38Z"/>
  <path class="cls-55" d="m393.79,854.56c-.28-2.57.29-4.4,1.72-4.26,2.64.26,1.29,1.63.2,2.62-.5.46-1.03.88-1.92,1.64Z"/>
  <path class="cls-32" d="m663.53,763.3c.71-2.74,1.82-4.14,3.32-3.33,2.64,1.41-.7,1.19-.86,1.99-.08.41-1.1.63-2.46,1.34Z"/>
  <path class="cls-26" d="m692.25,735.28c.87-3.73,2.59-6.14,6.76-7.08-.97,4.51-4.63,5.23-6.76,7.08Z"/>
  <path class="cls-53" d="m673.8,562.57c.59-1.31,1.43-2.36,2.87-2.79,1.51.93,1.81,2.07.49,3.37-1.34,1.32-2.46.93-3.36-.57Z"/>
  <path class="cls-33" d="m822.35,537.43c-1.06.42-1.61.8-2.17.8-.37,0-.91-.48-1.07-.87-.45-1.06.39-1.35,1.13-1.24.59.1,1.1.65,2.12,1.31Z"/>
  <path class="cls-17" d="m867.83,386.29c1.66,6.87.84,12.14,0,17.42v-17.42Z"/>
  <path class="cls-17" d="m756.52,399.42c-.06-4.22-.22-8.45,1.13-12.55,1.79,4.15,1.26,8.34.26,12.55-.46,0-.93,0-1.39,0Z"/>
  <path class="cls-2" d="m243.54,444.41c-2.32,3.82-5.73,4.62-10.08,4.59-26.82-.19-53.65-.1-80.47-.08-3.34,0-7.34-.96-7.08,6.29-1.38-3.78-2.11-5.79-2.85-7.8.14-6.85,4.18-8.43,10.3-8.38,20.97.15,41.95.06,62.92.06,7.99,0,15.98.15,23.94-.7,4.08-.44,6.52.52,4.5,5.28-.4.25-.8.5-1.19.75Z"/>
  <path class="cls-2" d="m249.66,438.26c1.46,4.88-5.25,8.49-1.71,13.78-3.06-1.94-4.75-4.24-4.42-7.63,3.64-.44,1.7-6.5,6.15-6.13l-.03-.03Z"/>
  <path class="cls-59" d="m278.25,503.89c2.36,3.68,4.72,7.36,7.08,11.05-2.14,4.69-.45,8.76,2.53,12.58-6.46,1.61-6.25,1.04-6.42-3.94-.1-3.07,1.46-6.92-1.97-10.07-2.47-2.26-2.71-6.15-1.22-9.61Z"/>
  <path class="cls-53" d="m318.24,555.43c2.01,2.02,5.14,2.78,6.37,5.68-.23,2.21-2.11,4.71-3.45,3.41-2.19-2.14-5.85-4.87-2.92-9.09Z"/>
  <path class="cls-59" d="m249.69,438.28c-2.37,1.73-1.73,6.47-6.15,6.13,1.44-3.37,2.45-6.68-3.25-4.27-3.17,1.34-6.31,1.26-9.53,1.26-25.96.02-51.91.17-77.87-.13-5.14-.06-8.32,1.25-9.83,6.14.25-11.92.33-12.11,12.2-11.97,27.81.31,55.64-1,83.41.8,4.24.28,2.39-3.57,4.4-4.14,2.69.88,1.29,3.56,2.51,5.03,1.32-1.08,2.61-2.14,3.91-3.21.06,1.46.13,2.91.19,4.37Z"/>
  <path class="cls-56" d="m757.91,399.42c-.09-4.18-.18-8.36-.26-12.54-.01-10.12-.02-20.23-.03-30.35.21-2.67.42-5.33.63-8,.08,16.99,3.19,33.99-.33,50.9Z"/>
  <path class="cls-56" d="m766.36,398.96c-1.33-3.49-1.03-5.83,0-8.27v8.27Z"/>
  <path class="cls-11" d="m677.96,185.15c-20.71-18.71-43.45-34.47-68.48-46.86-.4-.54.09-1.46-.77-1.79-.15.42-.46.74-.92.97l-4.34-1.99c-1-3.28-3.72-4.32-6.63-5.28-1.78-.59-4.28-1.06-3.62-3.77.55-2.26,2.72-2.4,4.79-2.74,9.6-1.56,19.26-.74,28.88-.8,34.62-.22,69.24-.07,103.86-.1,6.48,0,12.94-.15,19.15,2.29,2.6,1.02,5.38.91,8.05-.12,6.49,6,12.99,12.01,19.48,18.01,4.83,8.2,11.8,14.69,17.58,22.14,1.64,2.12,3.29,4.23,4.93,6.35-.15,3.49,3.44,4.74,4.5,7.5-5.53,4.49-11.05-.2-16.59-.13-25.85.3-51.71.11-77.56.14-11.15.01-22.65-1.74-32.29,6.17Z"/>
  <path class="cls-43" d="m246.38,324.41c.16,2.24.01,4.42-1.22,6.39-.56-3.09-1.12-6.19-1.71-9.4,2.25.1,1.41,2.59,2.92,3.01Z"/>
  <path class="cls-30" d="m141.95,288.69c2.45,3.84,5.35,7.69,1.24,12.68-2.81-4.36-1.06-8.62-1.24-12.68Z"/>
  <path class="cls-30" d="m246.65,292.09c.49,3.05,5.69,3.9,3.51,7.96-.2.38-1.45.67-1.8.42-2.87-2.06-4.48-4.6-1.7-8.38Z"/>
  <path class="cls-30" d="m243.27,293.17v8.42c-.25.02-.49.03-.74.05v-8.37c.25-.04.49-.07.74-.11Z"/>
  <path class="cls-48" d="m315.99,191.14c-8.12,9.52-16.24,19.03-24.35,28.55-.98-6.75-4.97-8-11.42-7.91-29.71.4-59.43.02-89.15.3-6.83.06-10.5-2.05-10.52-9.13.31-5.88,4.49-9.66,7.77-13.84,2.45-3.13,4.45-6.41,5.73-10.15,4-4.5,8-9,12-13.5,7.03,4.82.88,7.57-2.72,11.35,4.82.55,8.71.01,12.55,0,31.44-.02,62.87.08,94.31,0,5.86-.01,11.54,2.08,17.27,3.37-3.41,3.23-6.83,6.45-10.24,9.68-1.94-.44-2.78-2.98-5.25-2.58.32,2.32,3.55,1.72,4.03,3.83Z"/>
  <path class="cls-48" d="m290.32,221.57c-2.03,2.95-4.06,5.91-6.09,8.86-3.41.09-3.66-2.82-4.71-4.97-.76-1.77-2.32-4.1.31-5.04,3.48-1.25.58,2.25,1.83,3.25,1.64,1.32,2.37.46,3.74-.21,1.54-.76,1.92-4.99,4.91-1.89Z"/>
  <path class="cls-30" d="m270.89,237.93c-1.54-.59-2.69-1.68-2.83-3.2-.16-1.7.96-2.87,2.74-2.71,1.31.11,2.37,1.07,2.25,2.49-.12,1.41-.44,2.93-2.16,3.43Z"/>
  <path class="cls-46" d="m727.91,250.98c-.88-1.53-1.76-3.06-2.63-4.6.88-.98,1.76-1.95,2.64-2.93h0c.03,1.24.29,2.35,1.5,3-.5,1.51-1.01,3.02-1.51,4.52Z"/>
  <path class="cls-46" d="m729.13,246.48c.98-1.27,1.85-2.4,2.71-3.52.41.51,1.28,1.17,1.16,1.51-.54,1.67-2.07,1.9-3.88,2.01Z"/>
  <path class="cls-46" d="m727.92,243.45c-.07-1.19-2.55-1.23-1.49-2.78.45-.67,1.81-1.34,2.52-.31.83,1.2.16,2.34-1.03,3.1h0Z"/>
  <path class="cls-21" d="m374.16,41.07c9.69-2.4,19.18-5.41,28.49-8.99,18.5-3.5,37-7,55.5-10.5,31.94-2.68,63.82-1.94,95.65,1.5,16.03,3.48,32.06,6.97,48.09,10.45,4.02,1.51,8.04,3.02,12.06,4.53,6.58,5.13,14.7,5.76,22.38,7.67.56.38,1.12.75,1.68,1.13-.05,4.4-3.23,5.05-6.18,4.07-10.32-3.42-20.8-1.63-31.23-1.62-65.72.03-131.44.03-197.16,0-10.18,0-20.37,1.2-30.56-.19-1.86-.25-4.34,1.03-5.13-1.58-.83-2.75,2.02-2.96,3.57-3.9.81-.5,1.9-.55,2.66-1.25.03-.44.09-.88.17-1.31Z"/>
  <path class="cls-28" d="m373.99,42.39c-1.84,1.48-3.68,2.96-7.01,5.65,10.62-3.39,19.46-.61,28.3-.7,66.07-.62,132.15-.55,198.23-.16,13.27.08,26.94-4.34,39.91,2.46,2.06,1.08,3.66-.85,4.61-2.78,3.84-.22,6.68,2.81,10.34,3.18,6.96,4.63,14.83,7.34,22.48,10.51,5.06,2.97,10.12,5.95,15.18,8.92,7.99,5,15.97,10,23.96,15.01,0,.47,0,.94,0,1.41.45,1.01.2,1.8-.75,2.36-6.3,1.56-12.37,1.77-17.51-3.13-1.97-1.88-4.27-2.31-6.91-1.9-6.2.97-12.46.62-18.7.62-112.11.02-224.21,0-336.32.03-9.32,0-18.89-2.14-27.76,2.76-1.05.58-2.43.57-3.68.54-1.75-.05-3.66-.1-4.19-2.28-.46-1.9,1.27-2.44,2.42-3.27.81-.59,1.62-1.17,2.39-1.8.5-.45,1-.9,1.5-1.36,3.12-.48,5.91-1.52,7.5-4.54v.03c4.75-2.09,9.23-4.68,13.51-7.61,5.25-5.5,12.83-6.73,19.08-10.4,1.66-.97,3.31-1.95,4.97-2.93,9.65-3.11,18.4-8.61,28.46-10.62Z"/>
  <path class="cls-28" d="m636.33,45.73c-6,1.46-18.9-2.96-22.38-7.68,7.46,2.56,14.92,5.12,22.38,7.68Z"/>
  <path class="cls-19" d="m307.97,73.92c.13,5.85-2.45,7.23-7.5,4.54.53-.92,1.06-1.83,1.6-2.75,1.97-.6,3.94-1.19,5.9-1.79Z"/>
  <path class="cls-19" d="m321.48,66.34c-3.65,4.05-7.85,7.14-13.51,7.61,3.97-3.48,8.34-6.25,13.51-7.61Z"/>
  <path class="cls-39" d="m709.92,87.49c.01-.54.03-1.07.05-1.61,9.09,3.95,15.92,11.16,23.99,16.59,5.23,6.33,13.44,9.42,17.99,16.49.72,2.27,2.75,3.25,4.48,4.51.5.5.99,1,1.49,1.49-1.59,7.55-7.41,3.06-9.61,2.05-4.16-1.91-8.12-2.02-12.3-2.02-37.48-.02-74.96-.02-112.43,0-9.07,0-18.14.06-27.21.2-.81.01-1.6.83-2.36,1.79,3.99.1,6.96,5.26,11.35,1.22,1.28,3.38-2.53,4.67-1.91,7.27-28.89-11.81-58.85-19.06-90.02-21.18-10.99-.57-21.99-1.56-32.96.27-.73.01-1.46.02-2.19.04-3.63,1.54-7.69-.46-11.29,1.36-3.77,1.12-7.56,2.09-11.55,1.68-1.39.61-2.72.84-3.85-.49-.27-.62-.34-1.27-.21-1.92.46-.5.89-1.04,1.08-1.72-.58.49-.49,1.5-1.39,1.79-2.88,1.53-5.85,2.39-9.11,1.78-4.6-3.15-8.89-3.98-12.31,1.69-9.8,1.8-19.77,2.23-29.62,2.31-41.4.37-82.8.24-124.21.08-7.9-.03-15.82-1.61-23.15,2.96-1.62,1.01-4.3,1.19-5.58-.54-1.7-2.3.94-3.4,2.27-4.66,1.83-1.74,3.21-3.81,4.65-5.83.51-.53,1.01-1.06,1.52-1.6,5.48-4.51,10.95-9.01,16.43-13.52,1-.51,1.99-1.02,2.99-1.53,57.5,7.49,115.26,2.75,172.9,3.47,20.89.26,41.87-4.13,62.77-2.46,60.87,4.86,121.82,1.77,182.72,2.84,8.31.15,16.26-1.81,25.16-2.58-2.56-4.2-7.93-5.37-8.59-10.21Z"/>
  <path class="cls-19" d="m709.92,87.49c4.73,3.56,9.46,7.12,14.83,11.17-29.3,6.82-58.27,3.14-87.02,3.7-29.72.57-59.5.91-89.19-.15-20.36-.73-40.77-4.17-61.08-2.5-62.32,5.14-124.7,1.66-187.04,2.73-4.04.07-8.71,1.39-11.03-3.93-.57-1.32-2.03-1.63-3-.34-4.93,6.48-7.71-.57-11.43-1.74,2.04-1.98,4.07-3.95,6.11-5.93,6.22-3.14,11.04-8.62,17.9-10.7-1.31,1.65-2.62,3.31-3.94,4.97,4.77-1.54,10.98,1.66,13.95-4.64.54-1.14,2.08-1.69,3.24-.79,4.93,3.81,10.62,2.06,15.94,2.06,116.31.11,232.62.09,348.93.05,3.4,0,7.03.9,10.03-1.78,1-.89,2.81-1.23,3.29,0,3.8,9.57,12.57,6.34,19.51,7.81Z"/>
  <path class="cls-11" d="m756.42,123.48c-2.46-.55-5.2-.81-4.48-4.51.99.51,1.97,1.02,2.96,1.53.51,1,1.01,1.99,1.52,2.99Z"/>
  <path class="cls-27" d="m254.03,113.09c-.32,4.39-3.34,6.94-6.54,9.61,3.43-1.08,7.58.39,9.84-3.56,1.28-2.25,3.51-1.85,5.34-1.55,18.59,3.08,37.3,1.02,55.95,1.3,26.69.4,53.39-.11,80.08.22,9.28.12,18.36-3.54,27.76-1.04,1.2.32,3.5-.34,4.54-2.07,2.16-1.4,4.34-1.04,6.54-.12.6.23,1.18.51,1.76.8,1.29,1.14,4.06.8,3.67,3.63-22.7,5.64-44.39,13.96-65.31,24.39-20.61-2.93-41.29-.25-61.94-.78-20.68-.53-41.38-.24-62.07-.04-7.01.07-13.57,3.33-20.65,3.07-2.42-.09-5.53,1.2-7-1.11-1.87-2.94,1.74-4.66,2.83-6.96.32-.66.82-1.25,1.22-1.88.5-.5.99-1,1.49-1.5,4.26-2.75,7.8-6.22,10.49-10.53,3.45-4.51,7.34-8.58,12.01-11.86Z"/>
  <path class="cls-25" d="m242.02,124.94c-1.23,5.77-4.75,9.26-10.49,10.53.5-1,1-2,1.51-2.99,3-2.51,5.99-5.02,8.99-7.54Z"/>
  <path class="cls-25" d="m230.04,136.97c-.16,3.1-2.19,5.44-4.18,8.99,33.08-7.39,65.66-3.61,98.06-4.45,10.46-.27,20.93-.04,31.4-.04,1.5,0,3.23.49,4.45-.1,6.86-3.34,12.82-2.61,17.89,3.31-2.38,2.04-5.06,3.56-8.05,4.51-1.05.16-2.88-.95-2.52,1.53-3.16,1.99-6.33,3.98-9.49,5.97-.76-.54-1.49-1.14-2.36-1.51.24.84,1.12,1.48.74,2.5-2.97,2.13-5.94,4.25-8.91,6.38-1.49.27-2.37,1.3-3.11,2.51-5.5,4.54-10.99,9.08-16.49,13.62-4.87-2.58-5.15,4.71-9.63,4.1,1.18-7.67-4.16-5.39-8.45-5.38-31.16.07-62.31.01-93.47.08-3.94,0-7.97-.71-11.83.9-1.75.73-3.62.58-4.58-1.24-1.37-2.59.9-3.4,2.55-4.45,3.21-2.05,7.35-3.69,3.99-8.74,1.08-5.78,7.7-7.86,9.01-13.49,5.91-4.09,8.81-11.19,14.99-15.01Z"/>
  <path class="cls-32" d="m640.94,796.84c3-2.27,6-2.27,9,0-3,.91-6,.92-9,0Z"/>
  <path class="cls-20" d="m319.59,318.36c2.64-.95,5.29-1.9,7.93-2.85.63.66,1.14,1.03.9-.38,17.3-9.28,35.06-17.62,52.96-25.67,4.28,1.6,8.7,2.32,13.18,1.37,1.57-.33,4.28.87,3.98-3.33-.18-2.53,4.04-2.39,6.2-1.35,8.27,3.99,17.05,3.09,25.74,3.1,49.38.03,98.76,0,148.14.04,5.28,0,10.47-.09,15.29-2.67,1.55-.83,3.54-1.68,5.02-.95,3.82,1.87,7.31,1.3,10.89-.36,20.85,9.34,41.47,19.17,61.69,29.82-.25,1.44.28,1.05.91.39,2.49.98,4.99,1.96,7.48,2.94.49,1.4-.03,1.94-1.46,1.71-.52,0-1.03,0-1.55,0-2.17.86-4.44.48-6.67.48-112.51.02-225.02.02-337.53,0-2.22,0-4.5.38-6.66-.49h-4.55c-1.43.24-2.01-.42-1.91-1.8Z"/>
  <path class="cls-49" d="m466.97,505.99c-2.68-1.82-1.28-4.54-1.29-6.79-.19-24.16-.22-48.32-.3-72.49-.52-.96-1.39-1.4-2.42-1.36-16.02.49-32.04.53-48.05-.14-1.29-.05-2.43.24-3.41,1.1-.9.58-1.8,1.15-2.7,1.73-.59.51-1.72.96-1.98.55-2.81-4.5-1.66,1.1-2.68,1.02-2.46.43-3.58-1.22-4.54-3.01-.35-.64-.18-1.34.68-1.6-1.45-1-18.94,1.1-20.29,2.56-1.39,1.5-2.55,3.66-4.22.29-.4-6.54-.44-13.07.03-19.6,1.83-5.2,5.26-6.99,10.52-4.98,3.83,1.47,7.86,1.31,11.85,1.31,67.23.01,134.47,0,201.7,0,3.75,0,7.65.42,11.12-1.13,6.67-2.98,10.36-.05,12.93,5.78.9,4.09.41,8.24.45,12.37-.08,1.37-.37,2.66-1.48,3.61-6.28-2.33-12.42.61-18.68.57-40.48-.25-80.97-.13-121.45-.13q-11.41,0-13.59,11.07c-.17,19.8,0,39.59-.09,59.37-.02,3.42.45,7-2.11,9.9Z"/>
  <path class="cls-37" d="m609.82,285.31c-2.32.76-.25,4.89-3.74,4.84-.94-.01-2.56.85-2.72.6-4.48-7.26-8.55-1.74-12.94.12-1.94.82-4.4.57-6.63.57-55.42.03-110.84-.15-166.25.24-6.66.05-11.48-4.54-19.45-4.77,2.99,1.67,4.64,2.6,6.7,3.76-7.37,2.18-14.04,3.32-21.03,3.14-4.29-.11-2.66-2.32-2.39-4.33,8.78-4.85,17.74-9.34,27.07-13.03,11.71-1.14,23.35.66,35.03.71,37.63.15,75.26.06,112.89.05,2.74,0,5.61.47,8.19-.3,10.15-2.99,20.07-1.81,29.98,1.01,5.37,1.9,10.51,4.26,15.27,7.4Z"/>
  <path class="cls-59" d="m594.55,277.9c-4.24,1.27-8.31,2.45-12.49-.71-4.02-3.03-7.75,1.24-11.82,1.36-3.34.1-6.83.88-10.29.88-40.09,0-80.19.45-120.26-.3-10.33-.19-21.12,1.47-31.22-2.72,4.14-2.77,8.61-4.86,13.31-6.46,44.47-3.09,89-1.42,133.5-1.68,4.43-.03,7.66-1.77,11.01-3.98,9.76,3.83,19.14,8.46,28.27,13.6Z"/>
  <path class="cls-12" d="m566.28,264.31c1.07,6.15-2.73,6.21-7.24,6.2-34.58-.1-69.16.06-103.74-.13-9.24-.05-18.27,2.79-27.58,1.48-2.15-.3-4.54.6-5.95-1.89.58-.29,1.17-.58,1.75-.87,3.94-.41,7.29-2.1,10.15-4.8,4.78-3.08,9.84-5.56,15.23-7.39,2.89,3.15-1.58,2.33-1.94,3.78,1.69-.66,3.24-1.66,5.3-1.41,29.23,3.47,58.57.85,87.85,1.46,5.19.11,10.49-3.79,15.64.82.6.53-1.05-.51-.38-1.24.59-.64,1.07-.8,1.8-.46,3.31.92,6.38,2.33,9.1,4.46Z"/>
  <path class="cls-75" d="m557.18,259.85c-1.09,1.02,2.01,7.23-3.33,2.85-2.73-2.24-4.82-2.76-7.89-.62-1.43,1-3.82.84-5.77.84-26.72.05-53.44.04-80.16.02-2.46,0-5.05.45-7.15-1.42-2.19-1.95-4.73-1.34-5.75.67-1.1,2.15-2.26,2.96-3.74,1.45-2.4-2.45.93-2.51,1.96-3.32,1.15-.9,2.61-1.41,3.91-2.14.13-.07.17-.49.11-.7-.06-.22-.3-.38-.47-.57,2.73-2.12,5.8-3.55,9.13-4.44,14.04-.7,28.04.67,42.05.98,10.7.24,21.31-.85,31.89-2.36,3.38-.48,6.61.99,9.94,1.38,5.39,1.85,10.47,4.32,15.27,7.38Z"/>
  <path class="cls-24" d="m374.48,354.41q-1.39-20.79,18.83-20.8c74.84,0,149.69.09,224.53-.19,6.78-.03,8.84,1.8,8.03,8.3-.58,4.67-.3,9.45-.41,14.18-.87.31-1.51.06-1.95-.75-.76-1.47-.93-3.06-1.01-4.67-.21-2.42.23-4.93-.94-7.22-4.08-4.16-9.36-2.86-14.17-2.87-55.88-.12-111.76-.1-167.64-.06-18.71.01-37.42-.16-56.13.07-2.62.03-7.82,2.19-6.44-4.37,2.72-.61,5.48-.3,8.21-.3,74.64-.02,149.28-.01,223.93-.04,1.96,0,3.96.4,7.45-.78-4.26,1.11-7,.74-9.7.74-73.89.02-147.79.02-221.68.03-2.74,0-5.49-.29-8.2.25-2.06,3.87,1.55,7.59.36,11.44-.06,2.1-.04,4.22-1.01,6.17-.44.84-1.12,1.13-2.04.87Z"/>
  <path class="cls-69" d="m326.04,320.16c1.74-.1,3.47-.3,5.21-.3,113.23-.02,226.46-.03,339.7-.02,1.99,0,3.97.21,5.96.32-2.35,2.14-5.24,1.24-7.89,1.24-111.69.05-223.39.05-335.08,0-2.65,0-5.54.91-7.89-1.25Z"/>
  <path class="cls-61" d="m541.92,252.47c-20.2,1.52-40.32,5.79-60.71,1.2-2.34-.53-5.9-.07-8.18.67-5.61,1.82-10.13-.39-15-1.88,3.04-2.14,6.32-3.8,9.93-4.75,14.21-2.97,28.62-1.6,42.96-1.95,1.96-.05,4.01.22,5.75-1.03.7-.35,1.45-.51,2.22-.49,4.11,2.1,8.31,3.91,13.11,3.48,3.6.96,6.89,2.58,9.92,4.75Z"/>
  <path class="cls-67" d="m622.94,424.91c0-1,0-2,0-3,1.06-.5,1.77-.19,2.13.93.44,27.12-.41,54.25.43,81.36.3,3.02-1.94,2.28-3.51,2.28-51.2,0-102.4-.03-153.6-.08-.48,0-.95-.27-1.43-.42.03-23.5.06-46.99.09-70.49,5.63,2.1,2.47,7.2,3.71,10.81.26,8.37-.56,16.74-.02,25.12.27,7.48.16,14.96.15,22.43,0,6.13,2.56,8.3,8.56,8.25,17.95-.18,35.91-.06,53.86-.06,24.94,0,49.87.05,74.81-.02,11.26-.03,12.34-1.24,12.46-12.51.08-7.48-.23-14.96.16-22.44.28-6.58-.22-13.15-.07-19.73.3-4.95.07-9.9.07-14.85,0-2.71-.08-5.5,2.19-7.58Z"/>
  <path class="cls-60" d="m517.97,244.96c-.54,3.71-3.44,2.99-5.81,2.97-9.74-.06-19.47-.13-29.21-.36-5-.12-9.96,4.15-14.99.14,4.78-3.03,9.8-5.57,15.18-7.38,4.15,2.53,7.86-.07,11.53-1.26,8.49-2.75,15.67,2.78,23.61,3.38.68.05.45,1.71-.31,2.51Z"/>
  <path class="cls-3" d="m625.51,504.21c-1.82-2.45-.97-5.28-.98-7.93-.12-24.8-.14-49.59-.18-74.39-2.4-16.79-2.08-33.69-2.04-50.57.6-5.15-1.72-10.73,2.23-15.4.31,0,.62,0,.93-.02.02,49.44.03,98.87.05,148.31Z"/>
  <path class="cls-31" d="m517.97,244.96c-8.82-2.44-17.44-7.75-26.89-2.9-3.56,1.83-5.83,1.36-7.94-1.72,4.58-2.38,9.18-4.72,13.73-7.16,2.16-1.16,4.16-1.08,6.3.04,5.44,2.86,10.92,5.63,16.39,8.44.24,1.11,3.69,2.3-.09,3.3-.5,0-1,0-1.5,0Z"/>
  <path class="cls-14" d="m375.35,505.96c-1.1-.46-1.21-1.39-1.21-2.42.12-45.21.23-90.42.34-135.63,1.03,0,1.77.46,2.21,1.39,1.89,10.16.43,20.43.99,30.64-2.24,12.38-.81,24.73-.32,37.17.83,21.19.38,42.44.16,63.66-.05.97-.23,1.91-.53,2.83-.45.85-1,1.64-1.64,2.36Z"/>
  <path class="cls-70" d="m375.35,505.96c.07-.5.14-.99.21-1.49,5.33-4.01,11.51-2.18,17.32-2.32,11.76-.29,11.76-.1,11.79-12.12.02-8.2-.12-16.39.2-24.59.72-9.81-1.42-19.75,1.34-29.46.66-.89,1.49-1.08,2.47-.58.13,22.44.22,44.87.45,67.31.03,3.02-1.11,3.85-3.92,3.78-9.95-.26-19.9-.36-29.85-.52Z"/>
  <path class="cls-9" d="m411.5,426.31c.73-4.75,4.78-2.4,6.54-2.21,14.19,1.55,28.34.89,42.52.3,1.81-.08,4.82-1.75,4.82,2.31-17.96-.14-35.92-.27-53.88-.41Z"/>
  <path class="cls-19" d="m480.47,114.57c.82-.87,1.85-2.63,2.43-2.49,10.07,2.4,20.55-.98,30.53,2.22-10.99.09-21.97.18-32.96.27Z"/>
  <path class="cls-60" d="m519.47,244.96c1.63-1.06.04-2.2.09-3.3,4.44,1.41,8.58,3.44,12.44,6.05-4.93,2.52-9.42,3-12.53-2.76Z"/>
  <path class="cls-25" d="m315.99,191.14c-4.11.19-6.64-1.7-7.67-7.11,3.24,2.51,7.77.84,8.89,5.86-.41.42-.82.84-1.22,1.26Z"/>
  <path class="cls-27" d="m441.49,115.98c3.5-.5,7-1,10.5-1.5,0,.5,0,1,0,1.5-.97,1.02-3.1.84-3.01,2.94l-.51.34-.59-.15c-3.41,1.09-6.24-1.16-9.38-1.64h0c-.03-2.57,1.24-2.52,3-1.5Z"/>
  <path class="cls-7" d="m408.67,435.4c-.55.01-1.1.03-1.65.04-1.18-1.92-2.64-3.7-3.02-6.03v-5.15c2.02,1.55,2.39,4.32,4.8,3.77-.04,2.45-.08,4.91-.13,7.36Z"/>
  <path class="cls-59" d="m433.67,264.3c-2.28,3.94-5.53,5.82-10.15,4.8,3.15-2.08,6.43-3.9,10.15-4.8Z"/>
  <path class="cls-42" d="m375.45,367.93c-.32,0-.64,0-.96-.02,0-4.5,0-9.01,0-13.51.31.01.61.02.92.02,2.64,2.45,2.11,5.66,2.13,8.74-.22,1.8-.53,3.56-2.09,4.76Z"/>
  <path class="cls-19" d="m448.98,118.93c-1.67-3.71,1.2-2.79,3.01-2.94.77,1.35,2.11,1.51,3.45,1.65-1.97,1.37-4.2,1.39-6.46,1.29Z"/>
  <path class="cls-19" d="m438.49,117.48c3.32-.54,6.25,1.1,9.38,1.64-1.49.98-3.13,1.37-4.91,1.18-1.49-.94-2.98-1.88-4.47-2.81Z"/>
  <path class="cls-19" d="m466.99,115.96c3.47-2.88,7.52-.92,11.29-1.35-3.63,1.56-7.46,1.38-11.29,1.35Z"/>
  <path class="cls-27" d="m355.97,157.7c-1.16-.68-2.31-1.35-3.47-2.03.4-.5.85-1.45,1.2-1.41,1.64.16,4.08-.69,3.88,2.45-.54.33-1.08.66-1.62,1Z"/>
  <path class="cls-27" d="m367.08,150.73c-.79-.3-2.6-.3-2.08-1.1,1.05-1.64,2.84-2.92,4.61-.43-.84.51-1.68,1.02-2.52,1.53Z"/>
  <path class="cls-39" d="m607.78,137.47v-4.44c2.57,1.2,2.78,3.01,1.7,5.26-.57-.27-1.13-.55-1.7-.82Z"/>
  <path class="cls-69" d="m319.59,318.36c.64.6,1.27,1.2,1.91,1.8-2.16,2.23-3.26.05-4.55-1.14-.51-.47-.76-1.44.08-1.54.8-.1,1.7.56,2.56.88Z"/>
  <path class="cls-69" d="m678.45,320.16c.72-.37,1.72-.5,1.46-1.71,1.1-.28,2.2-.56,3.3-.84-.03.42.11,1.02-.11,1.24-1.29,1.24-2.34,3.58-4.64,1.31Z"/>
  <path class="cls-52" d="m328.42,315.13c.84.75,1.69,1.49,2.53,2.24-.31.28-.6.76-.94.79-1.95.22-2.29-1.17-2.5-2.65.18-.41.48-.54.9-.38Z"/>
  <path class="cls-52" d="m672.43,315.51c-.2,1.48-.55,2.87-2.5,2.65-.34-.04-.63-.52-.94-.79.84-.75,1.68-1.5,2.52-2.25.43-.16.73-.03.91.39Z"/>
  <path class="cls-27" d="m343.94,166.58c-.26-.85-1.29-1.81.01-2.51.93-.5,2.08-1.69,3.1,0-1.04.84-2.07,1.67-3.11,2.51Z"/>
  <path class="cls-19" d="m314.21,75.1c3.22-1.43,5.09-1.22,7.3-.67-1.9,1.91-3.85.83-7.3.67Z"/>
  <path class="cls-19" d="m441.49,115.98c-1.23.03-2.35.3-3,1.5-2.5-.5-5-1-7.5-1.5q5.2-4.6,10.5,0Z"/>
  <path class="cls-19" d="m268.23,105.64c1.09.13,1.9.66,1.72,1.84-.16,1.05-.95,1.86-2.04,1.58-.85-.22-2.22-.94-2.23-1.47-.04-1.43,1.29-1.81,2.56-1.94Z"/>
  <path class="cls-19" d="m275.07,111.51c-.47-1-1.1-1.78-.93-2.06.46-.74,1.19-1.61,1.95-1.78,1.33-.3,1.62.84,1.14,1.77-.37.73-1.24,1.21-2.17,2.07Z"/>
  <path class="cls-19" d="m451.86,111.5c1.27.19,2.47.22,2.34,1.57-.05.48-.93,1.19-1.49,1.24-1.41.13-1.82-1.17-2.4-2.15.59-.25,1.18-.51,1.54-.66Z"/>
  <path class="cls-27" d="m357.92,150.22c-1.38.19-2.76.38-4.14.57.12-.64.01-1.51.39-1.88,1.56-1.49,2.55.09,3.74,1.31Z"/>
  <path class="cls-52" d="m335.31,316.75h329.86c0,.34,0,.68,0,1.03h-330.39c.18-.34.35-.68.53-1.03Z"/>
  <path class="cls-37" d="m595.5,290.95c1.04-1.46,2.12-2.07,3.41-1.9.83.11,1.16.99.61,1.6-.94,1.04-2.21.85-4.02.3Z"/>
  <path class="cls-6" d="m375.45,367.93c.04-1.47.09-2.94.13-4.41,5.83,2.46,2.45,7.73,3.55,11.63.02.88.01,1.76,0,2.64-.03,3.23.42,6.48-.51,9.68-.19.65-1.13,1.43.88,1.76,2.12.36,1.04-.88,1.17-1.35.9-3.29,3.47-2.38,5.52-2.03,6.46,1.09,12.96.79,19.44.79,64.45.02,128.9.01,193.34,0,3.99,0,7.99.07,11.97-.4,8.32-.99,10.58.64,12.56,8.91-.07,4.93.95,9.9-.57,14.77-3.53-3.37-6.29-9.03-12.48-3.3-1.1,1.02-3.86.3-5.85.3-70.39,0-140.77.01-211.16,0-2.72,0-5.7.66-8-1.15-4.33-3.41-6.21-.03-8.44,2.67-1.79-2.73.3-6.06-1.36-8.81-.06-10.56-.13-21.12-.19-31.68Z"/>
  <path class="cls-68" d="m622.94,424.91c0,7.5,0,15,0,22.49-.25-.01-.69.05-.72-.04-1.4-4.01-5.6-7.05-4.67-11.34-1.76,2.6-5.17,1.69-8.23,1.69-38.39-.06-76.79-.03-115.18.01-9.36,0-19.71-2.7-25.65,8.18-.58-3.46,1.34-7.25-1.43-10.41-.4-2.93,1.61-5.43,1.04-8.61-.78-4.38,3.02-3.45,5.55-3.45,44.36-.03,88.71.06,133.07-.18,3.47-.02,8.71,3.19,10.48-3.61.47-1.79,1.18.39,1.21.83.23,2.84,2.63,3.36,4.53,4.43Z"/>
  <path class="cls-44" d="m403.99,429.41c3.27.88,3.2,3.42,3.02,6.03,0,9.99-.02,19.97-.03,29.96-3.07.21-2.13-2.19-2.17-3.64-.14-6.23-.02-12.46-.1-18.7.02,8.35-.03,16.69-.99,25.05-6.84-8.75-.01-18.29-2.01-26.37-.02.82-.17,2.61.03,4.35.56,4.83-.85,7.16-6.13,5.45-1.66-.54-3.47-.34-5.22-.19q-8.15.7-8.19-7.66c-.22,3.69.3,7.33.63,11,.12,1.37-.56,3.46-2.43,2.97-1.85-.48-.8-2.44-1.13-3.57-2.3,1,3.72,6.95-2.99,5.98.39-10.23-.96-20.48.7-30.66,1.74-4.64,4.31-7.8,9.98-6.05,1.12.35,2.46.17,3.67.03,5.64-.62,10.9-.46,13.33,6.01Z"/>
  <path class="cls-34" d="m377.01,429.42c0,10.49,0,20.99,0,31.48,2.25,2.06,2.26,4.85,2.32,7.54.17,8.88.28,17.76-.06,26.63-.11,2.88.86,6.74-3.67,7.71.01-34.39.03-68.78.04-103.17,2.54,2.62.86,5.88,1.36,8.81,0,7,0,14,0,20.99Z"/>
  <path class="cls-36" d="m622.94,409.91c0-5,0-10,0-15-1-5.1-2.55-10.13-2.18-15.42.06-1.29.14-2.59.24-3.88.54-1.92.12-4.57,3.34-4.51,0,16.93,0,33.86.01,50.79-.47.02-.93.03-1.4.03,0-4,0-8,0-12Z"/>
  <path class="cls-14" d="m624.33,371.1c-1.73,1.04-1.27,2.78-1.38,4.33-2.39.22-2.63-1.79-3.41-3.26-1.69-3.14-4.63-4.35-7.87-4.09-16.93,1.36-33.87.52-50.8.57-52.59.14-105.18.05-157.77.05-1.74,0-3.49-.01-5.23,0-7.65.06-15.5-.49-20.85,6.71-.67-3.95,1.42-8.22-1.43-11.9-.06-3.03-.12-6.06-.17-9.09.05-1.99.1-3.98.16-5.97,4.64.45.78,4.49,2.6,6.14-.05,1,1.19-.17.2-.07-.45.05-.63-.09-.57-.4.26-1.3-.29-3.22,2.19-2.8,2.75,1.96,5.76,2.53,9.16,2.51,73.77-.36,147.54-.34,221.31-.04,2.79.01,5.49-.03,7.84-1.7.61-.44,1.3-.77,2.02-1,1.09,0,1.68.56,1.78,1.66.07.7.12,1.4.05,2.11.2-.54.04-1.1.1-1.69,0-.68.14-1.29.4-1.89.63-.4,1.21-.32,1.75.14.05,1.5.1,2.99.15,4.49-.07,5.06-.13,10.12-.2,15.18Z"/>
  <path class="cls-42" d="m378.51,351.44v5.23c-2.56-2.96-.27-6.44-2.95-8.21.03-4.03.05-8.05.08-12.08.48-.5.94-.51,1.38.06-.13,2.98,2.2,2.22,3.68,2.19,77.61-1.64,155.23-.32,232.85-.37,3.35,0,11.73-4.39,10.85,5.71-1.75,2.24.33,5.22-1.44,7.46h0c-.5.67-1,.7-1.5,0h0c-2.22-1.93-4.84-2.17-7.69-2.18-75.34-.15-150.68.2-226.01-.16-3.31-.02-6.48.29-9.24,2.34Z"/>
  <path class="cls-29" d="m377.02,336.44c-.46,0-.92-.03-1.38-.06,1.73-2.11,4.14-1.38,6.3-1.38,77.21-.03,154.42-.03,231.63-.02.97,0,1.94.11,2.9,1.47h-239.45Z"/>
  <path class="cls-3" d="m622.95,351.43c.35-2.51-.98-5.35,1.44-7.46,0,2.49,0,4.98,0,7.47,0,0-.72,0-.72,0h-.72Z"/>
  <path class="cls-20" d="m622.94,466.9c0,9.47-.08,18.95.03,28.42.07,6.19-2.73,9.11-8.98,9.11-46.61-.05-93.23-.05-139.84,0-3.89,0-5.68-.64-5.42-5.46.5-9.16-.1-18.38-.24-27.57.39-5.88,4.39-6.04,8.97-6.04,40.9.08,81.8.05,122.7.04-40.46,0-80.91.05-121.37-.1-3.31-.01-8.67,2-9.21-3.4-.59-5.93,4.83-6.21,9.06-6.23,41.95-.22,83.91-.2,125.86-.05,3.55.01,6.87.91,10.05,2.62.94-2.58.18-5.62,3.51-8.3,2.57,5.72,2.79,11.66,4.87,16.95Z"/>
  <path class="cls-51" d="m622.94,466.9c-2.25-1.46-1.02-4.17-2.27-7.13-.54,2.52-.87,4.01-1.19,5.51-.29-.02-.59-.04-.88-.06v-14.32c-2.67,3.94-.83,7.2-2.23,10.18-4.5-3.01-9.57-3.23-14.79-3.22-40.44.08-80.88.04-121.31.05-1.75,0-3.5-.02-5.24.04-2.44.08-4.8.79-4.62,3.67.18,2.86,2.84,2.25,4.71,2.26,10.73.06,21.47.03,32.2.03,32.2,0,64.4-.02,96.6.04,2.52,0,5.3-.77,8.26,1.45-2.89,2.22-5.67,1.47-8.17,1.47-42.18.05-84.37.08-126.55-.03-4.01-.01-7.31.41-8.96,4.56,0-8.5,0-16.99,0-25.49q3.81-10.5,16.61-10.49c42.6.02,85.2-.17,127.79.35,4.9.06,3.41-3.28,5.42-5.48-.59,6.81,3.47,11.53,4.64,17.13,0,6.5,0,13,0,19.49Z"/>
  <path class="cls-7" d="m375.59,502.78c3.01-5.07,1.09-10.6,1.31-15.89.37-8.65.1-17.32.11-25.98,2.76-2.38.77-5.72,1.75-8.5,2.5.22.22,3.3,2.7,4.13v-14.86l1.18-.09c.21,2.96.42,5.91.66,9.28,5.9-2.58,11.55-2.74,17.81-.41v-14.89c.4,0,.81,0,1.21-.01v30.92c.5.01,1,.03,1.49.04v-26.5c3.28,8.34-.49,17.2,3.17,25.39,0,10.88-.18,21.77.09,32.64.12,4.77-1.36,6.63-6.3,6.45-8.4-.3-16.81-.04-25.22-.02.01-.56.02-1.13.04-1.69Z"/>
  <path class="cls-8" d="m622.94,378.43c0,5.5,0,10.99,0,16.49-1.18-.75-1.39-1.94-1.55-3.21-.09-.75-.21-2.41-1.33-.48-.34.59-.35,1.38-1.05,4.32-.46-4.07-.68-6.04-.85-7.57h-236.62c-.9,1,.64,3.51-.45,5.49-2.03-.06-.09-3.1-2.11-2.86-.42.05-.64,1.72-1.97,2.7v-16.39c4.9-2.11,10.02-2.46,15.32-2.45,73.35.05,146.71.16,220.06-.04,4.09-.01,8.08-.11,10.55,3.99Z"/>
  <path class="cls-61" d="m622.94,378.43c-3.26-2.62-6.99-1.55-10.67-1.55-75.29.06-150.58.1-225.87-.17-3.14-.01-6.26,3.2-9.39.21,0-.5,0-1,0-1.5,3.26-2.9-.06-7.42,3.05-11.03,2.19,2.47,4.67,4.27,8.35,2.19,1.51-.86,3.91-.15,5.91-.15,69.34,0,138.68-.08,208.02.19,4.63.02,9.88-3.03,14.17,1.39.87-1.14,1.73-2.29,2.58-3.41,4.09,2.79.61,7.96,3.86,10.83,0,1,0,2,0,2.99Z"/>
  <path class="cls-3" d="m378.51,351.44c.62-1.85-2.09-5.29,3.65-4.46,3.41.5,7.67.06,11.5.05,70.28-.13,140.57-.07,210.85-.17,4.1,0,8.2.93,12.38-.35,4.18-1.28,5.02,1.43,4.56,4.92-1.43,4.55-4.09,6.37-9.01,4.84-2.29-.71-4.95-.33-7.44-.33-69.93-.01-139.86-.01-209.79,0-2.74,0-5.59-.24-8.18.43-4.74,1.23-7.08-.89-8.52-4.94Z"/>
  <path class="cls-3" d="m621.44,351.43c.5,0,1,0,1.5,0v7.26c-.5.02-1,.04-1.5.06v-7.32Z"/>
</svg>