<?xml version="1.0" encoding="UTF-8"?>
<svg id="Layer_1" data-name="Layer 1" xmlns="http://www.w3.org/2000/svg" width="252.13" height="345.5" viewBox="0 0 252.13 345.5">
  <defs>
    <style>
      .cls-1 {
        fill: #ededed;
      }

      .cls-1, .cls-2, .cls-3, .cls-4 {
        stroke-width: 0px;
      }

      .cls-2 {
        fill: #ac2a37;
      }

      .cls-3 {
        fill: #f94b4b;
      }

      .cls-4 {
        fill: #db3c46;
      }
    </style>
  </defs>
  <path class="cls-3" d="m52.68,262.95c-20.53-29.29-37.69-60.26-46.83-95.13-7.27-27.73-8.78-55.62,1.31-82.91C24.35,38.44,57.65,9.81,106.5,1.72c64.17-10.62,123.81,28.76,141.25,91.53,5.17,18.6,5.46,37.45,2.43,56.41-.29,1.82,0,3.77-1.03,5.45-9.14,10.96-19.73,20.44-30.59,29.62-8.78,7.42-17.97,14.31-27.48,20.76-1.19.81-2.49,2.87-4.41.9,1-2.94,3.78-4.25,5.88-6.09,17.54-15.4,28.59-34.57,32.78-57.44,5.3-28.89-.82-55.49-18.43-78.96-17.59-23.44-41.25-36.9-70.58-39.85-28.71-2.88-54.13,5.17-75.98,23.93-20.34,17.46-31.88,39.66-34.49,66.4-2.81,28.73,5.34,54.05,24.08,75.92,16.38,19.1,37.27,30.22,62.04,33.93,20.06,3,39.29-.19,57.65-8.78,1.63-.76,3.15-2.19,5.22-1.35.45,2.42-1.7,2.81-3.04,3.63-14.31,8.72-29.32,16.07-44.75,22.55-24.01,10.09-48.82,17.6-74.37,22.65Z"/>
  <path class="cls-4" d="m186.66,206.71c4.55-1.3,7.86-4.64,11.53-7.28,16.67-12.01,32.17-25.41,46.5-40.16,1.38-1.42,1.66-4.23,4.46-4.16-1.57,11.78-5.22,23.01-9.35,34.07-12,32.15-29.84,61-50.54,88.16-18.19,23.87-38.28,46.05-60.24,66.53-2.14,2-3.24,2.31-5.58.12-25.33-23.69-48.21-49.5-68.5-77.63-.8-1.1-1.51-2.27-2.26-3.41.14-1.38,1.18-1.27,2.18-1.48,28.12-5.77,55.3-14.44,81.45-26.34,12.72-5.79,25.08-12.23,37.09-19.36.67-.4,1.23-.84,1.46-1.61,3.27-3.53,6.86-6.55,11.79-7.46Z"/>
  <path class="cls-1" d="m186.66,206.71c-3.93,2.49-7.86,4.98-11.79,7.46-10.4,4.93-21.02,9.08-32.52,10.78-30.21,4.47-57.42-2.64-80.92-22.01-24.41-20.12-36.89-46.5-37.17-78.18-.42-48.36,33.24-89.87,80.73-100.16,56.71-12.29,112.88,25.92,121.63,83.46,5.96,39.17-7.33,71.39-37.77,96.64-.76.63-1.46,1.34-2.19,2.01Z"/>
  <path class="cls-2" d="m167.98,142.32c-7,0-13.99.1-20.99-.06-2.36-.05-2.91.67-2.89,2.94.1,13.87-.02,27.73.11,41.6.03,2.68-.47,3.64-3.42,3.58-9.86-.21-19.74-.16-29.61-.02-2.49.04-3.1-.72-3.08-3.13.11-13.74-.02-27.48.11-41.22.03-2.8-.51-3.81-3.6-3.77-13.74.19-27.48,0-41.22.15-2.67.03-3.32-.72-3.28-3.33.16-9.74.22-19.49-.02-29.23-.08-3.18,1.11-3.57,3.82-3.55,13.62.12,27.23-.04,40.85.13,2.85.03,3.5-.75,3.47-3.52-.15-13.74,0-27.48-.13-41.22-.02-2.52.48-3.43,3.22-3.38,9.99.17,19.99.15,29.98.01,2.36-.03,2.91.67,2.89,2.94-.1,13.74.04,27.48-.12,41.22-.04,3,.55,4.01,3.8,3.96,13.61-.21,27.23,0,40.85-.16,2.85-.03,3.52.75,3.47,3.52-.18,9.62-.17,19.24,0,28.85.05,2.8-.51,3.88-3.61,3.76-6.86-.26-13.74-.08-20.61-.08Z"/>
</svg>