<?xml version="1.0" encoding="UTF-8"?>
<svg id="Layer_1" data-name="Layer 1" xmlns="http://www.w3.org/2000/svg" width="300.98" height="365.78" viewBox="0 0 300.98 365.78">
  <defs>
    <style>
      .cls-1 {
        fill: #fefefe;
      }

      .cls-1, .cls-2, .cls-3, .cls-4, .cls-5, .cls-6, .cls-7, .cls-8, .cls-9, .cls-10, .cls-11 {
        stroke-width: 0px;
      }

      .cls-2 {
        fill: #f3f3f3;
      }

      .cls-3 {
        fill: #f7f7f7;
      }

      .cls-4 {
        fill: #f6f6f6;
      }

      .cls-5 {
        fill: #f8f8f8;
      }

      .cls-6 {
        fill: #fafafa;
      }

      .cls-7 {
        fill: #0e771a;
      }

      .cls-8 {
        fill: #f9f9f9;
      }

      .cls-9 {
        fill: #fbfbfb;
      }

      .cls-10 {
        fill: #fdfdfd;
      }

      .cls-11 {
        fill: #fcfcfc;
      }
    </style>
  </defs>
  <path class="cls-7" d="m138.52.85c2.75-.19,5.49-.38,8.24-.57l9.39.04c2.07.71,4.26-.1,6.33.53,3,.28,6,.57,8.99.85,1.21.45,2.44.8,3.75.66,2.99.56,5.98,1.11,8.97,1.67.88.76,1.94.76,3.01.72,2.62,1.05,5.32,1.83,8.11,2.28,1.16.84,2.49,1.17,3.88,1.36,2.21.79,4.41,1.59,6.62,2.38,1.11.91,2.43,1.32,3.82,1.59,2.03,1.32,4.24,2.23,6.53,2.98,1.18.99,2.53,1.65,4.01,2.06,1.92,1.05,3.84,2.11,5.76,3.16,1.08.66,2.15,1.32,3.23,1.99,2.02,1.29,4.04,2.59,6.06,3.88.8.96,1.78,1.66,2.93,2.12,2.04,1.54,4.08,3.07,6.12,4.61.95.78,1.9,1.55,2.85,2.33,1.71,1.5,3.42,3,5.13,4.49.57.98,1.35,1.73,2.35,2.26,1.73,1.74,3.46,3.48,5.18,5.21.53,1.01,1.3,1.79,2.26,2.38,1.23,1.92,2.68,3.66,4.43,5.13.57,1.17,1.29,2.22,2.36,2.99,1.49,1.99,2.98,3.98,4.47,5.97.5,1.21,1.18,2.31,2.22,3.14.94,2.15,2.23,4.08,3.75,5.85.14.94.62,1.69,1.3,2.32,1.35,2.47,2.71,4.93,4.06,7.4.08.94.55,1.68,1.17,2.34,1.12,2.47,2.25,4.93,3.37,7.4.17,1.12.5,2.17,1.27,3.04,1,2.75,2.01,5.49,3.01,8.24.18,1.68.66,3.26,1.48,4.74.57,2.15,1.14,4.31,1.71,6.46.12,1.9.5,3.73,1.32,5.46-.08,1.99.41,3.89.96,5.78.42,2.83.85,5.67,1.27,8.5.08,1.41.17,2.82.25,4.24-.1,2.03-.05,4.05.5,6.03,0,3.73.02,7.47.02,11.2-.51,2.22-.61,4.47-.51,6.74-.3,3.25-.6,6.49-.9,9.74-.67,1.43-.81,2.94-.73,4.49-1.05,4.73-2.1,9.46-3.15,14.18-.87,1.64-1.35,3.39-1.5,5.24-2.21,5.73-4.42,11.46-6.62,17.19-1.5,3.02-3,6.05-4.5,9.07-13.23,24.43-34.33,42.19-52.78,62.19-3.63,3.93-7.3,7.82-10.96,11.73-12.9,13.35-25.81,26.7-38.7,40.06-8.4,8.71-16.78,17.43-25.12,26.18-1.23,1.29-2.53,2.37-4.24,2.92-2.58-.3-4.14-2.26-5.99-3.73-.75-1.26-1.75-2.27-2.98-3.07-1.21-1.73-2.67-3.21-4.34-4.49-.78-1.29-1.82-2.35-3.06-3.2-1.37-1.85-2.93-3.51-4.73-4.94-.49-.95-1.19-1.7-2.14-2.21-1.49-2-3.2-3.79-5.16-5.33-.51-1.02-1.29-1.78-2.26-2.35-1.44-1.96-3.14-3.69-5.02-5.22-.58-1.02-1.35-1.86-2.36-2.46-1.34-1.85-2.89-3.51-4.71-4.91-.75-1.23-1.71-2.25-2.93-3.03-1.22-1.74-2.7-3.23-4.37-4.52-.78-1.27-1.8-2.32-3.04-3.15-1.6-1.68-3.21-3.36-4.81-5.04-.68-.71-1.37-1.41-2.05-2.12-1.5-2.02-3.23-3.82-5.2-5.39-.49-1.01-1.26-1.76-2.23-2.31-1.46-1.97-3.16-3.72-5.08-5.25-.56-1.02-1.33-1.83-2.34-2.42-1.33-1.88-2.94-3.51-4.73-4.97-.75-1.2-1.67-2.22-2.88-2.98-1.23-1.75-2.72-3.26-4.41-4.57-.77-1.27-1.78-2.29-3.01-3.11-1.21-1.7-2.64-3.19-4.3-4.46-.5-.97-1.21-1.73-2.16-2.27-1.67-2.15-3.5-4.15-5.63-5.86-.5-.98-1.22-1.74-2.19-2.26-1.52-1.99-3.3-3.71-5.28-5.24-.53-.96-1.22-1.76-2.19-2.31-1.53-1.73-3.06-3.45-4.59-5.18-.39-1-1.09-1.75-1.98-2.34-1.53-1.99-3.06-3.97-4.59-5.96-.52-1.22-1.26-2.27-2.28-3.13-.98-2.14-2.3-4.05-3.84-5.82-.47-1.41-1.19-2.67-2.23-3.74-.98-1.76-1.96-3.51-2.95-5.27-.43-1.66-1.26-3.12-2.3-4.47-.7-2.39-1.77-4.62-3.06-6.75-.15-1.2-.54-2.3-1.33-3.23-.85-2.42-1.69-4.84-2.54-7.26-.39-1.02-.77-2.03-1.16-3.05-.82-2.98-1.64-5.96-2.46-8.94.13-1.09-.09-2.09-.71-3-.54-3-1.08-5.99-1.63-8.99-.22-1.25-.44-2.5-.65-3.75-.28-3-.56-5.99-.84-8.99.09-2.1.02-4.19-.5-6.24-.02-3.17-.04-6.33-.06-9.5.19-2.75.37-5.49.56-8.24.08-1.42.16-2.84.25-4.26.42-2.83.85-5.65,1.27-8.48.84-4.15,1.67-8.29,2.51-12.44.99-2.25,1.67-4.6,2.03-7.03l6.11-16.38c1.34-2.74,2.67-5.48,4.01-8.22,10.8-20.02,24.96-37.2,43.12-51.01,6.66-5.06,13.83-9.29,20.99-13.56,3.04-1.47,6.07-2.94,9.11-4.41,5.46-2.04,10.91-4.08,16.37-6.11,2.44-.34,4.79-1.03,7.04-2.03,4.14-.83,8.29-1.67,12.43-2.5,2.83-.42,5.66-.85,8.48-1.27,1.42-.08,2.84-.16,4.25-.25Z"/>
  <path class="cls-4" d="m162.49.85c-2.13.08-4.25.05-6.33-.53.61-.11,1.23-.21,1.84-.32,1.45.52,3.17-.34,4.49.85Z"/>
  <path class="cls-1" d="m169.17,168.04c-.35-3.75-.35-7.49,0-11.24.92-1.47,1.97-2.82,3.21-4.06,13.29-13.24,26.53-26.53,39.83-39.76,1.16-1.15,2.03-2.95,4.17-2.63.38,4.03.52,8.04-.67,11.98-.89,1.51-1.96,2.84-3.21,4.08-13.06,13.02-26.08,26.09-39.17,39.08-1.14,1.13-1.98,3.03-4.17,2.54Z"/>
  <path class="cls-1" d="m214.01,97.64c.93,2.36,1.78,4.75,1.72,7.34.86,1.96-.15,3.35-1.43,4.63-13.98,14.02-27.97,28.02-42,41.98-.82.82-1.59,2.04-3.12,1.47-.35-3.75-.35-7.49,0-11.24.92-1.47,1.97-2.82,3.21-4.06,12.5-12.45,24.95-24.94,37.45-37.39,1.17-1.17,2.08-2.9,4.17-2.74Z"/>
  <path class="cls-1" d="m169.17,183.02c-.35-3.75-.35-7.49,0-11.24.86-1.21,1.61-2.48,2.69-3.55,12.9-12.85,25.75-25.73,38.63-38.59.79-.79,1.54-1.67,2.64-2.04.9-.3,1.47-.05,1.17,1.06-1.43,6.71-4.41,12.74-8.02,18.5-10.59,11.5-21.96,22.23-32.95,33.33-1.12,1.14-1.98,3.01-4.16,2.53Z"/>
  <path class="cls-1" d="m169.17,138.07c-.35-3.75-.35-7.49,0-11.24.89-1.34,1.79-2.66,2.95-3.81,11.05-10.99,22.03-22.05,33.11-33.01,1.11-1.1,1.97-3.14,4.23-2.13,1.4,2.07,2.69,4.2,3.25,6.68.44,1.84-1.05,2.67-2.04,3.67-12.59,12.64-25.2,25.26-37.84,37.84-.99.98-1.8,2.51-3.66,2Z"/>
  <path class="cls-1" d="m205.16,196.5c.77,3.45.91,6.96.84,10.48-.51,1.31-1.46,2.29-2.43,3.26-9.94,9.94-19.85,19.91-29.87,29.77-1.04,1.03-2.02,3.67-4.34,1.44-.58-3.24-.54-6.48-.18-9.74.89-1.34,1.79-2.65,2.95-3.81,9.72-9.66,19.38-19.38,29.11-29.04,1.08-1.07,1.92-2.74,3.92-2.37Z"/>
  <path class="cls-1" d="m93.63,243.68c-1.39-2.91-1-5.96-.67-9,.22-2.04,1.13-3.67,2.6-5.14,9.94-9.87,19.82-19.8,29.75-29.68.92-.91,1.72-2.22,3.38-1.86.63,3.46,1.02,6.95.89,10.47-.54,1.45-1.64,2.47-2.7,3.53-9.77,9.77-19.53,19.56-29.34,29.3-1.08,1.07-1.93,2.73-3.92,2.38Z"/>
  <path class="cls-1" d="m202.91,78.9c1.85,1.73,3.43,3.67,4.54,5.96.43,1.85-1.07,2.67-2.06,3.67-10.82,10.88-21.67,21.73-32.56,32.55-.99.98-1.8,2.51-3.66,2.01-.35-3.75-.35-7.49,0-11.24.89-1.34,1.78-2.64,2.94-3.79,8.98-8.92,17.9-17.9,26.89-26.81,1.08-1.07,1.92-2.73,3.91-2.35Z"/>
  <path class="cls-1" d="m169.17,227.96c-.35-3.75-.35-7.49,0-11.24.89-1.34,1.78-2.65,2.94-3.8,9.17-9.12,18.31-18.28,27.46-27.42.53-.53,1.06-1.05,1.61-1.55,1.99-1.82,2.95-1.19,3.14,1.3.06,1.36.12,2.73.18,4.09.89,2.96-.09,5.2-2.27,7.34-9.77,9.62-19.4,19.37-29.13,29.03-1.07,1.07-1.94,2.71-3.93,2.25Z"/>
  <path class="cls-1" d="m202.89,168.78c.67,3.46.96,6.95.83,10.48-.79,1.41-1.77,2.66-2.93,3.81-9.25,9.21-18.45,18.46-27.71,27.65-1.07,1.06-1.9,2.73-3.9,2.26-.35-3.75-.35-7.49,0-11.24.89-1.34,1.78-2.64,2.94-3.79,8.97-8.92,17.89-17.89,26.87-26.8,1.08-1.07,1.92-2.71,3.9-2.37Z"/>
  <path class="cls-1" d="m127.42,184.46c.84,2.59.7,5.27.7,7.94.75,2.06-.16,3.58-1.57,4.99-9.93,9.93-19.84,19.87-29.8,29.76-.84.83-1.63,1.98-3.13,1.56-.25-3.54.51-7,.84-10.5.22-2.05,1.13-3.69,2.62-5.16,8.92-8.85,17.77-17.76,26.69-26.61.98-.98,1.8-2.51,3.65-1.98Z"/>
  <path class="cls-1" d="m206.57,212.22c.07,1.39.14,2.78.21,4.17.91,3.34-.08,5.91-2.6,8.36-8.41,8.18-16.61,16.57-24.96,24.82-1.16,1.15-2.06,3-4.25,2.47-2.19-1.79-3.72-4.02-4.47-6.76.33-1.13,1.16-1.9,1.95-2.69,9.96-9.96,19.91-19.92,29.88-29.87.7-.7,1.4-1.43,2.31-1.88,1.53-.76,1.57.53,1.93,1.39Z"/>
  <path class="cls-1" d="m99.41,252.75c-2.07-1.49-3.63-3.36-4.45-5.81-.4-1.64.79-2.53,1.72-3.47,9.85-9.9,19.7-19.79,29.65-29.59.91-.9,1.94-3.2,3.8-.91.26,3,.52,6,.78,9.01-.56,1.26-1.35,2.34-2.33,3.32-8.6,8.57-17.17,17.18-25.79,25.74-.91.9-1.7,2.27-3.39,1.71Z"/>
  <path class="cls-1" d="m202.06,157.53c.07,1.42.14,2.84.21,4.26.87,2.82-.07,4.98-2.14,7.02-9.14,9.02-18.17,18.15-27.29,27.19-.99.98-1.79,2.54-3.67,1.99-.35-3.75-.35-7.49,0-11.24.73-.7.93-1.74,1.66-2.47,9.25-9.28,18.5-18.56,27.82-27.79,1.66-1.65,3.16-2.26,3.41,1.02Z"/>
  <path class="cls-1" d="m126.4,171.77c.26,3,.52,6,.78,9.01-.58,1.4-1.53,2.52-2.6,3.59-8.61,8.59-17.19,17.2-25.82,25.77-.99.99-1.8,2.49-3.64,2.09-.25-3.54.51-7,.84-10.5.22-2.05,1.13-3.68,2.61-5.15,7.95-7.86,15.79-15.82,23.77-23.64.99-.97,2-3.31,4.05-1.16Z"/>
  <path class="cls-1" d="m195.45,71.4c2.04,1.43,3.85,3.09,5.29,5.14.51,1.7-.85,2.5-1.76,3.41-8.78,8.84-17.58,17.65-26.43,26.42-.9.89-1.68,2.3-3.39,1.74-.35-3.75-.35-7.49,0-11.24,1.1-2.12,2.86-3.69,4.52-5.34,5.94-5.95,11.87-11.92,17.86-17.81,1.07-1.06,1.91-2.73,3.9-2.32Z"/>
  <path class="cls-1" d="m96.61,195.74c-.25-3.54.51-7,.84-10.5.22-2.05,1.13-3.68,2.61-5.15,7.16-7.07,14.23-14.23,21.38-21.31,1.01-1,1.86-2.45,3.68-2.06.21.33.21.65-.04.96.54,3.17.88,6.36.75,9.59-.5,1.31-1.45,2.28-2.42,3.25-7.72,7.71-15.42,15.45-23.17,23.13-.99.99-1.81,2.49-3.64,2.09Z"/>
  <path class="cls-1" d="m183.98,257.26c-2.54-.24-4.65-1.39-6.5-3.08-.45-1.68.89-2.48,1.8-3.4,8.23-8.29,16.48-16.55,24.78-24.77.91-.9,1.7-2.26,3.38-1.8.85,3.44.84,6.94.85,10.45-.23,1.18-1.1,1.92-1.89,2.71-5.97,5.99-11.95,11.99-17.96,17.95-1.21,1.2-2.38,2.68-4.47,1.94Z"/>
  <path class="cls-1" d="m131.16,225.66c.85,2.59.69,5.27.7,7.93.73,2.04-.12,3.59-1.52,4.99-5.68,5.69-11.38,11.37-17.05,17.07-1.62,1.63-3.42,2.39-5.68,1.6-2.23-.12-4.04-1.2-5.75-2.52-.25-1.64,1.02-2.45,1.94-3.38,7.97-8.02,15.96-16.02,23.99-23.97.9-.89,1.67-2.31,3.38-1.72Z"/>
  <path class="cls-1" d="m126.53,147.86c1.18-.55,2.36-1.1,3.54-1.66.92-.42,1.12.19,1,.84-.24,1.3-1.26,2.11-2.13,2.98-9.04,9.06-18.08,18.12-27.16,27.14-1,.99-1.82,2.48-3.66,2.09-.25-3.54.51-7,.84-10.5.2-2.2,1.27-3.91,2.84-5.44,3.91-3.81,7.88-7.57,11.54-11.61,2.47-2.72,5.16-4,8.82-3.58,1.42.16,2.96.4,4.38-.27Z"/>
  <path class="cls-1" d="m187.56,65.28c1.89.92,3.57,2.11,4.97,3.69.84,1.56-.16,2.6-1.11,3.57-6.42,6.51-12.89,12.98-19.4,19.4-.74.73-1.49,1.76-2.84,1.19-.35-3.75-.35-7.49,0-11.24,4.33-6.08,10.17-10.72,15.31-16.03.86-.89,1.93-1.01,3.08-.58Z"/>
  <path class="cls-10" d="m116.89,135.06c.37,3.75.37,7.49,0,11.24-4.51,6.05-10.24,10.91-15.59,16.14-.44.43-1.05.64-1.7.34-.51-2.3,1.63-5.91-3.05-6.13-1.13-.47-1.14-1.36-.51-2.1,2.08-2.43,3.9-5.19,7.13-6.34q5-.02,5.03-5.08c2.13-3.51,4.33-6.95,8.68-8.06Z"/>
  <path class="cls-6" d="m169.17,153.05c1.03-.89,2.13-1.72,3.09-2.68,13.69-13.66,27.36-27.35,41.04-41.02,1.24-1.24,2.64-2.36,2.42-4.39.93,1.71.75,3.55.66,5.38-5.05,4.94-10.14,9.85-15.15,14.83-9.68,9.63-19.32,19.31-28.99,28.95-.96.95-2.05,1.78-3.07,2.66-.34-1.25-.34-2.5,0-3.74Z"/>
  <path class="cls-6" d="m214.31,128.66c-1.85-1.31-2.24.75-2.97,1.47-13.07,12.96-26.06,25.99-39.09,38.99-.96.96-2.05,1.78-3.08,2.67-.34-1.25-.34-2.5,0-3.75,1.03-.89,2.12-1.71,3.08-2.67,13.47-13.45,26.92-26.91,40.4-40.36.96-.96,2.04-1.79,3.07-2.68.1,2.24-.49,4.32-1.41,6.33Z"/>
  <path class="cls-6" d="m98.11,179.26c10.64-10.53,21.28-21.06,31.92-31.6.45-.44.9-.95.04-1.46l2.37-2.33c2.66-2.23,4.86-4.94,7.45-7.24.92-.82,1.67-2.35,3.38-1.44.18.88.08,1.77.1,2.65-.07,1.18-.65,2.11-1.46,2.92-4.98,5.01-9.94,10.03-15,14.96-.53.51-1.13.98-1.91,1.08-8.65,8.53-17.31,17.04-25.91,25.61-.74.74-1.11,1.87-1.64,2.82-.16-2.03.18-4.01.65-5.98Z"/>
  <path class="cls-6" d="m169.17,138.07c2.1-1.2,3.52-3.13,5.19-4.79,11.91-11.86,23.79-23.75,35.66-35.65.96-.96,1.79-2.05,2.69-3.07.86.84,1.01,1.99,1.3,3.07-13.83,13.75-27.65,27.51-41.49,41.25-1.05,1.04-2.22,1.95-3.34,2.93-.34-1.25-.34-2.5,0-3.74Z"/>
  <path class="cls-6" d="m169.17,123.09c3.97-3.03,7.22-6.83,10.73-10.34,9.23-9.24,18.37-18.58,27.54-27.89,1.02.78,1.55,1.88,2.02,3.02-1.68.17-2.46,1.59-3.49,2.61-11.26,11.21-22.48,22.46-33.73,33.68-.96.95-2.04,1.78-3.07,2.66-.34-1.25-.34-2.5,0-3.74Z"/>
  <path class="cls-6" d="m143.02,138.06c-.03-1-.06-2-.09-2.99-2.02-3.5-.68-7.31-1-10.97-.16-1.37.14-2.75-.04-4.13-.04-3.64,0-7.28.03-10.92-.15-1.36.14-2.72-.04-4.08-.04-3.63,0-7.26.04-10.9-.15-1.35.14-2.71-.03-4.07-.02-3.58-.03-7.16.05-10.74-.12-1.25.07-2.51.03-3.76,0-2.96.14-5.94-.02-9.13-4.31,3.03-7.01,6.6-6.2,12.07.21,1.46.02,2.97.09,4.47.05,1.26-.09,2.51.05,3.76.03,3.58,0,7.16-.03,10.74.14,1.35-.14,2.71.03,4.07.04,3.63,0,7.26-.04,10.9.15,1.36-.14,2.72.04,4.08.04,3.63,0,7.26-.04,10.89.15,1.36-.13,2.73.03,4.09.05,1.87.1,3.74-.07,5.59-.12,1.26.18,2.87-1.71,3.27.09-21.07.14-42.13.28-63.2.03-4.97-.39-9.95.28-14.9,1.24,1.32,1.24,2.7.38,4.07,2.57-1.76,4.15-4.94,7.28-6.31,1.72,1.4,1.31,3.37,1.31,5.19.03,24.3.04,48.61.06,72.91-.23.36-.47.34-.7,0Z"/>
  <path class="cls-6" d="m206.57,212.22c-1.42-2.01-2.21-.25-3.04.57-8.92,8.88-17.79,17.82-26.74,26.68-2.02,2-3.74,4.35-6.28,5.8-.75-1.17-1.21-2.42-1.15-3.83,1.82,1.05,2.41-.73,3.26-1.56,10.13-10.05,20.21-20.17,30.32-30.25.96-.95,2.04-1.78,3.07-2.66.66,1.7.67,3.46.57,5.24Z"/>
  <path class="cls-6" d="m169.17,227.96c6.27-5.29,11.69-11.44,17.55-17.15,5.07-4.94,9.94-10.09,15.07-14.95,1.98-1.87,3-3.85,2.72-6.52.89,2.32.69,4.75.65,7.16-10.79,10.67-21.57,21.35-32.38,32.01-1.14,1.13-2.4,2.13-3.61,3.2-.34-1.25-.34-2.5,0-3.74Z"/>
  <path class="cls-6" d="m130.14,212.97c-1.16-.81-1.79.06-2.49.76-10.63,10.65-21.28,21.3-31.9,31.96-.34.34-.53.83-.79,1.25-.86-.92-1.32-1.99-1.33-3.26,10.87-10.76,21.73-21.53,32.62-32.27,1.05-1.04,2.22-1.96,3.34-2.93.63,1.44.66,2.96.55,4.49Z"/>
  <path class="cls-6" d="m93.62,228.7c11.08-10.97,22.16-21.95,33.26-32.9.99-.98,1.19-2.14,1.24-3.4.78,1.81.66,3.71.58,5.6-11.37,11.28-22.76,22.54-34.09,33.86-.75.74-1.11,1.87-1.65,2.82-.16-2.03.18-4.01.65-5.98Z"/>
  <path class="cls-6" d="m202.06,157.53c-.71-2.16-1.58-1.71-2.9-.37-8.93,9.02-17.92,17.98-26.91,26.93-.96.96-2.05,1.78-3.08,2.67-.34-1.25-.34-2.5,0-3.74,4.95-3.97,9.09-8.78,13.6-13.2,6.83-6.69,13.53-13.51,20.31-20.25.94-.94,1.68-2.21,3.2-2.4-1.29,3.5-5.09,5.99-4.22,10.37Z"/>
  <path class="cls-1" d="m177.53,59.39c2.46.85,4.71,2.06,6.7,3.73.44,1.15-.32,1.89-.99,2.58-3.78,3.89-7.61,7.74-11.51,11.5-.67.65-1.39,1.49-2.56.94-.35-3.75-.35-7.49,0-11.24,2.38-2.96,4.14-6.6,8.36-7.52Z"/>
  <path class="cls-6" d="m169.17,212.98c5.39-4.4,9.9-9.7,14.91-14.49,6.62-6.33,12.71-13.21,19.64-19.23.64,1.95.74,3.96.61,5.99-.71-2.05-1.54-1.78-2.91-.39-9.68,9.78-19.43,19.5-29.18,29.21-.96.95-2.04,1.77-3.07,2.66-.34-1.25-.34-2.5,0-3.74Z"/>
  <path class="cls-6" d="m169.17,198c6.19-5.2,11.51-11.28,17.3-16.89,4.37-4.24,8.54-8.68,12.96-12.86,1.94-1.84,3.15-3.76,2.85-6.46.8,2.28.69,4.64.62,6.99-10.12,10.02-20.24,20.04-30.38,30.04-1.05,1.03-2.22,1.95-3.33,2.92-.34-1.25-.34-2.5,0-3.74Z"/>
  <path class="cls-10" d="m208.25,241.6c-1.15,9.47-9.69,16.61-19.53,16.32-.46-1.34.51-2.11,1.25-2.87,5.04-5.14,10.13-10.23,15.27-15.27.78-.76,1.76-1.94,2.83-1.26.97.62.57,2.01.18,3.08Z"/>
  <path class="cls-6" d="m95.12,212.22c8.63-8.52,17.26-17.04,25.9-25.55,2.03-1.99,4.11-3.93,6.16-5.89.08,1.23.16,2.45.24,3.68-6.3,5.28-11.71,11.47-17.6,17.17-4.11,3.98-8.06,8.13-12.18,12.1-1.36,1.32-2.35,2.81-3.18,4.47-.16-2.03.17-4.02.65-5.98Z"/>
  <path class="cls-6" d="m169.17,108.11c7.59-6.61,14.35-14.07,21.51-21.13,3.44-3.39,7.13-6.56,10.06-10.44.98.55,1.74,1.31,2.17,2.36-10.04,9.93-20.08,19.86-30.14,29.77-1.14,1.12-2.39,2.12-3.59,3.18-.34-1.25-.34-2.5,0-3.74Z"/>
  <path class="cls-6" d="m207.44,224.21c-10.29,9.69-20.29,19.67-29.96,29.97-1.11-.39-1.89-1.17-2.51-2.14,4.51-3.35,8.08-7.7,12.07-11.59,5.52-5.37,10.82-10.99,16.42-16.28,2.35-2.22,3.72-4.54,3.32-7.78.88,2.55.69,5.19.66,7.82Z"/>
  <path class="cls-6" d="m89.86,61.58c.93,1.37.47,2.91.47,4.36.06,24.54.07,49.07.1,73.61-2.6-1.03-.86-3.5-1.72-5.11-2.71,1.31-3.65,5.09-7.23,5.21v.05c-.45-1.19-.22-2.41-.21-3.63.63-2,2.17-3.34,3.68-4.58,3.05-2.5,4.36-5.54,3.91-9.47-.2-1.71,0-3.47-.09-5.2-.05-1.27.08-2.54-.06-3.81-.03-3.57-.01-7.14.02-10.71-.14-1.35.14-2.69-.03-4.04-.02-3.56-.03-7.12.06-10.68-.1-1.23.05-2.45.04-3.67.04-3.08.16-6.17,0-9.31-2.91,1.22-3.7,5.29-7.44,4.95-.23-1.13-.12-2.26-.09-3.39.18-.47.29-1,.65-1.34,3.87-3.68,7.43-7.55,7.95-13.24Z"/>
  <path class="cls-3" d="m108.62,142.55q-.13,5.84-6.08,6.16c-1.11.48-2.23.92-3.47.5-.58-.24-1.05-.57-1-1.3,3.18-.13,7.4,1.56,9.25-.55,1.57-1.79.54-5.92.54-9.02.02-24.45.01-48.9.01-73.34,0-.5.01-1,0-1.5-.08-2.51.88-4.46,3.33-5.25,2.53-.81,4.3.34,5.39,2.67-.3.4-.47.95-.86,1.21-6.2,4.21-6.89,10.39-6.13,17.09.05,1.26-.07,2.52.06,3.78.03,3.57.01,7.13-.02,10.7.14,1.35-.14,2.71.03,4.06.04,3.63,0,7.26-.04,10.89.15,1.36-.14,2.72.04,4.08.04,3.63,0,7.27-.04,10.9.15,1.36-.14,2.72.04,4.08.03,3.63.02,7.27-.05,10.9.14,1.44-.37,2.71-1.01,3.95Z"/>
  <path class="cls-8" d="m96.61,195.74c8.63-8.52,17.26-17.04,25.9-25.55,1.05-1.03,2.22-1.95,3.33-2.92.63,1.44.66,2.96.55,4.49-1.62-1.01-2.21.53-2.99,1.3-8.28,8.22-16.5,16.51-24.81,24.71-1.19,1.17-1.85,2.56-2.64,3.94-.16-2.03.17-4.02.66-5.98Z"/>
  <path class="cls-6" d="m131.16,225.66c-6.56,5.52-12.22,11.97-18.35,17.93-3.73,3.63-7.31,7.42-10.96,11.14-1.04-.39-1.88-1.01-2.44-1.98,5.45-4.38,9.98-9.72,14.99-14.55,5.56-5.36,11.02-10.81,16.52-16.22l.24,3.68Z"/>
  <path class="cls-11" d="m143.02,138.06c.23,0,.47,0,.7,0,.08,8.7-6.27,16.58-15.05,18.69-1.2.29-2.38.62-3.57.93-.03-.29-.06-.58-.08-.87,5.02-5.14,10.05-10.28,15.05-15.44,1.03-1.06,1.97-2.21,2.95-3.32Z"/>
  <path class="cls-1" d="m89.86,61.58c1.49,7.14-3.93,10.36-8.1,14.29-1.02-4.79-.57-9.6-.25-14.42.26-2.69,2.16-2.82,4.26-2.84,2.16-.01,3.68.66,4.09,2.97Z"/>
  <path class="cls-1" d="m134.12,140.31c1.49-2.9.19-6.07.84-9.05,2.05-3.11,4.01-6.33,7.98-7.37,0,3.73,0,7.46,0,11.18-2.75,2.65-5.47,5.34-8.27,7.93-.56.51-.94,2-2.22.88.56-1.19,1.12-2.38,1.68-3.57Z"/>
  <path class="cls-11" d="m131.87,241.83c-1.15,8.81-9.11,15.88-18.06,16.06-.38-.99.19-1.7.78-2.31,4.8-4.99,9.7-9.89,14.7-14.69.66-.63,1.46-1.57,2.55-.78.59.43.12,1.14.04,1.72Z"/>
  <path class="cls-6" d="m169.17,93.13c7.93-6.96,15-14.78,22.51-22.16.48-.47.58-1.32.85-2,1.2.53,2.18,1.34,2.92,2.43-7.55,7.43-15.09,14.86-22.66,22.27-1.15,1.13-2.41,2.14-3.62,3.2-.34-1.25-.34-2.5,0-3.74Z"/>
  <path class="cls-1" d="m108.62,93.82c0-3.73,0-7.46,0-11.19,2.23-3.08,4.05-6.6,8.26-7.5.37,3.75.37,7.49,0,11.24-2.36,2.93-4.15,6.49-8.27,7.46Z"/>
  <path class="cls-1" d="m108.62,138.77c0-3.73,0-7.46,0-11.19,2.23-3.08,4.05-6.6,8.26-7.5.37,3.75.37,7.49,0,11.24-2.36,2.93-4.15,6.49-8.27,7.46Z"/>
  <path class="cls-1" d="m108.62,108.81c0-3.73,0-7.46,0-11.19,2.23-3.08,4.05-6.6,8.26-7.5.37,3.75.37,7.49,0,11.24-2.36,2.93-4.15,6.49-8.27,7.46Z"/>
  <path class="cls-1" d="m108.62,123.79c0-3.73,0-7.46,0-11.19,2.23-3.08,4.05-6.6,8.26-7.5.37,3.75.37,7.49,0,11.24-2.36,2.93-4.15,6.49-8.27,7.46Z"/>
  <path class="cls-10" d="m98.08,147.91c.23.24.46.47.69.71-1.01,3.75-3.65,6.01-7.04,6.05-3.25-1.39-5.77-3.58-7.36-6.77,1.57-2.44,3-5.04,6.33-5.42.76.75.31,2.74,2.29,2.26,1.69,1.06,3.39,2.11,5.08,3.17Z"/>
  <path class="cls-1" d="m108.62,78.84c-.02-1.73.18-3.5-.08-5.19-1.01-6.63,3.49-9.68,8.05-12.73.95,3.47.54,6.97.3,10.47-2.36,2.93-4.15,6.49-8.27,7.46Z"/>
  <path class="cls-8" d="m208.25,241.6c-.06-.85-.13-1.69-.24-3.22-6.75,6.72-13.34,12.81-19.29,19.55-1.63.14-3.27.33-4.74-.66,1.84-.07,2.75-1.53,3.89-2.62,6.88-6.59,13.2-13.74,20.42-19.98.74,2.32.9,4.63-.04,6.94Z"/>
  <path class="cls-10" d="m90.58,142.56c-2.07,1.78-4.14,3.56-6.21,5.34-1.86-2.44-2.97-5.14-2.88-8.26,2.55-2.34,5.1-4.67,7.83-7.18,1.34,2.29-.43,4.99,1.11,7.08.08.43.16.86.24,1.28.27.59.36,1.18-.09,1.73Z"/>
  <path class="cls-6" d="m131.87,241.83c-.09-1.52-.63-1.75-1.72-.64-5.44,5.57-10.9,11.13-16.34,16.69-2.12.25-4.23.48-6.21-.64,1.99.15,3.49-.64,4.9-2.09,5.72-5.86,11.53-11.63,17.36-17.39,1.21-1.19,2.11-2.42,2-4.19.81,2.75,1.04,5.5,0,8.25Z"/>
  <path class="cls-5" d="m99.61,162.78c4.73-4.61,9.44-9.24,14.19-13.83.98-.94,2.06-1.78,3.1-2.66.2,1.61,1.25,1.83,2.63,1.76,2.33-.12,4.67-.13,7.01-.19-.54.64-1.3.84-2.03.68-5.41-1.18-8.81,1.77-12.1,5.44-3.15,3.52-6.61,6.76-10,10.05-1.44,1.39-2.66,2.88-3.45,4.72-.16-2.03.16-4.02.65-5.98Z"/>
  <path class="cls-6" d="m169.17,78.14c5.38-4.64,10.36-9.7,15.06-15.02,1.33.38,2.4,1.15,3.32,2.16-1.84.06-2.78,1.5-3.94,2.6-4.88,4.61-9.23,9.75-14.45,14.01-.34-1.25-.34-2.5,0-3.74Z"/>
  <path class="cls-2" d="m81.51,61.45c.08,4.81.17,9.61.25,14.42,0,1.25,0,2.5,0,3.75,1.89,3.53.63,7.33.93,10.99.16,1.37-.14,2.75.04,4.12.04,3.64,0,7.28-.03,10.92.15,1.36-.14,2.72.04,4.08.04,3.64,0,7.28-.03,10.91.15,1.37-.14,2.74.04,4.11-.23,3.67.72,7.44-.97,10.97-.09,1.32-.17,2.64-.26,3.96-.72-1.14-.47-2.42-.47-3.64-.02-23.79-.02-47.58,0-71.37,0-1.09-.32-2.26.49-3.24Z"/>
  <path class="cls-9" d="m142.35,59.97c-1.84,2.83-4.49,4.87-7.34,7.69-.13-2.18-.22-3.81-.32-5.45,1.14-4.68,4.11-5.55,7.66-2.24Z"/>
  <path class="cls-3" d="m177.53,59.39c-2.79,2.51-5.57,5.01-8.36,7.52-.07-1.22-.26-2.45-.2-3.66.22-4.91,3.76-6.49,8.56-3.86Z"/>
  <path class="cls-6" d="m108.62,123.79c2.76-2.49,5.51-4.97,8.27-7.46.36,1.25.36,2.5,0,3.74-2.75,2.5-5.51,5-8.26,7.5,0-1.26,0-2.53,0-3.79Z"/>
  <path class="cls-6" d="m108.62,78.84c2.76-2.49,5.51-4.97,8.27-7.46.36,1.25.36,2.5,0,3.74-2.75,2.5-5.51,5-8.26,7.5,0-1.26,0-2.52,0-3.79Z"/>
  <path class="cls-6" d="m116.89,105.09c-2.75,2.5-5.51,5-8.26,7.5,0-1.26,0-2.52,0-3.79,2.76-2.49,5.51-4.97,8.27-7.46.36,1.25.36,2.5,0,3.74Z"/>
  <path class="cls-6" d="m116.89,90.11c-2.75,2.5-5.51,5-8.26,7.5,0-1.26,0-2.52,0-3.79,2.76-2.49,5.51-4.97,8.27-7.46.36,1.25.36,2.5,0,3.74Z"/>
  <path class="cls-6" d="m108.62,138.77c2.76-2.49,5.51-4.97,8.27-7.46.36,1.25.36,2.5,0,3.74-2.76,2.5-5.51,5-8.27,7.5,0-1.26,0-2.52,0-3.78Z"/>
  <path class="cls-5" d="m91.73,154.67c3.34-.86,4.95-3.74,7.04-6.05,1.26.03,2.52.06,3.77.1-1.67,1.75-3.34,3.49-5,5.25-.71.75-1.88,1.35-.98,2.69-1.77-.27-3.46-.74-4.83-1.98Z"/>
  <path class="cls-3" d="m90.58,142.56c.03-.58.06-1.16.09-1.73.77,1.3,1.55,2.61,2.32,3.91-2.17.79-2.69-.25-2.41-2.18Z"/>
  <path class="cls-1" d="m134.95,82.51c-.05-1.12.05-2.27-.17-3.35-1.44-7.03,2.8-11,8.15-15.03v11.02c-2.08,3.08-4.04,6.3-7.98,7.36Z"/>
  <path class="cls-1" d="m134.95,97.49c0-3.72,0-7.45,0-11.17,2.05-3.11,4-6.34,7.98-7.37,0,3.73,0,7.46,0,11.18-2.08,3.08-4.04,6.3-7.98,7.36Z"/>
  <path class="cls-1" d="m142.94,108.91c0,3.73,0,7.46,0,11.18-2.08,3.08-4.04,6.3-7.98,7.36,0-3.72,0-7.45.01-11.17,2.05-3.11,4-6.34,7.98-7.37Z"/>
  <path class="cls-1" d="m142.94,93.93c0,3.73,0,7.46,0,11.18-2.08,3.08-4.04,6.3-7.98,7.36,0-3.72,0-7.45.01-11.17,2.05-3.11,4-6.34,7.98-7.37Z"/>
  <path class="cls-6" d="m134.95,112.47c2.66-2.45,5.32-4.91,7.98-7.36,0,1.27,0,2.53,0,3.8-2.66,2.46-5.32,4.92-7.98,7.37,0-1.27,0-2.54,0-3.81Z"/>
  <path class="cls-6" d="m142.94,78.94c-2.66,2.46-5.32,4.92-7.98,7.37,0-1.27,0-2.54,0-3.81,2.66-2.46,5.32-4.91,7.98-7.36,0,1.27,0,2.53,0,3.8Z"/>
  <path class="cls-6" d="m142.94,93.93c-2.66,2.46-5.32,4.92-7.98,7.37,0-1.27,0-2.54,0-3.81,2.66-2.46,5.32-4.91,7.98-7.36,0,1.27,0,2.53,0,3.8Z"/>
  <path class="cls-6" d="m134.95,127.45c2.66-2.45,5.32-4.91,7.98-7.36,0,1.27,0,2.53,0,3.8-2.66,2.46-5.32,4.92-7.98,7.37,0-1.27,0-2.54,0-3.81Z"/>
  <path class="cls-1" d="m81.74,105.76c0-3.73,0-7.45,0-11.18,2.01-3.14,3.97-6.33,7.94-7.36,0,3.72,0,7.45,0,11.17-2.01,3.14-3.99,6.32-7.94,7.37Z"/>
  <path class="cls-1" d="m81.75,135.72c0-3.73,0-7.45,0-11.18,2.01-3.14,3.97-6.33,7.94-7.36.03.37.03.74.11,1.11,1.58,7.78-1.85,13.24-8.04,17.43Z"/>
  <path class="cls-1" d="m81.74,90.78c0-3.72,0-7.45,0-11.17,2.49-2.34,4.98-4.68,7.93-7.46v11.27c-2.01,3.14-3.99,6.32-7.94,7.37Z"/>
  <path class="cls-1" d="m81.74,120.75c0-3.73,0-7.45,0-11.18,2.01-3.14,3.97-6.33,7.94-7.36,0,3.72,0,7.45,0,11.17-2.01,3.14-3.99,6.32-7.94,7.37Z"/>
  <path class="cls-6" d="m89.69,102.21c-2.65,2.45-5.29,4.9-7.94,7.36,0-1.27,0-2.53,0-3.8,2.65-2.46,5.29-4.91,7.94-7.37,0,1.27,0,2.54,0,3.81Z"/>
  <path class="cls-6" d="m81.74,90.78c2.65-2.46,5.29-4.91,7.94-7.37,0,1.27,0,2.54,0,3.81-2.65,2.45-5.29,4.91-7.94,7.36,0-1.27,0-2.53,0-3.8Z"/>
  <path class="cls-6" d="m81.74,120.75c2.65-2.46,5.29-4.91,7.94-7.37,0,1.27,0,2.54,0,3.81-2.65,2.45-5.29,4.91-7.94,7.36,0-1.27,0-2.53,0-3.8Z"/>
</svg>