<?xml version="1.0" encoding="UTF-8"?>
<svg id="Layer_1" data-name="Layer 1" xmlns="http://www.w3.org/2000/svg" width="255.84" height="389.59" viewBox="0 0 255.84 389.59">
  <defs>
    <style>
      .cls-1 {
        fill: #fefefe;
      }

      .cls-1, .cls-2, .cls-3, .cls-4, .cls-5, .cls-6, .cls-7, .cls-8, .cls-9, .cls-10, .cls-11, .cls-12, .cls-13, .cls-14, .cls-15, .cls-16, .cls-17, .cls-18, .cls-19, .cls-20, .cls-21, .cls-22, .cls-23, .cls-24, .cls-25, .cls-26, .cls-27, .cls-28, .cls-29, .cls-30, .cls-31 {
        stroke-width: 0px;
      }

      .cls-2 {
        fill: #e06351;
      }

      .cls-3 {
        fill: #76c2c4;
      }

      .cls-4 {
        fill: #fafcfc;
      }

      .cls-5 {
        fill: #c4c2ca;
      }

      .cls-6 {
        fill: #e56754;
      }

      .cls-7 {
        fill: #ea8050;
      }

      .cls-8 {
        fill: #f8b34f;
      }

      .cls-9 {
        fill: #df6251;
      }

      .cls-10 {
        fill: #e46553;
      }

      .cls-11 {
        fill: #e46452;
      }

      .cls-12 {
        fill: #76c4c5;
      }

      .cls-13 {
        fill: #e36452;
      }

      .cls-14 {
        fill: #95a93d;
      }

      .cls-15 {
        fill: #fdfdfc;
      }

      .cls-16 {
        fill: #96a93f;
      }

      .cls-17 {
        fill: #f3b04e;
      }

      .cls-18 {
        fill: #78c6c7;
      }

      .cls-19 {
        fill: #76c3c4;
      }

      .cls-20 {
        fill: #f0974f;
      }

      .cls-21 {
        fill: #8dbc97;
      }

      .cls-22 {
        fill: #77c6c8;
      }

      .cls-23 {
        fill: #fefefd;
      }

      .cls-24 {
        fill: #f9f9f9;
      }

      .cls-25 {
        fill: #78c6c8;
      }

      .cls-26 {
        fill: #737f2c;
      }

      .cls-27 {
        fill: #fefdfc;
      }

      .cls-28 {
        fill: #df6351;
      }

      .cls-29 {
        fill: #e46552;
      }

      .cls-30 {
        fill: #c8c6ce;
      }

      .cls-31 {
        fill: #504456;
      }
    </style>
  </defs>
  <path class="cls-11" d="m250.95,167.18c-.48,5.82-2.26,11.31-4.2,16.77-1.54,2.59-3.52,4.81-5.65,6.93-46.58,46.55-93.13,93.12-139.74,139.65-1.77,1.77-3.07,4.51-6.29,4.2-2.5-2.25-4.47-4.91-6.1-7.84-.51-3.1,2.14-4.31,3.79-5.96,33.59-33.68,67.23-67.3,100.86-100.93,17.17-17.17,34.33-34.34,51.51-51.5,1.29-1.29,2.42-2.87,4.2-3.45,2.11-.68,2.2.56,1.62,2.13Z"/>
  <path class="cls-11" d="m244.16,191.93c-2.28,8.29-5.18,16.34-9.14,23.98-2.52,3.52-5.56,6.57-8.62,9.63-38.81,38.78-77.6,77.6-116.44,116.35-1.65,1.65-2.86,4.28-5.94,3.83-1.98-2.39-3.95-4.77-5.93-7.16-1.15-1.4-.16-2.47.61-3.51.89-1.2,2.02-2.2,3.08-3.25,45.34-45.34,90.67-90.69,136.06-135.99,1.73-1.73,2.99-4.6,6.32-3.89Z"/>
  <path class="cls-11" d="m230.02,227.11c-3.93,10.13-9.19,19.57-14.86,28.79-3.68,4.72-7.99,8.84-12.21,13.05-27.94,27.93-55.86,55.88-83.84,83.77-1.67,1.66-2.9,4.22-5.93,3.93-2.07-2.59-4.97-4.49-6.32-7.66-.69-2.26,1.1-3.35,2.32-4.57,38.65-38.71,77.32-77.4,116.08-116,1.1-1.1,2.28-4.25,4.76-1.31Z"/>
  <path class="cls-11" d="m85.88,322.83c-2.51-2.28-4.49-4.96-6.02-7.98.57-2.25,2.46-3.49,3.96-4.99,25.19-25.22,50.39-50.43,75.6-75.63,1.11-1.11,2.86-1.91,2.32-4.01,2.1-2.59,5.52-2.54,8.12-4.11,3.75-1.24,7.21-3.1,10.61-5.09,1.68-.98,3.29-2.25,5.46-1.59,1.21.68,1.78,1.73,1.79,3.1-.27,2.36-2.04,3.74-3.55,5.25-30.69,30.72-61.38,61.43-92.13,92.08-1.63,1.62-2.99,4.35-6.17,2.96Z"/>
  <path class="cls-11" d="m88.03,7.04c6.4-2.71,13.07-4.35,20-4.92.62,2.46-1.44,3.51-2.73,4.83-6.46,6.59-13.02,13.08-19.55,19.61-1.28,1.28-2.7,2.44-3.33,4.23-2.09,2.69-5.47,3.3-8.14,5.08-16.09,9.5-28.88,22.31-38.37,38.4-1.85,2.62-2.34,6.09-5.12,8.12-4.73,2.86-7.95,7.36-11.89,11.07-4.2,3.96-8.15,8.18-12.3,12.19-1.22,1.18-2.23,3.03-4.48,2.36.55-6.94,2.24-13.59,4.88-20.02,1.58-2.34,3.42-4.44,5.43-6.44C35.49,58.54,58.53,35.49,81.55,12.43c2-2,4.07-3.89,6.48-5.39Z"/>
  <path class="cls-11" d="m77.34,311.74c-1.86-2.56-4.14-4.82-5.37-7.81-.58-2.9,1.89-4.05,3.41-5.59,19.05-19.16,38.17-38.24,57.29-57.34,1.99-1.99,3.95-4.01,5.84-6.12.79-.7,1.73-1.04,2.75-1.21,5.39-.27,10.48-2.54,15.92-2.41,1.34.5,1.13,1.46.63,2.41-.79,1.49-2.06,2.59-3.24,3.77-23.73,23.74-47.44,47.49-71.24,71.16-1.59,1.58-2.82,4.37-6,3.15Z"/>
  <path class="cls-11" d="m68.98,299.82c-2.15-1.99-3.57-4.49-4.89-7.06-1.28-2.17.36-3.45,1.58-4.68,17.1-17.19,34.22-34.36,51.43-51.44.71-.7,1.51-1.3,2.48-1.64,1.51-.49,3.08-.44,4.63-.53,2.65.05,5.31-.14,7.94.23.5.1.98.28,1.42.54,1.64,2.16-.29,3.39-1.43,4.54-19.42,19.57-38.92,39.06-58.47,58.49-1.24,1.23-2.55,2.85-4.71,1.54Z"/>
  <path class="cls-2" d="m85.88,322.83c1.88-.02,2.95-1.35,4.12-2.52,31.7-31.7,63.4-63.4,95.09-95.11.69-.69,1.23-1.54,1.84-2.32,1.01-1.92,2.36-3.56,3.9-5.1,18.94-18.89,37.83-37.83,56.78-56.7,1.43-1.42,2.55-3.67,5.23-3.12-.05,3.19-.68,6.27-1.9,9.22-.22-.68-.08-2.02-1.3-1.32-1.12.64-1.97,1.77-2.91,2.71-51.52,51.51-103.04,103.03-154.54,154.56-1.16,1.16-2.16,2.5-3.23,3.76-1.53-.97-2.25-2.55-3.09-4.05Z"/>
  <path class="cls-11" d="m61.29,288.72c-1.96-2.52-3.87-5.07-5.16-8.03-1.28-1.91.15-3.15,1.24-4.26,14.46-14.54,28.86-29.14,43.53-43.46.35-.35.82-.56,1.27-.77.48-.17.97-.26,1.48-.28,4.05.46,8,1.49,12.04,2,.73.27,1.31.71,1.55,1.49-17.34,16.01-33.48,33.23-50.37,49.69-1.58,1.54-2.76,3.91-5.59,3.6Z"/>
  <path class="cls-2" d="m244.16,191.93c-1.89.52-2.93,2.13-4.2,3.4-46.19,46.16-92.36,92.33-138.51,138.52-1.36,1.36-3.3,2.39-3.36,4.72-1.01-1.28-2.02-2.57-3.02-3.85,1.48-1.32,3.03-2.57,4.43-3.97,47.62-47.59,95.22-95.21,142.84-142.8,1.4-1.4,2.93-2.68,4.41-4.01-.56,2.76-.97,5.57-2.59,7.99Z"/>
  <path class="cls-11" d="m11.13,77.02c4.16-11.19,10.58-21.08,18.19-30.11,13.12-15.57,28.57-28.19,47.73-35.79,1.42-.81,2.37-.55,2.01,1.22-.35,1.68-1.79,2.75-2.95,3.92-19.93,19.96-39.88,39.9-59.83,59.83-1.17,1.17-2.24,2.61-3.92,2.95-1.79.36-2-.63-1.22-2.02Z"/>
  <path class="cls-2" d="m230.02,227.11c-1.44-1.61-2.01.18-2.64.81-39.83,39.78-79.63,79.6-119.42,119.42-.46.46-.73,1.09-1.1,1.65-.95-1.09-1.9-2.17-2.85-3.26,1.48-1.32,3.04-2.56,4.44-3.96,40.69-40.66,81.36-81.35,122.06-122.01,1.39-1.39,2.53-3.12,4.51-3.84-1.1,3.98-2.75,7.72-5,11.19Z"/>
  <path class="cls-11" d="m53.06,275.82c-2.12-2.39-3.65-5.14-4.94-8.04-.53-1.33.25-2.29,1.05-3.09,12.52-12.41,24.54-25.32,37.62-37.18.46-.15.93-.2,1.42-.18,3,.77,5.95,1.67,8.8,2.9.64.4,1.1.95,1.36,1.66.01,2.28-1.72,3.49-3.08,4.86-12.14,12.19-24.28,24.37-36.52,36.47-1.49,1.47-2.75,4.09-5.71,2.58Z"/>
  <path class="cls-11" d="m45.88,263.94c-2.25-2.33-3.41-5.29-4.77-8.13-1.4-2.94,1.15-4.21,2.63-5.72,9.6-9.85,19.53-19.36,29.03-29.32.96-.47,1.87-.16,2.77.2,2.71,1.79,5.74,3.01,8.55,4.63.26.42.35.87.3,1.36-2.34,3.89-5.96,6.61-9.07,9.78-8,8.15-16.09,16.2-24.22,24.22-1.43,1.41-2.55,3.63-5.22,3Z"/>
  <path class="cls-28" d="m113.19,356.65c1.35-1.22,2.75-2.38,4.04-3.67,31.13-31.11,62.24-62.24,93.38-93.34,1.38-1.38,2.48-3.17,4.55-3.75-2.17,5.01-4.97,9.64-8.19,14.02-2.94,1.23-4.11,4.22-6.2,6.3-26.38,26.24-52.66,52.59-79.01,78.86-1.92,1.92-3.48,4.65-6.88,4.28-.73-.27-1.25-.72-1.39-1.52-.1-.4-.19-.79-.29-1.19Z"/>
  <path class="cls-11" d="m38.25,250.83c-1.47-2.6-3.48-4.93-4.15-7.95-1.36-2.92,1.12-4.21,2.61-5.74,7.94-8.17,16.19-16.03,24.03-24.31.97-.52,1.83-.12,2.69.32,2.64,1.81,5.3,3.6,7.84,5.56.19.45.21.91.11,1.39-9.27,10.62-19.68,20.14-29.64,30.09-.91.91-2.09,1.79-3.5.65Z"/>
  <path class="cls-2" d="m77.34,311.74c1.5-.03,2.35-1.12,3.28-2.05,25.4-25.39,50.79-50.79,76.17-76.19.46-.46.78-1.06,1.17-1.6.27-1.06,1.04-1.55,2.04-1.77.75-.06,1.41.14,1.93.71.6.11,1.64.12,1.24.95-.48,1-1.44,1.79-2.26,2.61-25.98,25.99-51.97,51.98-77.97,77.96-.93.93-2.04,1.66-3.07,2.49-1.12-.8-2.06-1.76-2.52-3.11Z"/>
  <path class="cls-28" d="m11.13,77.02c.11.6.13,1.63.95,1.23,1-.49,1.78-1.45,2.6-2.26,20.45-20.43,40.9-40.86,61.25-61.38.71-.72,3.88-1.39,1.12-3.49,3.45-1.91,7.02-3.52,10.98-4.08-.82,1.03-1.56,2.14-2.48,3.07C60.41,35.28,35.26,60.43,10.09,85.56c-.92.92-2.06,1.63-3.09,2.44.67-3.93,2.15-7.54,4.13-10.98Z"/>
  <path class="cls-11" d="m31.31,237.84c-1.59-2.89-3.37-5.69-4.22-8.93-.6-1.55.44-2.54,1.34-3.43,7.41-7.28,14.36-15.04,22.25-21.84.45-.17.92-.21,1.39-.14,3,1.9,5.43,4.38,7.39,7.34.09.48.05.95-.1,1.41-7.55,8.71-16.1,16.45-24.21,24.62-.98.99-2.16,2.24-3.84.98Z"/>
  <path class="cls-11" d="m114,1.24c1.28-.05,2.56-.11,3.85-.16,2.07-.86,4.24-.37,6.36-.37,1.58,0,3.91-.89,4.62.59,1.01,2.11-1.32,3.45-2.59,4.86-4.87,5.38-10.7,9.84-14.98,15.78-1.69,1.92-4.26,1.19-6.29,2.08-5.23.7-9.97,3.45-15.32,3.63-1.59-.89-.82-2.12-.09-2.85,7.97-8.03,15.18-16.87,24.45-23.55Z"/>
  <path class="cls-11" d="m1.1,116.86c.04-.96.09-1.92.13-2.88,2.61-4.99,7.23-8.18,10.97-12.16,3.53-3.75,7.19-7.39,10.96-10.91,1.16-1.08,2.31-3.07,4.45-1.39-.06,5.4-2.88,10.17-3.57,15.42-.72,1.91-.56,4.15-2.09,5.77-5.69,5.24-10.95,10.91-16.53,16.26-1.05,1.01-2.2,2.48-3.73,2.01-1.88-.58-.97-2.53-.96-3.83.02-2.76-.53-5.57.37-8.3Z"/>
  <path class="cls-11" d="m25.18,224.85c-1.64-3.14-3.61-6.14-4.19-9.74-.41-.86-.13-1.73.41-2.29,6.54-6.72,12.5-14.06,20.27-19.51.48-.06.95-.01,1.41.13,2.44,2.17,4.48,4.69,6.39,7.34.1.47.08.94-.05,1.4-6.51,7.73-14.08,14.44-21.17,21.61-.79.79-1.73,1.62-3.06,1.07Z"/>
  <path class="cls-2" d="m68.98,299.82c1.68,0,2.68-1.13,3.74-2.18,20.03-20.04,40.07-40.07,60.1-60.12.46-.46.79-1.05,1.18-1.58,1.62-1.52,3.28-1.54,4.98-.13-1.18,1.37-2.28,2.83-3.56,4.11-19.83,19.86-39.69,39.7-59.52,59.56-1.4,1.4-2.62,2.97-3.92,4.46-1.5-1-2.24-2.57-3-4.11Z"/>
  <path class="cls-30" d="m87.91,381.75c-.6-.13-1.2-.26-1.8-.38-8.6-7.11-7.96-12.03,2.41-16.95,7.09-3.36,14.6-5.32,22.49-5.66.59,1.79-.73,2.79-1.72,3.81-5.79,5.92-11.65,11.77-17.56,17.56-1.01.99-2.03,2.28-3.81,1.63Z"/>
  <path class="cls-11" d="m19.12,210.89c-1.99-3.41-3.36-7.05-4.21-10.9,5.52-7.03,11.53-13.57,18.96-18.67.48-.01.94.09,1.38.29,2.21,2.44,4.05,5.13,5.32,8.19.06.48.01.95-.13,1.41-5.58,6.73-12.13,12.5-18.27,18.68-.78.78-1.71,1.64-3.04,1.01Z"/>
  <path class="cls-11" d="m1.33,146.01c-.08-1.96-.16-3.92-.24-5.88-1.25-4.22-.15-7.59,3.17-10.56,5.62-5.04,10.41-10.95,16.24-15.79.57-.02.98.23,1.24.74.55,1.28.47,2.58.2,3.9-1.04,3.83.04,7.82-.83,11.67-4.44,6.69-10.73,11.63-16.37,17.18-1.59,1.57-2.99,1.13-3.41-1.25Z"/>
  <path class="cls-11" d="m138.16,1.07c3.3.07,6.67-.41,9.82,1.05.43.86.17,1.69-.4,2.27-5.62,5.74-10.64,12.11-17.4,16.67-3.88.91-7.9-.14-11.78.86-1.06.19-2.1.17-3.07-.36-1.46-2.22.51-3.37,1.63-4.54,4.57-4.79,9.32-9.42,14.01-14.1,2.04-2.04,4.36-2.93,7.19-1.85Z"/>
  <path class="cls-11" d="m13.28,195.9c-1.39-3.21-2.78-6.42-3.15-9.96-.54-1.3.22-2.27,1-3.04,5.24-5.14,9.94-10.84,15.84-15.3.48-.09.94-.02,1.38.18,2.38,2.42,2.7,5.91,4.47,8.66.44.86.85,1.73.43,2.72-5.01,4.7-9.75,9.69-14.71,14.45-1.4,1.34-2.6,3.65-5.26,2.28Z"/>
  <path class="cls-28" d="m61.29,288.72c16.67-16.55,33.34-33.1,50.01-49.65,1.63-1.61,3.04-3.61,5.78-3.25.65-.57,1.29-.49,1.93.03-6.97,7.14-13.89,14.31-20.92,21.39-10.2,10.28-20.48,20.48-30.69,30.75-1.37,1.37-3.27,2.44-3.31,4.76-.93-1.35-1.87-2.69-2.8-4.04Z"/>
  <path class="cls-11" d="m8.23,179.94c-1.2-2.84-2.01-5.77-2.14-8.86-1-2.78,1.06-4.23,2.59-5.86,4.51-4.79,9.65-9,13.45-14.46.86-.08,1.38.4,1.78,1.08,1.26,3.51,2.05,7.15,3.07,10.73.09.75.02,1.49-.21,2.2-4.2,5.6-9.56,10.09-14.48,15-1.11,1.11-2.62,2.47-4.06.16Z"/>
  <path class="cls-11" d="m4.29,163.97c-.85-2.54-1.44-5.12-1.22-7.82-.82-2.16-.69-4.32.86-5.99,4.45-4.8,8.99-9.53,13.95-13.82.63-.54,1.44-.76,2.3-.58.89.61,1.4,1.49,1.75,2.48.64,2.97.59,6.02,1.12,9.01,0,.5-.09.99-.24,1.47-4.08,5.5-9.32,9.91-14.13,14.72-1.13,1.13-2.61,3.07-4.39.53Z"/>
  <path class="cls-11" d="m153.08,3.07c3.5-.18,6.67,1.16,9.9,2.2,2.36,1.44.87,2.93-.19,4.01-4.51,4.58-8.71,9.48-13.82,13.45-.45.19-.93.32-1.41.38-2.7-.01-5.3-.87-7.99-.89-.49-.07-.97-.19-1.45-.35-.93-.38-1.79-.87-2.36-1.73-.26-1.51.65-2.52,1.57-3.47,4.03-4.17,8.12-8.28,12.31-12.29.92-.88,1.92-1.9,3.45-1.32Z"/>
  <path class="cls-11" d="m168.01,6.98c3.91.69,7.53,2.11,10.94,4.13.61,1.32-.21,2.25-.99,3.03-4.28,4.27-8.16,8.96-13.07,12.58-.71.26-1.45.33-2.2.25-3.56-.98-7.17-1.82-10.68-2.98-.68-.36-1.19-.85-1.26-1.66,4.76-3.58,8.75-7.98,12.98-12.12,1.28-1.26,2.38-2.79,4.29-3.22Z"/>
  <path class="cls-28" d="m53.06,275.82c.89-.39,1.99-.56,2.62-1.2,14.15-14.21,28.25-28.47,42.35-42.72,1.72-1.19,2.94-.41,3.99,1.01-14.2,14.35-28.41,28.68-42.58,43.06-1.35,1.37-3.28,2.4-3.32,4.72-1.52-1.31-2.22-3.14-3.07-4.88Z"/>
  <path class="cls-11" d="m183.09,13.03c2.88.84,5.51,2.16,7.85,4.04,2.59,2.04.5,3.51-.74,4.84-3.62,3.84-7.45,7.47-11.04,11.35-.97.41-1.87.11-2.78-.22-3.13-1.59-6.41-2.88-9.45-4.66-.26-.43-.32-.88-.21-1.37,3.86-3.77,7.69-7.58,11.55-11.35,1.32-1.29,2.41-3.25,4.83-2.64Z"/>
  <path class="cls-11" d="m232.75,54.27c.09.49.17.97.26,1.46.83,1.77.12,3.2-1.11,4.41-3.83,3.78-7.28,7.95-11.64,11.18-.46.14-.93.16-1.4.03-2.44-2.21-3.78-5.22-5.66-7.84-.46-.84-.86-1.69-.45-2.67,4.98-4.08,8.63-9.64,14.26-13.01.29.05.59.11.88.18,2.27,1.59,4.16,3.46,4.85,6.26Z"/>
  <path class="cls-11" d="m195.95,20.09c2.94,1.31,5.46,3.24,7.93,5.24,1.26,1.67-.01,2.82-.98,3.8-3.79,3.82-7.29,7.95-11.6,11.24-.45.17-.92.23-1.4.19-3.09-1.21-5.74-3.11-8.24-5.26-.22-.43-.33-.9-.34-1.38,3.91-5.62,7.88-11.2,14.62-13.83Z"/>
  <path class="cls-11" d="m208.22,28.97c2.89,1.25,4.79,3.64,6.81,5.89.64,1.55-.38,2.56-1.3,3.47-3.77,3.72-7.17,7.82-11.44,11.02-.46.17-.93.2-1.41.13-2.67-1.91-5.49-3.63-7.45-6.37-.14-.48-.17-.96-.12-1.45,2.73-5,7.33-8.28,11.26-12.17,1.02-1.01,2.32-1.14,3.65-.52Z"/>
  <path class="cls-11" d="m218.18,37.93c2.48,2.15,4.9,4.37,6.7,7.16.61,2.23-1.2,3.25-2.39,4.48-3.41,3.56-7,6.94-10.28,10.62-.43.21-.89.25-1.35.14-2.44-2.74-5.36-5.04-7.34-8.19-.09-.48-.06-.94.09-1.41,3.22-4.34,7.38-7.77,11.14-11.58.89-.9,1.9-1.87,3.42-1.23Z"/>
  <path class="cls-28" d="m45.88,263.94c9.58-8.23,17.94-17.71,27.03-26.44,3.71-3.55,7.43-7.09,11.14-10.64,1.49-.99,2.38-.34,2.99,1.09-11.66,11.8-23.33,23.59-34.97,35.4-1.39,1.41-2.64,2.95-3.96,4.43-1.25-.99-1.79-2.39-2.23-3.84Z"/>
  <path class="cls-28" d="m38.25,250.83c2.29-.12,3.34-2.03,4.72-3.39,9.38-9.16,18.72-18.37,28.07-27.56,1.16-.56,1.66.13,2.02,1.08-.04,2.11-1.74,3.12-2.99,4.38-8.66,8.7-17.36,17.36-26.01,26.06-1.25,1.26-2.94,2.28-2.94,4.4-1.46-1.37-2.11-3.2-2.87-4.98Z"/>
  <path class="cls-28" d="m27.13,89.04c-7.17,7-14.34,14.01-21.52,21-1.41,1.37-2.91,2.64-4.37,3.95-.13-2.05-.16-4.09.88-5.97,8.61-7.4,16.08-15.96,24.34-23.72.99-.93,1.4-3.24,3.67-2.25,1.23,1.44.27,2.79-.17,4.16-.77,1.11-.72,3.05-2.82,2.82Z"/>
  <path class="cls-28" d="m114,1.24c-7.02,7.16-14.05,14.31-21.05,21.49-1.37,1.4-2.6,2.94-3.9,4.41.19,2.09-1.74,2.01-2.84,2.79-1.36.45-2.7,1.41-4.14.18-1-2.29,1.34-2.71,2.29-3.71,7.82-8.16,15.76-16.2,23.67-24.28,1.88-1.05,3.91-1.03,5.97-.89Z"/>
  <path class="cls-28" d="m31.31,237.84c2.29-.15,3.3-2.09,4.71-3.43,7.85-7.42,14.91-15.65,23.21-22.6,1.12-.5,1.97-.55,1.84,1.08,0,2.12-1.69,3.15-2.94,4.41-7.02,7.07-14.09,14.09-21.11,21.15-1.26,1.27-2.92,2.31-2.93,4.42-1.42-1.41-2.08-3.24-2.79-5.04Z"/>
  <path class="cls-5" d="m87.91,381.75c8.18-7.18,15.77-14.96,23.1-23,.82-.3,1.64-.61,2.47-.91.52.29,1.04.57,1.56.86.74.58,1.62,1.09,1.06,2.27-6.61,6.21-12.88,12.76-19.34,19.12-1.4,1.38-2.66,2.96-4.7,3.5-1.61-.1-2.98-.74-4.15-1.85Z"/>
  <path class="cls-28" d="m25.18,224.85c6.61-6.46,13.22-12.93,19.85-19.37,1.3-1.26,2.71-2.39,4.07-3.59,1.63-.27,2.34.35,1.99,2.03-6.69,6.85-13.39,13.69-20.06,20.56-1.37,1.41-2.62,2.95-3.93,4.42-1.15-1.11-1.74-2.48-1.92-4.05Z"/>
  <path class="cls-28" d="m21.01,114.04c-4.73,5.92-10.34,11-15.78,16.22-2.96,2.84-4.74,5.75-4.14,9.88-1.43-7.76-1.48-15.52.01-23.27,0,3.75,0,7.5,0,12.27,7.25-6.88,13.68-12.99,20.12-19.1,1.12,1.4,1.09,2.74-.21,4.01Z"/>
  <path class="cls-2" d="m138.16,1.07c-2,.03-3.86.13-5.44,1.79-5.84,6.1-11.79,12.09-17.71,18.12-.28.44-.68.74-1.18.9-1.06.24-2,.06-2.78-.75-1.05-2.29,1.3-2.72,2.25-3.69,5.03-5.18,10.24-10.19,14.81-16.37-3.42,0-6.84,0-10.27,0,6.77-1.46,13.54-1.41,20.32,0Z"/>
  <path class="cls-28" d="m19.12,210.89c6.99-6.66,13.98-13.32,20.97-19.98,2.24-.08,2.42,1.26,2.05,2.98-7.49,6.64-14.6,13.66-21.16,21.23-1.05-1.22-1.72-2.61-1.87-4.22Z"/>
  <path class="cls-28" d="m13.28,195.9c4.05-1.28,5.92-5.13,8.96-7.6,3.69-2.99,6.05-7.5,10.72-9.37,1.51.54,2.11,1.45,1.21,2.97-5.05,4.88-10.09,9.77-15.17,14.62-1.29,1.23-2.72,2.32-4.08,3.47-.97-1.2-1.58-2.54-1.63-4.1Z"/>
  <path class="cls-28" d="m20.13,135.98c-5.2,5.04-10.38,10.11-15.62,15.11-1.53,1.46-1.31,3.28-1.43,5.06-1.23-3.26-1.64-6.67-1.74-10.13,1.57,2.48,2.62.61,3.73-.47,5.01-4.85,10.01-9.71,15.01-14.56,1.51,1.65,1.5,3.31.05,4.99Z"/>
  <path class="cls-28" d="m8.23,179.94c2.1,1.29,2.92-.64,4.04-1.67,4.73-4.36,8.77-9.43,13.92-13.35,2.05.36,1.71,1.55.99,2.87-5.69,6.05-11.37,12.09-17.06,18.14-1.27-1.8-1.47-3.93-1.9-6Z"/>
  <path class="cls-28" d="m153.08,3.07c-6.14,5.24-11.81,10.96-17.09,17.06-1.68,1.44-3.34,1.44-4.99-.06,5.66-5.98,11.32-11.96,16.98-17.94,1.74.08,3.58-.33,5.1.95Z"/>
  <path class="cls-28" d="m4.29,163.97c2.11,1.29,2.91-.67,3.99-1.7,4.63-4.4,9.19-8.87,13.78-13.31.58.62.66,1.26.1,1.93.28,2.23-1.04,3.63-2.48,5.04-3.62,3.55-7.19,7.14-10.76,10.74-1.25,1.26-2.81,2.34-2.83,4.4-1.18-2.22-1.72-4.6-1.79-7.11Z"/>
  <path class="cls-28" d="m168.01,6.98c-3.93,5.2-9,9.29-13.44,14-1.02,1.08-2.33,1.16-3.68,1.17-.67.55-1.3.47-1.91-.09,4.11-4.26,8.24-8.49,12.3-12.79,1.03-1.09,2.99-1.89,1.7-4.01,1.8.21,3.53.61,5.02,1.71Z"/>
  <path class="cls-28" d="m183.09,13.03c-4.44,3.19-7.76,7.54-11.76,11.19-1.31,1.19-2.29,2.89-4.39,2.89-1.13.71-1.89.6-2.01-.91,4.67-5.03,9.35-10.06,14.02-15.09,1.6.16,2.97.82,4.14,1.92Z"/>
  <path class="cls-28" d="m195.95,20.09c-5.1,4.27-9.81,8.93-14.04,14.07-1.51.88-2.43.29-2.97-1.21,2.02-4.98,6.87-7.46,10.06-11.42,1.05-1.31,3.27-2.12,1.93-4.46,2.02.43,3.55,1.67,5.02,3.02Z"/>
  <path class="cls-28" d="m208.22,28.97c-6.2,2.85-9.84,8.47-14.32,13.18-1.7.35-3.03.15-2.98-2.05,3.3-3.47,6.63-6.93,9.9-10.43,1.21-1.3,2.96-2.25,3.07-4.34,1.81.78,3.08,2.2,4.33,3.64Z"/>
  <path class="cls-2" d="m218.18,37.93l-14.27,13.15c-1.63.32-2.27-.38-2.01-1.98,4.38-4.75,8.75-9.49,13.13-14.24,1.05,1.02,2.1,2.04,3.15,3.07Z"/>
  <path class="cls-28" d="m211.91,60c1.56-4.57,5.94-6.71,8.77-10.19,1.33-1.63,2.79-3.15,4.2-4.72,1.16.57,1.85,1.5,2.14,2.74-4.35,4.8-8.13,10.2-14.13,13.24-.9.17-1.34-.09-.98-1.07Z"/>
  <path class="cls-31" d="m232.75,54.27c-1.62-2.09-3.24-4.17-4.85-6.26,3.18.29,4.18,3.15,5.97,5.07-.37.4-.74.79-1.11,1.19Z"/>
  <path class="cls-11" d="m116.09,360.68c-.35-.66-.7-1.32-1.06-1.98,2.5-.1,3.62-2.19,5.1-3.66,27.6-27.55,55.15-55.14,82.78-82.65,1.07-1.06,1.66-3.37,4.04-2.47-7.89,14.01-17.08,27.16-26.59,40.1-.97,1.32-2.08,2.55-3.12,3.82-16.18,17.71-33.67,34.13-50.46,51.22-1.04,1.06-2.04,2.18-3.38,2.89-.45.16-.91.2-1.38.11-2.36-2.15-4.69-4.34-5.93-7.39Z"/>
  <path class="cls-11" d="m252.84,157.95c-3.12,2.96-6.31,5.85-9.36,8.89-17.51,17.46-34.98,34.96-52.48,52.43-1.28,1.28-2.72,2.4-4.08,3.6-.35-1.05-.7-2.1-1.05-3.16-.13-2.55,2.1-3.18,3.61-4.31,14.1-10.49,25.43-23.37,33.72-38.89,1.18-2.21,1.82-4.65,2.92-6.89,1.81-2.44,1.31-6.18,4.4-7.91.91-1.02-.19,2.4,1.38.56,6.28-7.4,13.43-13.95,20.39-20.7.69-.67,1.61-1.18,2.68-.6.09,5.76-.64,11.42-2.13,16.98Z"/>
  <path class="cls-30" d="m142.01,388.49c-2.24.1-4.47.19-6.71.29-1.1.54-2.31.52-3.43.34-1.67-.27-4.06,1.14-4.86-1.01-.6-1.6,1.26-2.91,2.41-4.08,7.02-7.1,14.08-14.16,21.18-21.17,1.26-1.24,2.46-2.8,4.64-2.28,3.81.28,7.33,1.51,10.68,3.28.46,1.32-.33,2.24-1.12,3.05-6.65,6.82-13.34,13.58-20.21,20.18-.71.68-1.7.98-2.58,1.42Z"/>
  <path class="cls-30" d="m120.77,388.8c-4.29.08-8.57.13-12.73-1.2-.2-.48-.31-1.07,0-1.42,5.14-5.83,9.99-11.96,16.77-16.07,2.59.83,4.63.24,6.56-1.84,2.23-2.41,4.28-4.95,6.45-7.4,1.25-1.41,2.38-3.25,4.75-2.98,2.5.54,4.99,1.08,7.49,1.62.76,2.03-.84,3.06-1.93,4.17-7.66,7.78-15.39,15.49-23.16,23.17-1.13,1.12-2.26,2.51-4.22,1.96Z"/>
  <path class="cls-30" d="m116.09,360.68c2.46,1.85,4.41,4.16,6.06,6.75.34.64.38,1.36-.08,1.86-5.68,6.21-11.13,12.66-18.09,17.53-4.21-.18-8.15-1.4-11.92-3.23,7.13-7.26,14.24-14.55,21.42-21.76.63-.63,1.73-.78,2.62-1.16Z"/>
  <path class="cls-11" d="m255.69,125.94c0,2.03,0,4.06,0,6.09,0,3.72-1.87,6.39-4.49,8.88-5.13,4.87-9.98,10.05-15.1,14.92-1.21,1.15-2.39,3.48-4.75,1.54-.32-5.52,2.05-10.64,2.32-16.07.16-1.04.52-1.99,1.22-2.8,5.13-4.65,9.84-9.75,14.83-14.55,1.37-1.32,2.66-3.66,4.77-2.89,1.98.71.14,3.36,1.21,4.88Z"/>
  <path class="cls-11" d="m253.05,102.91c1.49,4.23,1.98,8.61,1.89,13.07-4.66,6.82-11.03,12.02-16.93,17.64-.68.65-1.72,1.02-2.62.06-.43-.67-.64-1.41-.74-2.19-.18-2.12-.12-4.24-.15-6.35.12-1.83-.05-3.69.49-5.48,4.38-6.31,10.31-11.15,15.79-16.41.6-.58,1.44-.8,2.29-.34Z"/>
  <path class="cls-28" d="m123.03,367.58c17.02-17.15,34.03-34.31,51.06-51.45.92-.93,1.72-2.05,3.16-2.28-6.41,9.54-13.45,18.59-21.12,27.15-8.86,8.21-17.1,17.05-25.77,25.46-1.62,1.57-2.94,3.72-5.64,3.68-1.31-.36-2.31-.93-1.69-2.56Z"/>
  <path class="cls-30" d="m169.06,365.41c3.44,1.56,6.54,3.69,6.76,7.74.22,4.21-3.09,6.37-6.3,8.13-5.37,2.95-11.05,5.08-17.25,5.49-1.1.34-2.36.9-3.21-.2-.71-.92.02-1.97.69-2.64,6.32-6.29,11.93-13.33,19.31-18.53Z"/>
  <path class="cls-11" d="m248.81,87.05c1.55,3.48,2.89,7.01,3.1,10.88.57,2.43-1.4,3.53-2.7,4.88-4.57,4.76-9.52,9.17-13.57,14.42-.85-.11-1.31-.66-1.63-1.39-.62-4.03-1.54-8.01-2.07-12.05,0-.51.08-1,.23-1.48,3.98-5.49,9.2-9.79,13.98-14.53.68-.68,1.58-1.22,2.67-.73Z"/>
  <path class="cls-11" d="m243.07,72.94c1.86,2.75,3.13,5.74,3.84,8.98.57.76.58,1.7.07,2.33-4.36,5.34-8.56,10.87-14.92,14.12-.74-.2-1.3-.66-1.74-1.28-1.28-2.84-2.17-5.82-2.96-8.83-.04-.49,0-.96.15-1.43,3.66-4.83,8.27-8.74,12.54-12.98.78-.78,1.73-1.57,3.03-.91Z"/>
  <path class="cls-11" d="m235.93,60.04c2.22,2.64,3.99,5.53,5.04,8.83.56,1.32-.2,2.31-1,3.1-4.24,4.21-8.02,8.89-12.93,12.4-.48.09-.94.01-1.38-.21-1.81-2.72-3.38-5.57-4.73-8.55-.34-.9-.62-1.81-.22-2.77,3.63-3.39,7.11-6.96,10.68-10.41,1.24-1.2,2.27-3.03,4.53-2.39Z"/>
  <path class="cls-5" d="m120.77,388.8c10.27-9.26,20.03-19.04,29.3-29.29,1.76.13,3.6-.08,5.15,1.06-9.84,8.4-18.33,18.15-28.55,27.82,3.57.16,6.09.27,8.62.39-4.84,1.13-9.68,1.03-14.52.02Z"/>
  <path class="cls-13" d="m124.99,369.7c9.14-8.97,18.24-17.96,27.45-26.85.93-.9,1.46-3.28,3.69-1.85-4.51,5.63-9.03,11.25-13.55,16.88-3.83,4.07-7.76,8.05-11.43,12.25-2.03,2.32-3.82,2.84-6.05.51-.34-.17-.47-.37-.39-.59.08-.24.18-.35.28-.35Z"/>
  <path class="cls-28" d="m231.91,157.95c7.19-7.04,14.33-14.14,21.61-21.08,1.49-1.42.76-3.54,2.16-4.83.01,3,.62,6.05-.71,8.94-7.58,6.15-13.83,13.67-21.02,20.22-.52.48-1.32,4.21-3.1.71-.57-.52-.76-1.17-.71-1.92.21-1,.71-1.76,1.76-2.03Z"/>
  <path class="cls-5" d="m169.06,365.41c-5.3,6.83-11.97,12.34-17.92,18.54-2.07,2.16-1.71,2.86,1.13,2.83-3.3,1.26-6.76,1.59-10.26,1.71,7.97-8.21,15.94-16.43,23.91-24.64,1.05.52,2.1,1.04,3.14,1.56Z"/>
  <path class="cls-9" d="m235.93,133.98c6.33-6,12.66-12,19-18,1.28,3.24.88,6.61.76,9.96-1.37-1.08-.51-2.82-1.3-4.62-6.34,6.01-12.47,11.82-18.6,17.63-1.39-1.7-1.37-3.36.14-4.97Z"/>
  <path class="cls-5" d="m124.99,369.7c.03.31.07.63.12.94-6.14,5.19-11.73,10.95-17.06,16.95-1.42.08-2.85.25-4.07-.77,4.31-5.66,9.89-10.1,14.67-15.29,1.22-1.32,2.34-2.74,3.5-4.11.29.08.58.13.88.15.65.71,1.3,1.42,1.95,2.12Z"/>
  <path class="cls-28" d="m235.83,117.08c-.31-2.46,1.33-3.86,2.83-5.4,4.44-4.56,8.84-9.17,13.25-13.76,1.28,1.46.91,3.29,1.14,4.99-5.73,5.36-11.46,10.72-17.19,16.08-.51-.63-.59-1.27-.03-1.91Z"/>
  <path class="cls-28" d="m231.91,98.02c5.26-5.12,11.45-9.37,14.99-16.1,1.2,1.49,1.68,3.26,1.91,5.12-5.3,4.99-10.59,9.98-15.89,14.97-1.9-.93-2.32-2.24-1.02-3.99Z"/>
  <path class="cls-28" d="m226.87,84.06c4.7-5.06,9.4-10.12,14.1-15.19,1.13,1.14,1.74,2.54,2.09,4.07-5.04,4.7-10.07,9.39-15.11,14.09-1.41-.61-2.07-1.49-1.08-2.97Z"/>
  <path class="cls-28" d="m235.93,60.04c-3.54,3.37-7.07,6.75-10.64,10.1-1.28,1.2-2.25,2.89-4.33,2.92-.93-.36-1.61-.86-1.07-2.01,3.43-3.6,6.86-7.2,10.31-10.79,1.26-1.31,2.76-2.47,2.81-4.52,1.45,1.11,2.23,2.68,2.92,4.31Z"/>
  <path class="cls-8" d="m226.95,170.02c-3.68,11.23-10.47,20.59-18.09,29.36-6.75,7.77-14.71,14.24-22.97,20.34-5.54,1.84-9.83,6.42-15.84,7.22-1.35.45-1.38-.43-1.13-1.27.55-1.83,2.04-2.98,3.32-4.26,16.38-16.41,32.76-32.82,49.22-49.15,1.49-1.47,2.61-4.06,5.56-3.09.07.02.12.26.11.39-.02.16-.11.31-.17.47Z"/>
  <path class="cls-17" d="m226.95,170.02c-1.55-1.35-2.02.44-2.66,1.07-17.77,17.69-35.49,35.42-53.18,53.18-.64.64-2.42,1.11-1.06,2.66-2.2,2.36-5.77,1.86-8.11,3.91-.65,0-1.31-.01-1.96-.02-.58-2.25,1.22-3.32,2.44-4.54,21.26-21.34,42.57-42.64,63.9-63.9,1.22-1.22,2.29-3.01,4.54-2.44,0,.65.01,1.3.02,1.95-2.05,2.35-1.55,5.92-3.91,8.12Z"/>
  <path class="cls-17" d="m82.07,30.11c1.33-.34,2.65-.69,3.98-1.03.59,2.47-1.42,3.57-2.74,4.89-16.4,16.48-32.85,32.93-49.33,49.33-1.33,1.32-2.42,3.34-4.89,2.73.35-1.33.69-2.65,1.04-3.98,1.65-2.68,3.3-5.37,4.95-8.05,12.93-13.03,25.9-26.02,38.95-38.93,2.68-1.65,5.36-3.31,8.05-4.96Z"/>
  <path class="cls-8" d="m74.02,35.07c1.26,1.58-.51,2.01-1.15,2.65-11.67,11.76-23.38,23.47-35.14,35.14-.64.64-1.08,2.41-2.65,1.14,9.18-16.78,22.17-29.75,38.95-38.93Z"/>
  <path class="cls-8" d="m230.84,159.95c-2.66,2.5-5.38,4.93-7.96,7.51-19.78,19.74-39.54,39.51-59.29,59.29-1.28,1.29-2.42,2.72-3.62,4.08-.67.36-1.33.71-2,1.07-5.66.97-11.15,2.9-16.98,2.94-.61-2.25,1.2-3.31,2.41-4.52,28.94-29.01,57.92-57.99,86.93-86.93,1.21-1.21,2.27-3.01,4.52-2.41-.03,5.82-1.96,11.31-2.93,16.97-.36.67-.71,1.33-1.07,2Z"/>
  <path class="cls-17" d="m234.84,140.98c-.89.73-1.86,1.4-2.67,2.21-29.67,29.65-59.33,59.3-88.97,88.98-.81.81-1.47,1.78-2.21,2.67-.67.32-1.34.64-2.02.96-1.66.04-3.32.09-4.98.13-.32-.06-.64-.12-.97-.16.15-2.46,2.63-2.69,3.95-4.03,16.24-16.43,32.81-32.53,48.85-49.17,1.01-1.23,2.35-2.09,3.48-3.18.47-.49.96-.96,1.44-1.44,13.04-13.04,25.98-26.17,39.18-39.04,2.21-2.15,2.84-5.52,5.85-6.89.05.65.1,1.31.16,1.96-.05,1.66-.09,3.32-.14,4.97-.32.67-.63,1.35-.95,2.02Z"/>
  <path class="cls-8" d="m186.92,182.86c-5.43,6.75-11.99,12.41-18.04,18.57-9.79,9.96-19.76,19.75-29.58,29.68-1.88,1.9-3.89,3.5-6.27,4.67-3.02,0-6.04,0-9.05,0-3.11-.39-4.22-1.58-1.73-4.25,2.6-2.79,5.35-5.43,8.04-8.13,12.41-12.43,24.83-24.85,37.26-37.25,1.63-1.62,3.07-3.52,5.43-4.24,3-.58,6.02-.25,9.04-.37,1.75,0,3.53-.08,4.9,1.32Z"/>
  <path class="cls-17" d="m171.95,183.06c-16.03,16.15-32.05,32.31-48.11,48.42-1.63,1.63-3.28,2.96.13,4.29-1.65.03-3.31.05-4.96.08-.64,0-1.29-.02-1.93-.03-.36-.32-.71-.64-1.07-.96-.65-2.03.93-3.06,2.03-4.16,15.42-15.5,30.88-30.96,46.37-46.39.94-.94,1.91-1.85,3.23-2.26,1.59-.32,3.15-.47,4.32,1.02Z"/>
  <path class="cls-8" d="m166.95,183.07c-15.67,15.78-31.34,31.56-46.99,47.36-1.39,1.41-2.64,2.95-3.95,4.44-4.47.24-8.7-1-12.96-2.06-.54-2.45,1.45-3.54,2.77-4.87,14.23-14.31,28.51-28.57,42.8-42.84,1.4-1.4,2.77-2.87,4.85-3.32,4.52.17,9.23-1.63,13.49,1.28Z"/>
  <path class="cls-17" d="m151.98,183.06c-14.99,15.1-29.98,30.2-44.95,45.32-1.39,1.41-2.66,2.95-3.98,4.43-.34.04-.68.07-1.02.11-1.33-.34-2.66-.67-3.99-1.01-.36-.34-.73-.67-1.09-1.01,14.38-12.51,27.08-26.74,40.81-39.91,3.21-3.07,5.82-6.82,9.9-8.94,1.59-.32,3.15-.47,4.31,1.02Z"/>
  <path class="cls-8" d="m146.97,183.07c-15.33,15.44-30.66,30.88-45.97,46.34-1.16,1.17-2.5,1.54-4.05,1.49-3.18-.39-6.19-1.28-8.91-3.03-.64-2.25,1.18-3.31,2.38-4.52,12.85-12.94,25.75-25.82,38.66-38.7,1.17-1.17,2.36-2.35,4.06-2.78,4.18-.52,8.35-.71,12.52.11.55.22.99.58,1.31,1.08Z"/>
  <path class="cls-17" d="m132,182.93c-13.11,13.27-26.23,26.54-39.32,39.83-1.61,1.64-3.09,3.41-4.63,5.12-.33.03-.67.05-1,.08-1-.36-1.99-.73-2.99-1.09-.05-.3-.09-.61-.12-.92.19-1.43,1.21-2.33,2.14-3.26,12.76-12.8,25.54-25.58,38.34-38.34.94-.94,1.9-1.86,3.22-2.28,1.58-.35,3.11-.47,4.36.86Z"/>
  <path class="cls-8" d="m127,182.92c-13.95,14.75-28.26,29.14-43.07,43.03-3.48-.25-6.12-2.31-8.87-4.13-1.33-1.92.13-3.16,1.23-4.28,11.16-11.33,22.42-22.58,33.73-33.76.95-.94,2.05-1.67,3.4-1.98,4.57-.13,9.24-1.55,13.57,1.12Z"/>
  <path class="cls-17" d="m112.02,182.93c-11.22,11.39-22.46,22.76-33.65,34.17-1.35,1.37-3.24,2.43-3.3,4.72-.67-.29-1.34-.58-2.01-.86-.67-.36-1.35-.72-2.02-1.08-.03-.31-.07-.61-.1-.92.15-1.25.98-2.08,1.8-2.9,10.66-10.71,21.33-21.4,32.05-32.05.83-.82,1.71-1.58,2.86-1.94,1.58-.35,3.12-.47,4.36.86Z"/>
  <path class="cls-8" d="m107.02,182.92c-11.62,12.42-23.6,24.48-36.08,36.04-3.29-.66-5.42-3.11-7.86-5.09-1.24-1.64-.14-2.9.87-3.93,8.83-9.03,17.71-18.03,26.82-26.78.73-.7,1.65-1.11,2.65-1.35,4.58-.16,9.26-1.53,13.6,1.11Z"/>
  <path class="cls-17" d="m92.04,182.93c-8.56,8.73-17.14,17.44-25.68,26.2-1.35,1.38-3.24,2.44-3.28,4.74-.67-.33-1.33-.66-2-.98-.38-.76-1.06-1-1.84-1.08-.04-.32-.07-.64-.08-.96.13-1.25.94-2.1,1.75-2.92,7.94-8.01,15.91-15.98,23.92-23.92.83-.82,1.71-1.58,2.86-1.94,1.57-.34,3.11-.46,4.35.86Z"/>
  <path class="cls-8" d="m87.05,182.92c-8.87,9.73-18.22,18.99-27.89,27.93-2.83-1.82-5.06-4.25-7.14-6.85-.53-1.3.18-2.26.97-3.09,5.83-6.03,11.71-12.02,17.82-17.76.73-.68,1.63-1.1,2.62-1.34,4.58-.16,9.26-1.53,13.61,1.11Z"/>
  <path class="cls-17" d="m72.07,182.9c-5.5,5.67-11.01,11.33-16.48,17.03-1.25,1.3-2.37,2.71-3.56,4.07-.31-.04-.63-.07-.94-.07-.66-.68-1.33-1.35-1.99-2.03-.02-.32-.04-.64-.07-.96,5.64-7.72,12.75-14.01,19.85-20.31,1.73-.18,2.71.69,3.19,2.27Z"/>
  <path class="cls-8" d="m29.08,86.03c4.57-3.36,8.19-7.72,12.18-11.69,13.79-13.67,27.49-27.43,41.2-41.18,1.28-1.28,2.39-2.72,3.59-4.09,1-.65,2-1.3,3-1.95,5.34-1.24,10.31-3.91,15.93-4.04,1.38-.75,2.41-.59,2.05,1.22-.34,1.69-1.79,2.76-2.95,3.93-25.26,25.29-50.54,50.56-75.82,75.83-1.06,1.05-2.03,2.29-3.47,2.79-1.86.65-2.52-.03-1.68-1.9.12-5.62,2.81-10.58,4.03-15.92.65-1,1.3-2,1.95-3Z"/>
  <path class="cls-17" d="m23.1,104.96c.12.6.17,1.67.93,1.27,1.13-.61,2.04-1.67,2.97-2.6,25.55-25.53,51.1-51.06,76.55-76.69.78-.79,4.47-1.32,1.43-3.84,1.6-1.97,4.47,0,6.08-1.96.98.03,1.96.05,2.93.08.4,2.83-1.96,4.03-3.5,5.58-12.35,12.47-24.8,24.83-37.71,37.79,4.53.5,8.53.17,12.52.21,1.53.04,3.08-.01,4.41.96.41.44.47.92.16,1.44-.61.59-1.35.88-2.17,1.03-1.61.2-3.22.22-4.84.23-5.38.38-10.85-.93-16.13.98-1.06.64-1.53,1.71-2.06,2.75-12.9,13.87-26.65,26.91-40,40.35-.9.91-1.88,1.97-3.45,1.41,0,0-.22.1-.22.1.07-1.34.14-2.68.21-4.01,1.7-1.29.11-3.8,1.88-5.07Z"/>
  <path class="cls-8" d="m69.06,180.97c-6.3,7.04-12.91,13.75-20.03,19.96-2.6-1.8-4.62-4.1-5.95-6.97-1.37-2.17.32-3.46,1.53-4.7,6.39-6.56,12.84-13.05,19.44-19.4,1.21-1.16,2.58-3.59,4.82-1.1.76,4.06,1.15,8.12.19,12.21Z"/>
  <path class="cls-17" d="m68.08,167.94c-8.54,7.42-16.12,15.81-24.13,23.76-.52.52-.59,1.5-.87,2.26-.31-.03-.62-.06-.93-.07-.68-.99-1.37-1.98-2.05-2.98,0-.33,0-.66-.01-.99.36-1.95,1.9-3.04,3.16-4.31,6.75-6.79,13.46-13.6,20.34-20.26,1.3-1.26,2.49-3.99,5.17-1.81.56,1.59.64,3.1-.66,4.4Z"/>
  <path class="cls-8" d="m68.07,162.94c-7.74,7.58-15.48,15.17-23.24,22.73-1.52,1.48-3.16,2.84-4.75,4.25-2.02-2.42-3.99-4.87-5-7.93-1.27-2.39.55-3.74,1.88-5.08,8.85-8.97,17.73-17.92,26.77-26.69,1.29-1.25,2.91-4.51,5.34-.93.43,4.61,1.56,9.27-1,13.65Z"/>
  <path class="cls-17" d="m68.08,147.96c-11.2,10.1-21.46,21.15-32.14,31.78-.52.52-.58,1.49-.86,2.26-.3-.04-.61-.07-.92-.09-.4-.99-.8-1.98-1.2-2.97-.27-.67-.55-1.34-.82-2.01,10.5-10.96,21.38-21.54,32.15-32.24,1.11-1.1,2.4-3.08,4.46-1.11.56,1.58.64,3.09-.67,4.39Z"/>
  <path class="cls-8" d="m21.23,113.94c12.45-12.29,24.89-24.6,37.35-36.88,1.76-1.73,3.63-3.34,5.45-5.01,2.65,4.37,1.13,9.1,1.17,13.69-.54,2.22-2.22,3.64-3.74,5.16-11.61,11.63-23.23,23.25-34.86,34.86-.47.47-.92.96-1.43,1.38-1.12.95-2.26,2.49-3.81,1.79-1.38-.63-.73-2.4-.68-3.65.1-2.45-.57-4.96.41-7.36.04-1.33.09-2.66.13-3.99Z"/>
  <path class="cls-17" d="m21.1,117.93v11.29c14.82-14.57,28.87-28.38,42.93-42.19,1.38,1.22,1.26,2.76.93,4.34-.75,2.13-2.52,3.47-4.03,4.99-10.68,10.71-21.37,21.43-32.1,32.09-2.94,2.92-5.89,5.81-7.73,9.61-.32-.69-.64-1.39-.96-2.08-.02-1.66-.03-3.33-.05-4.99.62-4.33-1.02-8.83,1.03-13.05Z"/>
  <path class="cls-8" d="m85.05,66.04h-15.19c15.17-15.41,29.65-30.12,44.14-44.83.34-.07.68-.15,1.02-.23.98.03,1.97.07,2.95.11,3.08-.98,6.24-.27,9.35-.44,2.06-.11,2.19,1.05,1.36,2.54-.73,1.32-1.86,2.33-2.91,3.39-11.85,11.87-23.73,23.71-35.57,35.61-1.54,1.55-3.24,2.83-5.15,3.85Z"/>
  <path class="cls-17" d="m85.05,66.04c13.26-13.42,26.53-26.83,39.76-40.28,1.22-1.25,2.9-2.18,3.55-4.67-3.61,0-7,0-10.4,0,4.21-2.05,8.71-.4,13.04-1.03,1.66.02,3.33.04,4.99.06.69.32,1.38.64,2.06.96-3.55,1.83-6.42,4.49-9.22,7.31-11.17,11.27-22.41,22.46-33.64,33.67-1.4,1.39-2.64,2.98-4.46,3.89-.23.04-.46.08-.7.12-1.66,0-3.33-.02-4.99-.02Z"/>
  <path class="cls-8" d="m68.07,142.97c-10.39,10.22-20.77,20.46-31.18,30.66-1.38,1.35-2.44,3.25-4.75,3.3-2.2-2.61-2.98-5.86-4.01-8.99-.54-2.22,1.18-3.32,2.41-4.56,10.91-10.98,21.81-21.97,32.89-32.77,1.3-1.26,2.87-5.23,5.67-1.22.36,4.59,1.57,9.23-1.02,13.59Z"/>
  <path class="cls-17" d="m68.08,127.99c-13.74,12.89-27.05,26.22-39.96,39.95-.31-.03-.63-.08-.93-.14-.05-1.05.05-2.16-.99-2.87,0-.66-.02-1.32-.03-1.98,12.47-12.98,25.37-25.54,38.12-38.23,1.11-1.11,2.4-3.09,4.46-1.1.55,1.58.63,3.09-.67,4.38Z"/>
  <path class="cls-8" d="m68.07,122.99c-12.38,12.22-24.75,24.44-37.16,36.63-1.38,1.35-2.44,3.25-4.74,3.31-1.59-3.5-2.6-7.16-3.02-10.99.54-1.84,1.89-3.09,3.19-4.39,10.93-10.94,21.84-21.9,32.84-32.78,1.66-1.64,3.08-4.24,6.22-2.94,1.63,1.99,3.01,4.11,3.73,6.62.2,1.64.29,3.25-1.06,4.53Z"/>
  <path class="cls-17" d="m64.94,112.01c-2.28.12-3.33,2.02-4.7,3.37-12.38,12.17-24.73,24.38-37.09,36.57-.33-.35-.66-.71-.99-1.06-.03-.64-.06-1.29-.1-1.93.04-.34.09-.68.13-1.02.83-1.64,1.86-3.1,3.18-4.41,11.42-11.38,22.8-22.81,34.23-34.17,1.25-1.24,2.36-2.91,4.56-2.52,1.07,1.1,1.17,2.54,1.35,3.95-.02.49-.21.9-.57,1.23Z"/>
  <path class="cls-8" d="m64.02,107.01c-12.36,12.21-24.71,24.43-37.08,36.62-1.52,1.5-3.17,2.88-4.76,4.32-1.21-3.2-1.16-6.54-1.1-9.88.03-1.82-.01-3.58,1.49-5.06,13.84-13.63,27.64-27.3,41.45-40.96,2.24,4.99,2.25,9.98,0,14.97Z"/>
  <path class="cls-8" d="m90,67.09c.01-.34.02-.68.04-1.02,0,0,.02-.02.02-.02,6.53-.69,10.3-5.49,14.49-9.69,8.8-8.83,17.55-17.72,26.49-26.41,2.87-2.79,4.98-6.19,7.95-8.85,3.08-.4,5.99.61,8.96,1.08.56,1.79-.74,2.81-1.75,3.83-12.66,12.74-25.32,25.47-38.1,38.09-.59.59-1.33.99-2.33,1.55,1.75-.87,3.35-.83,4.94-.88,1.86.05,3.77-.18,5.35,1.15.19.59.05,1.09-.4,1.52-2.36,1.44-4.98.91-7.52,1.06-1.69-.14-3.37.05-5.06,0-3.62-.18-7.26.18-10.88-.23-.57-.09-1.1-.29-1.59-.57-.2-.2-.4-.4-.61-.6Z"/>
  <path class="cls-8" d="m138.99,21.11c-.82,3.16-2.86,5.44-5.13,7.68-10.93,10.82-21.9,21.62-32.59,32.68-3.24,3.35-6.5,5.45-11.22,4.59,12.33-12.5,24.65-24.99,36.99-37.49,1.63-1.65,3.38-3.2,4.89-4.95,1.66-1.92,3.6-2.83,6.11-2.53.31-.03.63-.02.94.02Z"/>
  <path class="cls-17" d="m110.03,66c-1.4-.14-2.9.55-4.53-.67,14.2-14.44,28.32-28.79,42.44-43.14.34-.04.69-.09,1.03-.13.64.03,1.28.06,1.91.09.36.33.72.66,1.08.99.59,2.24-1.22,3.29-2.42,4.51-11.67,11.76-23.41,23.44-35.1,35.18-1.31,1.32-2.81,2.29-4.41,3.17Z"/>
  <path class="cls-8" d="m110.03,66c12.55-12.7,25.1-25.38,37.63-38.09,1.5-1.52,2.87-3.17,4.3-4.76,3.83.41,7.48,1.43,10.99,3.02,1.39,2.17-.35,3.44-1.54,4.64-11.26,11.41-22.54,22.79-34.01,33.98-3.32,3.24-7.3,3.42-11.38,1.3-2-.03-3.99-.06-5.99-.09Z"/>
  <path class="cls-17" d="m116.02,66.09c6.11,1,10.45-1.5,14.64-5.99,9.36-10.02,19.31-19.49,28.98-29.22,1.36-1.36,3.25-2.43,3.31-4.72.66.01,1.32.03,1.98.04.47.74,1.21.9,2.01.91.04.29.06.59.07.88.71,2.25-1.11,3.32-2.31,4.53-10.61,10.69-21.24,21.37-32.03,32.03,2.96,1.44,7.08-1.58,9.43,2.29-.31.49-.71.85-1.24,1.09-8.09.87-16.17,1.36-24.23-.28-.21-.22-.43-.44-.64-.66,0-.3,0-.6,0-.9Z"/>
  <path class="cls-8" d="m141.98,66.07h-12.15c12.85-13.16,25.01-25.62,37.18-38.08,3.75.32,6.66,2.64,9.92,4.14,1.11,1.39.35,2.61-.58,3.53-10.45,10.42-20.34,21.42-31.59,31.04-1.04.28-1.99.17-2.78-.64Z"/>
  <path class="cls-17" d="m144.99,66c9.55-9.7,19.12-19.38,28.64-29.11,1.35-1.38,3.26-2.44,3.32-4.75.67.27,1.34.55,2.01.82.99.4,1.98.81,2.97,1.21.02.3.05.61.08.91-9.65,10.09-19.66,19.82-29.57,29.66-2.1,2.08-4.51,3.54-7.44,1.27Z"/>
  <path class="cls-8" d="m213.86,63.08c2.08,2.37,4.03,4.83,5.11,7.86.63,2-.87,3.06-1.97,4.18-5.89,5.99-11.78,11.98-17.86,17.78-1.25,1.2-2.63,4.15-5.08,1.17-.85-4.31-.61-8.63-.18-12.96,4.48-7.01,11.06-12.04,16.88-17.79.83-.82,1.99-1.2,3.11-.24Z"/>
  <path class="cls-17" d="m194.93,95.02c8.4-7.64,16.48-15.6,24.03-24.09.31.05.62.08.93.11.35.67.71,1.34,1.07,2.01.29.67.57,1.34.86,2.01-7.44,8.01-15.35,15.55-23.11,23.24-1.12,1.11-2.41,3.09-4.47,1.11-.57-1.59-.64-3.1.7-4.38Z"/>
  <path class="cls-17" d="m213.86,63.08c-3.98,1.01-5.76,4.69-8.55,7.14-3.58,3.14-6.93,6.54-10.37,9.83-1.36-1.26-1.23-2.81-.87-4.41,4.07-5.89,9.57-10.41,14.7-15.3.6-.57,1.43-.82,2.28-.35.29,0,.58,0,.87.01.33.36.65.71.98,1.07.32.67.65,1.34.97,2.01Z"/>
  <path class="cls-8" d="m144.99,66c3.02.51,5.27-.57,7.44-2.79,8.17-8.4,16.51-16.63,24.82-24.88,1.37-1.36,2.46-3.21,4.75-3.25,3.06,1.01,5.52,2.98,7.94,5.01.59,2.48-1.46,3.54-2.77,4.88-5.46,5.59-11.04,11.06-16.53,16.61-1.71,1.73-4.11,3.1-3.52,6.17-1.5.7-3.09.71-4.69.71-4.5.09-9.01.1-13.51.05-1.62-.11-3.26-.09-4.88-.3-.54-.09-1.04-.27-1.52-.53-.19-.19-.38-.38-.57-.57.01-.34.03-.68.04-1.02,1-.02,2-.05,3-.07Z"/>
  <path class="cls-17" d="m167.95,67c-2.4-.99-2.56-1.98-.58-3.94,7.62-7.56,15.06-15.3,22.57-22.98.33,0,.66.01.99.02.99.68,1.98,1.37,2.98,2.05.02.31.04.62.07.92-7.06,7.69-14.78,14.74-21.87,22.17,4.31-.87,8.8-.2,13.25-.5,1.59.02,3.19-.09,4.77.25,1.02.43,2.28.69,1.76,2.3-1.2,1-2.65,1.11-4.11,1.16-2.61-.04-5.22.15-7.83,0-3.8-.18-7.67.7-11.37-.83-.21-.21-.41-.43-.62-.64Z"/>
  <path class="cls-8" d="m184.93,66.04h-13.78c-.88-1.39.28-1.92.89-2.53,6.05-6.1,12.14-12.17,18.21-18.25,1.05-1.05,2.03-2.22,3.72-2.19,2.52,1.76,5.32,3.18,6.98,5.96.4.85.18,1.67-.4,2.26-4.99,5.14-9.47,10.83-15.62,14.75Z"/>
  <path class="cls-17" d="m184.93,66.04c5.34-5.67,10.68-11.34,16.01-17.01.32.03.64.05.96.07.67.66,1.34,1.32,2.01,1.98.02.32.05.64.07.96-3.76,5.6-8.52,10.18-14.05,14.01h-5.01Z"/>
  <path class="cls-8" d="m189.94,66.05c4.28-5.08,8.92-9.79,14.05-14.01,2.72,2.33,5.7,4.42,7.06,7.95-5.37,5.02-10.74,10.04-16.11,15.06-1.39-1.13-1.08-2.91-1.7-4.34-.38-1.26-1.27-2.34-1.31-3.72-.45-.76-1.19-.91-1.99-.94Z"/>
  <path class="cls-8" d="m235.78,132.02c-.81,3.56-3.3,5.92-5.77,8.35-13.04,12.83-26.05,25.69-39.07,38.55-2.95-6.93-1.71-14.53,3.26-19.52,11.58-11.61,23.18-23.2,34.78-34.79.47-.47.92-.96,1.42-1.39,1.23-1.06,2.39-2.81,4.14-2.23,1.69.56.2,2.8,1.24,3.97v7.06Z"/>
  <path class="cls-17" d="m235.79,124.96c-1.23-.69-.6-2.15-1.3-3.16-1.73-.02-2.38,1.52-3.35,2.48-11.76,11.69-23.34,23.56-35.27,35.06-3.64,3.51-5.68,7.02-4.99,12.12.33,2.44.06,4.97.07,7.45-.29.34-.58.67-.87,1.01-1.32-1.03-1.61-2.53-1.61-4.03-.03-18.61-.57-37.23.27-55.84.25-.95.67-1.78,1.63-2.22.64.14,1.1.52,1.38,1.12.75,1.72.48,3.58.67,5.38.01,4.66.06,9.32-.06,13.97.11,1.62-.06,3.24-.07,4.85-.23,4.46.06,8.93-.28,13.5,12.65-12.71,25.3-25.35,37.98-37.96,1.33-1.32,2.45-3.29,4.89-2.71.32.36.64.72.97,1.08,0,.64.02,1.28.03,1.91-.02,1.99-.05,3.97-.07,5.96Z"/>
  <path class="cls-8" d="m234.86,116c-13.08,12.91-26.15,25.83-39.24,38.73-1.26,1.24-2.57,2.43-4.68,4.43v-15.19c1.01-1.92,2.34-3.57,3.88-5.11,10.93-10.88,21.8-21.82,32.76-32.67,1.44-1.42,2.55-3.65,5.22-3.15,1.07,4.26,2.3,8.49,2.06,12.96Z"/>
  <path class="cls-17" d="m232.81,103.04c-12.25,12.09-24.48,24.19-36.75,36.27-1.64,1.62-3.41,3.11-5.12,4.66,0-1.67,0-3.35,0-5.02,1.07-2.08,2.59-3.8,4.25-5.44,9.04-8.99,18.03-18.04,27.07-27.03,3.05-3.03,6.05-6.09,8.64-9.53.33.36.67.71,1,1.07-.18,1.46.31,2.75,1.02,3.99-.04.34-.08.68-.12,1.02Z"/>
  <path class="cls-8" d="m230.91,96.96c.06,1.55-.31,2.88-1.48,4.03-12.84,12.64-25.66,25.31-38.48,37.96,0-4.99,0-9.97,0-14.96.97-1.74,2.1-3.34,3.53-4.76,9.53-9.47,18.99-19.01,28.54-28.45,1.32-1.31,2.38-3.36,4.86-2.75,1.75,2.72,2.64,5.74,3.03,8.92Z"/>
  <path class="cls-17" d="m227.88,88.04c-10.02,9.85-20.02,19.71-30.06,29.55-2.24,2.19-4.58,4.28-6.87,6.41,0-1.67,0-3.35,0-5.02,10.71-12.64,22.4-24.3,35.01-35.05.31.03.62.07.92.13.36.99.72,1.98,1.08,2.97-.03.33-.05.67-.08,1Z"/>
  <path class="cls-8" d="m225.95,83.93c-11.22,12.13-22.93,23.77-35.01,35.05-.01-.35-.03-.7-.04-1.05-.63-3.25,1.97-5.66,2.24-8.67,1.17-2.97-.68-6.52,1.8-9.23,7.39-7.23,14.76-14.48,22.18-21.68,1.37-1.33,2.41-3.22,4.7-3.29,1.22,3.03,3.85,5.4,4.14,8.87Z"/>
  <path class="cls-16" d="m189.96,118.79c.03,20.38.07,40.76.1,61.14-1.05.98-2.1,1.95-3.15,2.93-1.69-.06-3.38-.12-5.07-.18-1.05-1-1.26-2.31-1.26-3.64.09-18.66-.49-37.32.28-55.97,1.99-3.63,5.19-4.69,9.09-4.28Z"/>
  <path class="cls-21" d="m181.95,121.91c-.03,20.26-.07,40.51-.1,60.77-3.3.13-6.6.26-9.9.39-1.67,0-3.34,0-5,0-4.99,0-9.98,0-14.97,0-1.67,0-3.34,0-5,0-.36-.1-.72-.21-1.07-.31-.21-.58-.05-1.04.46-1.38.98-.56,2.06-.71,3.17-.76,1.68-.04,3.35-.18,5.04-.1,4.66-.12,9.32-.1,13.97-.09,1.65.19,3.31,0,4.96.05q5.99.04,6.01-5.91c-.07-1.67.13-3.34-.07-5.01-.03-4.78-.01-9.57.04-14.35-.19-1.8.18-3.61-.04-5.41-.03-4.8-.03-9.6.06-14.39-.18-1.76.13-3.53,0-5.29.09-2.61-.35-5.29.92-7.76.4-.53.91-.68,1.53-.45Z"/>
  <path class="cls-14" d="m145.98,181.91c-.05.28-.08.57-.08.85-4.64.06-9.27.11-13.9.17-1.67,0-3.33,0-5,0-4.99,0-9.99,0-14.98,0-1.67,0-3.33,0-5,0-4.99,0-9.99,0-14.98,0-1.67,0-3.33,0-5,0-4.99,0-9.99-.01-14.98-.02-1-.64-2.01-1.28-3.01-1.93-1.79-4.23-.47-8.7-.98-13.03,0-1.66,0-3.33-.01-4.99,0-4.99,0-9.99,0-14.98,0-1.66,0-3.33-.01-4.99,0-4.99,0-9.99.01-14.98,0-1.66,0-3.33-.01-4.99.05-1.61.1-3.22.15-4.83,4.55,1.44,9.63,1,13.79,3.89,1.1,11.75.07,23.52.56,35.26.04.56-.04,1.11-.24,1.63-.09.82-2.6,1.3-.37,2.43.58.29,1.31.16,1.97.16,15.43.01,30.86.05,46.29-.07,1.13,0,4.65,1.22,2.3-2.48-.3-.48-.51-.98-.66-1.52-.72-4.73-.24-9.48-.32-14.22-.18-1.78.17-3.56-.03-5.34.03-4.66-.11-9.32.14-13.98.02-.83.17-1.63.45-2.41,3.51-3.77,7.03-7.54,9.99-11.78,2.28.47,1.95,2.77,2.94,4.16.84,1.72,1.94,3.34,2.2,5.3.55,8.14.21,16.29.2,24.44.21,1.82-.18,3.64.05,5.46.06,4.86,0,9.72-.04,14.58.2,1.83-.2,3.67.06,5.5-.4,4.25,1.15,8.74-1.51,12.73Z"/>
  <path class="cls-10" d="m88.05,67.05c.65.01,1.3.02,1.95.03,0,0,.21.08.21.08,2.16,4.07,1.04,8.39.93,12.62-.62,2.38-2.48,3.85-4.1,5.47-5.83,5.86-11.61,11.78-17.59,17.48-1.19,1.14-2.42,3.98-4.85,1.32-.02-4.24,0-8.48-.01-12.71-.01-.85.13-1.74.69-2.33,7.35-7.57,14.14-15.72,22.77-21.98Z"/>
  <path class="cls-11" d="m65.05,69.03c.95-2.05,2.77-2.04,4.63-2.02,4.46.04,8.91.04,13.37.06.54,1.31-.23,2.26-1.01,3.08-4.41,4.68-8.93,9.27-13.68,13.6-.91.83-2.67,3.57-3.78-.13.29-4.86-.57-9.76.46-14.59Z"/>
  <path class="cls-2" d="m65.09,85.04c6.38-5.6,12.38-11.58,17.96-17.97,1.67,0,3.33,0,5-.01-7.24,8.08-14.91,15.72-22.97,22.98-.76-1.66-.77-3.33,0-4.99Z"/>
  <path class="cls-7" d="m65.09,85.04c0,1.66,0,3.33,0,4.99,0,4.99,0,9.99,0,14.98,1.34,1.38,1.31,3.02.91,4.73-.19.54-.52.99-.99,1.33-1.35-1.11-.79-2.68-.99-4.07,0-4.99,0-9.98,0-14.97,0-1.67,0-3.34,0-5,0-4.99,0-9.98,0-14.97.09-1.09-.12-2.29,1.02-3.02.01,5.34.03,10.67.04,16.01Z"/>
  <path class="cls-13" d="m65.01,111.07c.03-.36.06-.72.09-1.08,4.82-7.4,11.99-12.61,17.84-19.04,1.33-1.46,2.69-2.91,4.29-4.08,1.4-1.02,2.9-1.99,3.84.56.74,7.14.2,14.29.33,21.43-.38,5.91-2.83,10.42-8.62,12.65-.56.08-1.08-.03-1.55-.33-4.84,1.17-9.11-.16-13.02-3.02-1.22-1.98-2.88-3.73-3.28-6.15.06-.31.08-.62.07-.94Z"/>
  <path class="cls-1" d="m108.02,67.07c2.66-.03,5.33-.05,7.99-.08,0,0,.14.07.14.07,1.6,2.2,1.28,4.62.85,7.06-1.64,3.8-5.07,6.05-7.79,8.89-4.47,4.67-9.05,9.23-13.72,13.69-1.27,1.21-2.39,3.41-4.84,1.98-1.99-10.89,1.34-19.57,10.42-26.13,2.38-1.72,4.21-4.2,6.96-5.49Z"/>
  <path class="cls-24" d="m108.02,67.07c-3.99,4.16-7.75,8.58-12.05,12.39-3.79,3.35-5.66,7-4.97,12.07.33,2.43.1,4.94.13,7.42,1.37,1.31,1.15,3.04,1.27,4.68-.02,1.9.1,3.83-.63,5.66-.26.53-.69.82-1.28.85-.16-8.03-.32-16.06-.47-24.1-1.57-1.67-.91-3.33.02-4.99.06-4.63.12-9.25.18-13.88.28-.01.56.01.84.08,1.9,3.36,1.58,6.72.55,9.87,3.71-2.94,6.58-7.65,11.43-10.06,1.66,0,3.33,0,4.99.01Z"/>
  <path class="cls-1" d="m103.03,67.06c-3.21,4.25-7.28,7.64-11.98,12.36,0-4.8,0-8.48,0-12.17,3.98-.7,7.98-.37,11.98-.19Z"/>
  <path class="cls-29" d="m115.92,75.06c.08-2.67.16-5.33.24-8,8.6.01,17.19.02,25.79.03,0,0,.21.08.21.08.47.66.5,1.36.25,2.1-6.34,7.61-13.76,14.17-20.71,21.18-2.53,2.55-3.9,5.22-3.31,8.8-.25,3.9.95,7.93-1.09,11.65-.55.39-1.08.38-1.61-.04-1.96-3.39-.81-7.09-1.12-10.65-.17-1.8.18-3.6-.05-5.4-.03-4.83-.02-9.66.07-14.49-.18-1.91.49-3.61,1.34-5.26Z"/>
  <path class="cls-20" d="m194.94,100.02c-.45,3.33.93,6.83-.94,10.02-2.26-2.27-1.24-5.18-1.53-7.84-.17-1.8.18-3.61-.05-5.41-.03-4.81-.02-9.62.05-14.44-.19-1.81.17-3.61-.03-5.42.12-2.4-.44-4.96,1.57-6.94,1.51,1.46.68,3.35.92,5.04,0,1.67,0,3.33,0,5,0,4.99,0,9.98,0,14.98,0,1.67,0,3.33,0,5Z"/>
  <path class="cls-27" d="m147.98,67.06c4.99,0,9.99,0,14.98-.01.15.31.33.71.17.93-5.04,7.24-11.77,12.86-18.19,18.76-.96.88-2.16.79-2.82-.66-.86-4.32-.62-8.66-.18-13,.99-3.03,3.46-4.58,6.03-6.03Z"/>
  <path class="cls-24" d="m143.05,72.05c0,4.98,0,9.96,0,14.95,1.27,1.22,1.17,2.83,1.25,4.39-.06,4.11-.18,8.22.02,13.01,6.51-6.47,12.52-12.6,18.67-18.59,1.43-1.39,2.63-3.62,5.32-2.64.93,1.37.87,2.84.47,4.34-3.09,4.96-7.81,8.4-11.74,12.59-4.38,4.67-9.28,8.85-13.11,14.03-1.42-1.03-.72-2.98-1.78-4.17-2.76-3.03-1.36-6.76-1.69-10.2-.17-1.77.14-3.55.07-5.33-.23-1.84.19-3.68-.05-5.52-.05-4.86-.02-9.72.06-14.59-.16-1.92.46-3.63,1.42-5.25.06-.63.12-1.26.19-1.89.28,0,.56.03.83.09,1.48,1.57.94,3.18.07,4.79Z"/>
  <path class="cls-24" d="m143.08,92.03c-.01-1.68-.02-3.36-.03-5.04,7.03-6.26,13.69-12.88,19.91-19.94,1.66-.02,3.32-.04,4.99-.06,0,0,.12.06.12.06.26.42.32.87.16,1.34-6.87,7.99-14.7,15.05-22.1,22.52-.79.8-1.73,1.59-3.05,1.12Z"/>
  <path class="cls-24" d="m143.05,72.05c-.02-1.6-.05-3.19-.07-4.79,1.64-.59,3.32-.39,5-.2-1.25,2.04-2.94,3.66-4.92,4.99Z"/>
  <path class="cls-11" d="m194.01,70.01c-.04,2.35-.09,4.7-.13,7.05-4.74,7.28-11.76,12.43-17.54,18.74-1.45,1.58-2.92,3.17-4.66,4.44-1.18.86-2.54,1.95-3.62-.22-.79-4.25-.79-8.48.38-12.67,0-.84.15-1.72.71-2.31,6-6.26,11.52-13.02,18.77-17.98,1.33-.02,2.67-.04,4-.07,1.22.65,1.95,1.63,2.08,3.02Z"/>
  <path class="cls-6" d="m168.98,86.02c0,5,0,9.99,0,14.99,1.42,1.34,1.21,3.12,1.35,4.82-.01,1.72.02,3.46-1,4.99-.47.44-.99.53-1.58.26-.85-.92-1.03-2.08-1.15-3.26-.16-1.77.07-3.55-.14-5.33.33-4.82-1.04-9.81,1.4-14.43,0-1.67,0-3.33,0-5-2.37-4.99-1.97-9.98,0-14.98.07-.34.14-.68.22-1.02,3.96,0,7.91,0,11.87,0,1.38,2.61-.73,3.98-2.15,5.35-3.99,3.88-8.12,7.61-8.81,13.61Z"/>
  <path class="cls-2" d="m168.98,86.02c-.69-4.57.47-8.13,4.41-11.15,2.61-2.01,5.78-4.04,6.55-7.8,2.66,0,5.33,0,7.99,0-5.9,6.74-12.23,13.04-18.94,18.96Z"/>
  <path class="cls-11" d="m193.88,102.03c.04,2.67.08,5.35.12,8.02.03,3.04-1.94,5.3-3.1,7.88-.31.29-.63.58-.94.86-2.67,1.04-5.34,2.08-8.01,3.12,0,0-.49-.06-.49-.06l-.49.06c-1.76.97-3.35.29-4.93-.48-.36-.35-.58-.78-.67-1.28.22-2.79,2.51-4.16,4.18-5.9,3.2-3.33,6.47-6.61,9.82-9.8,1.24-1.19,2.27-2.99,4.51-2.41Z"/>
  <path class="cls-22" d="m145.98,181.91c0-4.32,0-8.65.01-12.97,1.03-1.91,2.36-3.58,3.91-5.12,8.61-8.55,17.15-17.18,25.79-25.71,1.44-1.43,2.58-3.61,5.23-3.12,0,4.99,0,9.98,0,14.97-1.06,2.1-2.6,3.81-4.26,5.46-7.43,7.37-14.83,14.77-22.2,22.2-1.65,1.66-3.34,3.23-5.47,4.25-1,.01-2,.02-3,.03Z"/>
  <path class="cls-25" d="m176.2,120.89c1.59.34,3.18.68,4.78,1.01-.02,2.69-.04,5.39-.06,8.08-1.02,1.92-2.35,3.58-3.9,5.12-8.62,8.55-17.16,17.18-25.79,25.71-1.44,1.43-2.58,3.61-5.23,3.12,0-4.99,0-9.99,0-14.98,1.97-3.98,5.51-6.61,8.51-9.68,5.35-5.47,10.75-10.88,16.24-16.2,1.45-1.41,2.79-3.6,5.46-2.18Z"/>
  <path class="cls-22" d="m168.96,181.87c-4.99,0-9.98,0-14.97,0-.6-1.79.72-2.79,1.72-3.8,7.08-7.2,14.22-14.34,21.41-21.41,1.01-.99,2-2.33,3.8-1.7,0,4.99,0,9.98,0,14.97-3.1,4.86-7.07,8.86-11.95,11.94Z"/>
  <path class="cls-19" d="m145.99,163.94c9.58-9.41,19.14-18.84,28.74-28.23,2.01-1.96,4.12-3.82,6.19-5.72,0,1.67,0,3.33,0,5-9.58,9.41-19.14,18.84-28.74,28.23-2.01,1.96-4.12,3.82-6.19,5.72,0-1.66,0-3.33,0-4.99Z"/>
  <path class="cls-19" d="m180.92,154.96c-9.39,8.56-18.34,17.56-26.93,26.92-1.67,0-3.33,0-5,0,10.26-11.02,20.89-21.68,31.93-31.91,0,1.67,0,3.33,0,5Z"/>
  <path class="cls-19" d="m168.96,181.87c3.61-4.35,7.58-8.35,11.95-11.94,0,1.67,0,3.33.01,5-1.6,3.04-3.88,5.4-6.97,6.95-1.67,0-3.33,0-5,0Z"/>
  <path class="cls-12" d="m173.96,181.88c1.94-2.7,4.25-5.03,6.97-6.95q.06,7.04-6.97,6.95Z"/>
  <path class="cls-22" d="m133.01,122.99v14.98c-5.82,7.84-12.93,14.41-20.31,20.72-3.59.92-7.25.43-10.88.45-1.44,0-3.25.14-3.81-1.59-.45-1.38.75-2.46,1.64-3.42,2.83-3.02,5.82-5.89,8.74-8.82,6.43-6.45,12.84-12.92,19.35-19.3,1.45-1.42,2.61-3.61,5.26-3.03Z"/>
  <path class="cls-25" d="m168.12,110.94c.26.07.51.14.77.23,1.7,1.59,2.32,3.86,3.56,5.74.13.46.17.93.13,1.4-.72,2.55-2.83,4.01-4.55,5.75-5.69,5.76-11.4,11.5-17.19,17.16-1.33,1.3-2.39,3.34-4.85,2.74,0-8.67-.02-17.34-.03-26.01,1.76-.64,2.88.85,4.33,1.25,2.25.68,4.45,1.72,6.9.92,5.74-.58,7.69-5.64,10.93-9.19Z"/>
  <path class="cls-15" d="m149.9,120.04c-1.69,0-2.54-1.55-3.95-2.08-.68-1.28-1.35-2.55-2.03-3.83-.03-1.55.3-2.91,1.48-4.07,7.5-7.31,14.96-14.66,22.44-22,0,4.99-.01,9.98-.02,14.98-4.27,6.66-10.35,11.58-16.09,16.82-.45.42-1.18.59-1.84.18Z"/>
  <path class="cls-11" d="m141.97,94.04c.06,5.31.12,10.61.18,15.92-1.37,5.1-4.53,8.73-9.13,11.19-1.4,1.28-2.99,2.1-4.95,2.04-3.91-.36-6.89-2.15-8.73-5.7-.43-1.83.4-3.26,1.59-4.48,5.88-6.08,11.85-12.08,17.96-17.94.82-.78,1.76-1.6,3.08-1.03Z"/>
  <path class="cls-19" d="m116.18,110.95c.26.06.51.13.77.22.4.24.71.56.95.95.77,1.64,1.59,3.27,1.28,5.18-3.54,5.07-8.39,8.91-12.65,13.3-6.24,6.43-12.59,12.75-19,19-2.32,2.26-4.19,4.66-4.94,7.85-.17.16-.34.32-.51.49-1.4-1.14-.87-2.74-.88-4.15-.02-10.87,0-21.73.03-32.6.27-.09.55-.11.83-.06,1.53,1.46,1.04,3.36,1.11,4.98,3.3-3.11,5.3-7.96,10.75-8.59.71.29,1.22.79,1.56,1.46.56,1.88-.57,3.14-1.66,4.39-.98,1.12-1.97,2.27-3.14,3.17-6.17,4.75-9.18,10.7-6.97,18.65,7.88-8.31,16.56-16.11,24.3-24.83,3.38-2.56,5.31-6.39,8.17-9.4Z"/>
  <path class="cls-26" d="m132.74,158.69c1.43.62,4.32-.68,3.92,2.3-.31,2.39-2.74,1.93-4.49,1.93-16.54.02-33.09.04-49.63-.02-1.82,0-4.72.86-4.89-1.85-.19-2.91,2.91-1.76,4.6-2.3,4.76-2.18,9.78-1.45,14.62-.84,5.79.73,11.49.63,17.26.12,6.21-.55,12.48-1.48,18.61.67Z"/>
  <path class="cls-3" d="m132.74,158.69c-16.83.02-33.66.03-50.49.05-.09-.27-.15-.54-.16-.82,0,0,.07-.07.07-.07.92-.82,2.07-1.22,3.22-1.04,5.42.83,8.91-2.09,12.39-5.7,8.03-8.33,16.34-16.39,24.48-24.62,1.76-1.77,3.65-3.31,5.79-4.58,1.66-.26,3.33-.51,4.99-.76,0,.61,0,1.23,0,1.84-11.14,11.69-22.28,23.38-33.25,34.88h13.26c1.65-.88,3.37-1.5,5.28-1.35,4.82.44,9.87-1.43,14.45,1.42.03.25.02.5-.02.75Z"/>
  <path class="cls-19" d="m145.99,143.96c9.06-8.27,17.75-16.9,25.97-26,2.01-.62,2.91.87,3.95,2.09.09.28.18.56.28.84-2.26.05-3.42,1.81-4.81,3.17-8.48,8.29-16.93,16.6-25.4,24.9,0-1.66,0-3.33,0-4.99Z"/>
  <path class="cls-22" d="m132.76,157.94c-4.9-.02-9.8-.04-14.7-.06-.58-1.56.5-2.51,1.37-3.43,3.3-3.47,6.68-6.85,10.15-10.14.92-.87,1.86-1.98,3.42-1.34.06,4.99.51,9.99-.25,14.97Z"/>
  <path class="cls-19" d="m133.01,142.96c-5.41,4.55-10.35,9.55-14.95,14.91-1.68,0-3.36,0-5.04,0,6.32-6.98,12.9-13.69,19.98-19.9,0,1.66,0,3.33,0,4.99Z"/>
  <path class="cls-2" d="m90.03,81.05c0,1.66-.01,3.33-.02,4.99-6.95,6.79-13.89,13.6-20.86,20.37-1.29,1.26-2.7,2.39-4.05,3.59,0-1.66-.01-3.32-.02-4.98,6.84-6.68,13.67-13.37,20.53-20.03,1.41-1.37,2.94-2.63,4.41-3.94Z"/>
  <path class="cls-18" d="m93.87,118.01c-4.88,1.64-6.8,6.89-11.81,9.61,0-2.44,0-4.47,0-6.5,4.35-2.48,7.41-5.95,8.42-10.98,0,0,.43-.02.43-.02,1.73,1.36,1.53,3.72,2.77,5.33.37.83.92,1.66.18,2.56Z"/>
  <path class="cls-24" d="m115.92,75.06c0,1.67,0,3.33,0,5-2.91,5.33-7.91,8.75-11.91,13.09-2.68,2.9-5.52,5.66-8.39,8.38-1.25,1.19-2.28,2.96-4.49,2.48,0-1.69,0-3.38-.01-5.07,6.92-6.76,13.84-13.53,20.78-20.28,1.29-1.25,2.67-2.41,4.01-3.61Z"/>
  <path class="cls-1" d="m91.14,104.02c8.26-7.99,16.52-15.97,24.78-23.96,0,4.99-.01,9.98-.02,14.97-5.41,8.01-13,13.95-19.73,20.7-.82.82-1.98,1.25-3.11.26-1.78-1.57-2.2-3.64-2.14-5.88.07-2.03.15-4.06.23-6.09Z"/>
  <path class="cls-11" d="m117.13,112c-.17-.26-.23-.54-.18-.84.03-4.38.06-8.77.09-13.15,5.26-7.73,12.69-13.41,19.03-20.11,1.58-1.68,2.82-4.27,5.88-3.85,0,4.99.01,9.99.02,14.98-6.16,8.57-14.34,15.21-21.72,22.62-.8.8-1.95,1.37-3.12.35Z"/>
  <path class="cls-1" d="m116.18,110.95c-.91,4.36-3.68,7.33-7.25,9.71-3.91,3.32-7.85,2.75-11.82.12-1.14-1.44-.76-2.91.31-4.07,5.29-5.72,10.65-11.37,16.6-16.43.53-.45,1.21-.47,1.88-.24.09,3.63.19,7.27.28,10.9Z"/>
  <path class="cls-2" d="m141.95,74.06c-6.95,6.79-13.89,13.6-20.86,20.37-1.29,1.26-2.7,2.39-4.05,3.59-.46-3.03.59-5.32,2.86-7.46,7.45-7.06,14.72-14.31,22.06-21.49,0,1.66-.01,3.33-.02,4.99Z"/>
  <path class="cls-24" d="m115.9,100.05c-6.52,6.34-13.74,12.01-18.85,19.71-1.05.98-1.43-.15-2.02-.64-.39-.37-.77-.74-1.16-1.11-.27-.67-.54-1.34-.81-2.01,2.31-.04,3.36-1.95,4.74-3.29,6.06-5.86,12.07-11.77,18.1-17.67,0,1.67,0,3.34,0,5.01Z"/>
  <path class="cls-11" d="m171.84,117.04c-1.96-1.47-2.83-3.48-2.95-5.87.03-1.72.06-3.44.1-5.16,5.25-7.73,12.68-13.4,19.02-20.1,1.58-1.68,2.82-4.26,5.88-3.85,0,4.99,0,9.99,0,14.98-5.21,7.62-12.39,13.36-18.88,19.75-.84.83-2.03,1.17-3.17.25Z"/>
  <path class="cls-2" d="m193.87,82.05c-6.95,6.79-13.88,13.59-20.85,20.37-1.29,1.26-2.7,2.39-4.05,3.59,0-1.67,0-3.33,0-5,6.95-6.79,13.89-13.59,20.86-20.36,1.29-1.26,2.7-2.4,4.05-3.59,0,1.66,0,3.33,0,4.99Z"/>
  <path class="cls-28" d="m171.84,117.04c2.28-.04,3.37-1.87,4.75-3.21,5.78-5.58,11.53-11.2,17.29-16.8,0,1.66,0,3.33,0,4.99-6.36,5.64-12.42,11.57-17.96,18.02-1.69,0-2.55-1.55-3.95-2.09-.05-.31-.09-.61-.12-.92Z"/>
  <path class="cls-23" d="m167.85,68.08c0,4.99,0,9.98,0,14.98-8.01,7.79-16.01,15.57-24.77,24.09,0-5.7,0-10.41,0-15.11,8.26-7.99,16.52-15.97,24.78-23.95Z"/>
  <path class="cls-28" d="m117.13,112c2.27-.11,3.31-2,4.69-3.34,6.74-6.51,13.43-13.08,20.14-19.63,0,1.67,0,3.33,0,5-6.96,6.8-13.94,13.59-20.84,20.45-.63.63-.78,1.75-1.16,2.64-.34.22-.63.15-.87-.17-.6-1.67-2.07-3-1.97-4.95Z"/>
  <path class="cls-24" d="m149.9,120.04c5.98-5.67,11.95-11.34,17.93-17,0,1.67,0,3.34,0,5-1.56,3.56-4.77,5.7-7.24,8.48-1.27,1.43-3.13,2.42-3.44,4.57-2.67,1.37-4.95.08-7.26-1.05Z"/>
  <path class="cls-4" d="m157.16,121.09c-1.77-.19-1.94-.89-.69-2.09,3.79-3.65,7.58-7.3,11.37-10.96.09.97.18,1.94.28,2.9-1.65,5.55-4.56,9.73-10.96,10.15Z"/>
  <path class="cls-22" d="m119.1,116.95c.29.05.58.1.87.17,2.18,2.45,4.47,4.71,8.05,4.79-10.87,12.13-22.76,23.27-34.34,34.69-3.1,3.06-7.66.87-11.53,1.25-.04-1.96-.52-3.99,1.16-5.63,11.99-11.7,23.34-24.04,35.8-35.27Z"/>
  <path class="cls-18" d="m95.03,119.12c.67.21,1.35.43,2.02.64,3.79,2.55,7.82,1.94,11.88.91-3.7,5.76-9.33,9.72-13.83,14.74-3.81,4.26-7.67,8.48-11.97,12.28-1.86-8.48-1.88-15.78,5.67-21.16,2.52-1.8,5.42-3.88,6.23-7.41Z"/>
</svg>